font.ufo
<glyph name="exclam" format="2">
	<unicode hex="0021"/>
	<advance width="360"/>
	<outline>
		<contour>
			<point x="180" y="-12" type="curve" smooth="yes"/>
			<point x="240" y="-12"/>
			<point x="284" y="32"/>
			<point x="284" y="92" type="curve" smooth="yes"/>
			<point x="284" y="152"/>
			<point x="240" y="196"/>
			<point x="180" y="196" type="curve" smooth="yes"/>
			<point x="120" y="196"/>
			<point x="76" y="152"/>
			<point x="76" y="92" type="curve" smooth="yes"/>
			<point x="76" y="32"/>
			<point x="120" y="-12"/>
		</contour>
		<contour>
			<point x="180" y="664" type="curve" smooth="yes"/>
			<point x="108" y="664"/>
			<point x="64" y="624"/>
			<point x="64" y="548" type="curve" smooth="yes"/>
			<point x="64" y="488"/>
			<point x="80" y="448"/>
			<point x="116" y="348" type="curve" smooth="yes"/>
			<point x="148" y="260" type="line"/>
			<point x="212" y="260" type="line"/>
			<point x="244" y="348" type="line" smooth="yes"/>
			<point x="280" y="448"/>
			<point x="296" y="488"/>
			<point x="296" y="548" type="curve" smooth="yes"/>
			<point x="296" y="624"/>
			<point x="252" y="664"/>
		</contour>
	</outline>
</glyph>
<glyph name="slash" format="2">
	<unicode hex="002F"/>
	<advance width="411"/>
	<outline>
		<contour>
			<point x="8" y="-160" type="line"/>
			<point x="140" y="-160" type="line"/>
			<point x="403" y="710" type="line"/>
			<point x="267" y="710" type="line"/>
		</contour>
	</outline>
</glyph>
<glyph name="at" format="2">
	<unicode hex="0040"/>
	<advance width="956"/>
	<outline>
		<contour>
			<point x="372" y="4" type="curve" smooth="yes"/>
			<point x="440" y="4"/>
			<point x="472" y="40"/>
			<point x="496" y="80" type="curve"/>
			<point x="528" y="80" type="line"/>
			<point x="528" y="136" type="line"/>
			<point x="507" y="125"/>
			<point x="488" y="116"/>
			<point x="456" y="116" type="curve" smooth="yes"/>
			<point x="416" y="116"/>
			<point x="392" y="140"/>
			<point x="392" y="192" type="curve" smooth="yes"/>
			<point x="392" y="276"/>
			<point x="440" y="380"/>
			<point x="504" y="380" type="curve" smooth="yes"/>
			<point x="536" y="380"/>
			<point x="560" y="371"/>
			<point x="575" y="359" type="curve"/>
			<point x="620" y="376" type="line"/>
			<point x="600" y="436"/>
			<point x="560" y="464"/>
			<point x="496" y="464" type="curve" smooth="yes"/>
			<point x="360" y="464"/>
			<point x="236" y="324"/>
			<point x="236" y="160" type="curve" smooth="yes"/>
			<point x="236" y="52"/>
			<point x="296" y="4"/>
		</contour>
		<contour>
			<point x="660" y="4" type="curve" smooth="yes"/>
			<point x="816" y="4"/>
			<point x="928" y="136"/>
			<point x="928" y="312" type="curve" smooth="yes"/>
			<point x="928" y="519"/>
			<point x="785" y="660"/>
			<point x="536" y="660" type="curve" smooth="yes"/>
			<point x="221" y="660"/>
			<point x="28" y="440"/>
			<point x="28" y="170" type="curve" smooth="yes"/>
			<point x="28" y="-58"/>
			<point x="177" y="-200"/>
			<point x="436" y="-200" type="curve" smooth="yes"/>
			<point x="516" y="-200"/>
			<point x="588" y="-184"/>
			<point x="636" y="-160" type="curve"/>
			<point x="616" y="-100" type="line"/>
			<point x="556" y="-116"/>
			<point x="516" y="-124"/>
			<point x="452" y="-124" type="curve" smooth="yes"/>
			<point x="235" y="-124"/>
			<point x="132" y="-6"/>
			<point x="132" y="187" type="curve" smooth="yes"/>
			<point x="132" y="395"/>
			<point x="276" y="588"/>
			<point x="528" y="588" type="curve" smooth="yes"/>
			<point x="738" y="588"/>
			<point x="844" y="471"/>
			<point x="844" y="308" type="curve" smooth="yes"/>
			<point x="844" y="168"/>
			<point x="783" y="84"/>
			<point x="708" y="84" type="curve" smooth="yes"/>
			<point x="672" y="84"/>
			<point x="656" y="108"/>
			<point x="668" y="176" type="curve" smooth="yes"/>
			<point x="716" y="456" type="line"/>
			<point x="640" y="456" type="line"/>
			<point x="541" y="380" type="line"/>
			<point x="498" y="116" type="line"/>
			<point x="512" y="116" type="line"/>
			<point x="520" y="32"/>
			<point x="574" y="4"/>
		</contour>
	</outline>
</glyph>
<glyph name="B" format="2">
	<unicode hex="0042"/>
	<advance width="740"/>
	<outline>
		<contour>
			<point x="28" y="0" type="line"/>
			<point x="152" y="0" type="line"/>
			<point x="152" y="80" type="line"/>
			<point x="136" y="80" type="line"/>
			<point x="28" y="80" type="line"/>
		</contour>
		<contour>
			<point x="104" y="0" type="curve"/>
			<point x="320" y="0" type="line"/>
			<point x="320" y="95"/>
			<point x="320" y="189"/>
			<point x="320" y="284" type="curve" smooth="yes"/>
			<point x="320" y="368" type="line" smooth="yes"/>
			<point x="320" y="463"/>
			<point x="320" y="557"/>
			<point x="320" y="652" type="curve"/>
			<point x="104" y="652" type="line"/>
			<point x="104" y="557"/>
			<point x="104" y="463"/>
			<point x="104" y="368" type="curve" smooth="yes"/>
			<point x="104" y="284" type="line" smooth="yes"/>
			<point x="104" y="189"/>
			<point x="104" y="95"/>
		</contour>
		<contour>
			<point x="272" y="0" type="line"/>
			<point x="352" y="0" type="line" smooth="yes"/>
			<point x="596" y="0"/>
			<point x="704" y="68"/>
			<point x="704" y="188" type="curve" smooth="yes"/>
			<point x="704" y="293"/>
			<point x="614" y="336"/>
			<point x="443" y="336" type="curve"/>
			<point x="443" y="360" type="line"/>
			<point x="584" y="360"/>
			<point x="668" y="414"/>
			<point x="668" y="504" type="curve" smooth="yes"/>
			<point x="668" y="600"/>
			<point x="564" y="652"/>
			<point x="360" y="652" type="curve" smooth="yes"/>
			<point x="272" y="652" type="line"/>
			<point x="272" y="576" type="line"/>
			<point x="352" y="576" type="line" smooth="yes"/>
			<point x="420" y="576"/>
			<point x="452" y="536"/>
			<point x="452" y="476" type="curve" smooth="yes"/>
			<point x="452" y="416"/>
			<point x="420" y="372"/>
			<point x="344" y="372" type="curve" smooth="yes"/>
			<point x="256" y="372" type="line"/>
			<point x="256" y="300" type="line"/>
			<point x="352" y="300" type="line" smooth="yes"/>
			<point x="444" y="300"/>
			<point x="484" y="260"/>
			<point x="484" y="188" type="curve" smooth="yes"/>
			<point x="484" y="116"/>
			<point x="444" y="76"/>
			<point x="344" y="76" type="curve" smooth="yes"/>
			<point x="272" y="76" type="line"/>
		</contour>
		<contour>
			<point x="28" y="572" type="line"/>
			<point x="136" y="572" type="line"/>
			<point x="152" y="572" type="line"/>
			<point x="152" y="652" type="line"/>
			<point x="28" y="652" type="line"/>
		</contour>
	</outline>
	<anchor name="aboveUC" x="335" y="672"/>
	<anchor name="belowLC" x="368" y="-20"/>
</glyph>
<glyph name="J" format="2">
	<unicode hex="004A"/>
	<advance width="436"/>
	<outline>
		<contour>
			<point x="52" y="-154" type="curve" smooth="yes"/>
			<point x="148" y="-154"/>
			<point x="210" y="-121"/>
			<point x="256" y="-66" type="curve" smooth="yes"/>
			<point x="297" y="-17"/>
			<point x="336" y="30"/>
			<point x="336" y="206" type="curve" smooth="yes"/>
			<point x="336" y="366" type="line" smooth="yes"/>
			<point x="336" y="465"/>
			<point x="336" y="553"/>
			<point x="336" y="652" type="curve"/>
			<point x="120" y="652" type="line"/>
			<point x="120" y="477"/>
			<point x="120" y="325"/>
			<point x="120" y="152" type="curve" smooth="yes"/>
			<point x="120" y="14"/>
			<point x="131" y="-35"/>
			<point x="135" y="-108" type="curve"/>
			<point x="150" y="-98" type="line"/>
			<point x="88" y="-98" type="line"/>
			<point x="122" y="-114" type="line"/>
			<point x="101" y="-78" type="line" smooth="yes"/>
			<point x="70" y="-26"/>
			<point x="49" y="-13"/>
			<point x="4" y="-13" type="curve" smooth="yes"/>
			<point x="-38" y="-13"/>
			<point x="-66" y="-42"/>
			<point x="-71" y="-83" type="curve"/>
			<point x="-65" y="-130"/>
			<point x="-13" y="-154"/>
		</contour>
		<contour>
			<point x="36" y="572" type="line"/>
			<point x="168" y="572" type="line"/>
			<point x="288" y="572" type="line"/>
			<point x="412" y="572" type="line"/>
			<point x="412" y="652" type="line"/>
			<point x="36" y="652" type="line"/>
		</contour>
	</outline>
	<anchor name="aboveUC" x="228" y="672"/>
	<anchor name="belowLC" x="147" y="-164"/>
</glyph>
<glyph name="O" format="2">
	<unicode hex="004F"/>
	<advance width="800"/>
	<outline>
		<contour>
			<point x="400" y="-16" type="curve" smooth="yes"/>
			<point x="580" y="-16"/>
			<point x="756" y="92"/>
			<point x="756" y="328" type="curve" smooth="yes"/>
			<point x="756" y="564"/>
			<point x="580" y="668"/>
			<point x="400" y="668" type="curve" smooth="yes"/>
			<point x="220" y="668"/>
			<point x="44" y="560"/>
			<point x="44" y="324" type="curve" smooth="yes"/>
			<point x="44" y="88"/>
			<point x="220" y="-16"/>
		</contour>
		<contour>
			<point x="400" y="64" type="curve" smooth="yes"/>
			<point x="308" y="64"/>
			<point x="268" y="168"/>
			<point x="268" y="328" type="curve" smooth="yes"/>
			<point x="268" y="488"/>
			<point x="308" y="588"/>
			<point x="400" y="588" type="curve" smooth="yes"/>
			<point x="492" y="588"/>
			<point x="532" y="484"/>
			<point x="532" y="324" type="curve" smooth="yes"/>
			<point x="532" y="164"/>
			<point x="492" y="64"/>
		</contour>
	</outline>
	<anchor name="aboveUC" x="400" y="672"/>
	<anchor name="belowLC" x="400" y="-20"/>
	<anchor name="hornLC" x="619" y="543"/>
	<anchor name="ogonek" x="503" y="0"/>
</glyph>
<glyph name="bracketleft" format="2">
	<unicode hex="005B"/>
	<advance width="436"/>
	<outline>
		<contour>
			<point x="120" y="-160" type="curve"/>
			<point x="272" y="-160" type="line"/>
			<point x="272" y="-54"/>
			<point x="272" y="52"/>
			<point x="272" y="158" type="curve" smooth="yes"/>
			<point x="272" y="398" type="line" smooth="yes"/>
			<point x="272" y="504"/>
			<point x="272" y="610"/>
			<point x="272" y="716" type="curve"/>
			<point x="120" y="716" type="line"/>
			<point x="120" y="610"/>
			<point x="120" y="504"/>
			<point x="120" y="398" type="curve" smooth="yes"/>
			<point x="120" y="158" type="line" smooth="yes"/>
			<point x="120" y="52"/>
			<point x="120" y="-54"/>
		</contour>
		<contour>
			<point x="192" y="-160" type="line"/>
			<point x="372" y="-160" type="line"/>
			<point x="372" y="-72" type="line"/>
			<point x="216" y="-72" type="line"/>
			<point x="192" y="-72" type="line"/>
		</contour>
		<contour>
			<point x="192" y="628" type="line"/>
			<point x="216" y="628" type="line"/>
			<point x="372" y="628" type="line"/>
			<point x="372" y="716" type="line"/>
			<point x="192" y="716" type="line"/>
		</contour>
	</outline>
</glyph>
<glyph name="b" format="2">
	<unicode hex="0062"/>
	<advance width="684"/>
	<outline>
		<contour>
			<point x="24" y="0" type="line"/>
			<point x="260" y="-8" type="line"/>
			<point x="280" y="96" type="line"/>
			<point x="288" y="96" type="line"/>
			<point x="288" y="408" type="line"/>
			<point x="280" y="408" type="line"/>
			<point x="288" y="566" type="line"/>
			<point x="288" y="710" type="line"/>
			<point x="224" y="710" type="line"/>
			<point x="20" y="674" type="line"/>
			<point x="20" y="614" type="line"/>
			<point x="84" y="594" type="line"/>
			<point x="84" y="220" type="line" smooth="yes"/>
			<point x="84" y="175"/>
			<point x="84" y="129"/>
			<point x="84" y="84" type="curve"/>
			<point x="24" y="68" type="line"/>
		</contour>
		<contour>
			<point x="456" y="-16" type="curve" smooth="yes"/>
			<point x="568" y="-16"/>
			<point x="648" y="84"/>
			<point x="648" y="256" type="curve" smooth="yes"/>
			<point x="648" y="428"/>
			<point x="568" y="532"/>
			<point x="456" y="532" type="curve" smooth="yes"/>
			<point x="379" y="532"/>
			<point x="344" y="498"/>
			<point x="316" y="424" type="curve"/>
			<point x="256" y="424" type="line"/>
			<point x="256" y="364" type="line"/>
			<point x="287" y="385"/>
			<point x="317" y="396"/>
			<point x="348" y="396" type="curve" smooth="yes"/>
			<point x="408" y="396"/>
			<point x="440" y="356"/>
			<point x="440" y="252" type="curve" smooth="yes"/>
			<point x="440" y="148"/>
			<point x="408" y="108"/>
			<point x="348" y="108" type="curve" smooth="yes"/>
			<point x="317" y="108"/>
			<point x="286" y="118"/>
			<point x="256" y="140" type="curve"/>
			<point x="256" y="80" type="line"/>
			<point x="316" y="80" type="line"/>
			<point x="336" y="32"/>
			<point x="368" y="-16"/>
		</contour>
	</outline>
	<anchor name="aboveLC" x="182" y="720"/>
	<anchor name="belowLC" x="312" y="-20"/>
</glyph>
<glyph name="d" format="2">
	<unicode hex="0064"/>
	<advance width="680"/>
	<outline>
		<contour>
			<point x="228" y="-16" type="curve" smooth="yes"/>
			<point x="316" y="-16"/>
			<point x="347" y="43"/>
			<point x="368" y="93" type="curve"/>
			<point x="428" y="93" type="line"/>
			<point x="428" y="149" type="line"/>
			<point x="402" y="128"/>
			<point x="368" y="116"/>
			<point x="336" y="116" type="curve" smooth="yes"/>
			<point x="276" y="116"/>
			<point x="244" y="156"/>
			<point x="244" y="260" type="curve" smooth="yes"/>
			<point x="244" y="364"/>
			<point x="276" y="404"/>
			<point x="336" y="404" type="curve" smooth="yes"/>
			<point x="373" y="404"/>
			<point x="406" y="391"/>
			<point x="428" y="372" type="curve"/>
			<point x="428" y="432" type="line"/>
			<point x="368" y="432" type="line"/>
			<point x="348" y="480"/>
			<point x="316" y="532"/>
			<point x="228" y="532" type="curve" smooth="yes"/>
			<point x="116" y="532"/>
			<point x="36" y="428"/>
			<point x="36" y="256" type="curve" smooth="yes"/>
			<point x="36" y="84"/>
			<point x="116" y="-16"/>
		</contour>
		<contour>
			<point x="424" y="-8" type="line"/>
			<point x="660" y="0" type="line"/>
			<point x="660" y="68" type="line"/>
			<point x="600" y="84" type="line"/>
			<point x="600" y="566" type="line"/>
			<point x="600" y="710" type="line"/>
			<point x="536" y="710" type="line"/>
			<point x="332" y="674" type="line"/>
			<point x="332" y="614" type="line"/>
			<point x="396" y="594" type="line"/>
			<point x="404" y="408" type="line"/>
			<point x="396" y="408" type="line"/>
			<point x="396" y="101" type="line"/>
			<point x="404" y="101" type="line"/>
		</contour>
	</outline>
	<anchor name="aboveLC" x="496" y="720"/>
	<anchor name="belowLC" x="368" y="-20"/>
</glyph>
<glyph name="h" format="2">
	<unicode hex="0068"/>
	<advance width="712"/>
	<outline>
		<contour>
			<point x="24" y="0" type="line"/>
			<point x="332" y="0" type="line"/>
			<point x="332" y="76" type="line"/>
			<point x="240" y="76" type="line"/>
			<point x="132" y="76" type="line"/>
			<point x="24" y="76" type="line"/>
		</contour>
		<contour>
			<point x="84" y="0" type="curve"/>
			<point x="288" y="0" type="line"/>
			<point x="288" y="73"/>
			<point x="288" y="147"/>
			<point x="288" y="220" type="curve" smooth="yes"/>
			<point x="288" y="397" type="line"/>
			<point x="286" y="397" type="line"/>
			<point x="288" y="566" type="line"/>
			<point x="288" y="710" type="line"/>
			<point x="224" y="710" type="line"/>
			<point x="20" y="674" type="line"/>
			<point x="20" y="614" type="line"/>
			<point x="84" y="594" type="line"/>
			<point x="84" y="220" type="line" smooth="yes"/>
			<point x="84" y="147"/>
			<point x="84" y="73"/>
		</contour>
		<contour>
			<point x="384" y="0" type="line"/>
			<point x="692" y="0" type="line"/>
			<point x="692" y="76" type="line"/>
			<point x="584" y="76" type="line"/>
			<point x="476" y="76" type="line"/>
			<point x="384" y="76" type="line"/>
		</contour>
		<contour>
			<point x="428" y="0" type="curve"/>
			<point x="632" y="0" type="line"/>
			<point x="632" y="74"/>
			<point x="632" y="147"/>
			<point x="632" y="221" type="curve" smooth="yes"/>
			<point x="632" y="352" type="line" smooth="yes"/>
			<point x="632" y="468"/>
			<point x="576" y="532"/>
			<point x="476" y="532" type="curve" smooth="yes"/>
			<point x="384" y="532"/>
			<point x="344" y="468"/>
			<point x="320" y="420" type="curve"/>
			<point x="256" y="420" type="line"/>
			<point x="256" y="348" type="line"/>
			<point x="296" y="376"/>
			<point x="328" y="388"/>
			<point x="364" y="388" type="curve" smooth="yes"/>
			<point x="408" y="388"/>
			<point x="428" y="368"/>
			<point x="428" y="320" type="curve" smooth="yes"/>
			<point x="428" y="221" type="line" smooth="yes"/>
			<point x="428" y="147"/>
			<point x="428" y="74"/>
		</contour>
	</outline>
	<anchor name="aboveLC" x="183" y="720"/>
	<anchor name="belowLC" x="359" y="-20"/>
</glyph>
<glyph name="m" format="2">
	<unicode hex="006D"/>
	<advance width="1040"/>
	<outline>
		<contour>
			<point x="32" y="0" type="line"/>
			<point x="336" y="0" type="line"/>
			<point x="336" y="76" type="line"/>
			<point x="248" y="76" type="line"/>
			<point x="140" y="76" type="line"/>
			<point x="32" y="76" type="line"/>
		</contour>
		<contour>
			<point x="92" y="0" type="curve"/>
			<point x="296" y="0" type="line"/>
			<point x="296" y="73"/>
			<point x="296" y="147"/>
			<point x="296" y="220" type="curve" smooth="yes"/>
			<point x="296" y="412" type="line"/>
			<point x="280" y="412" type="line"/>
			<point x="264" y="516" type="line"/>
			<point x="208" y="516" type="line"/>
			<point x="28" y="456" type="line"/>
			<point x="28" y="384" type="line"/>
			<point x="92" y="384" type="line"/>
			<point x="92" y="348"/>
			<point x="92" y="312"/>
			<point x="92" y="276" type="curve" smooth="yes"/>
			<point x="92" y="220" type="line" smooth="yes"/>
			<point x="92" y="147"/>
			<point x="92" y="73"/>
		</contour>
		<contour>
			<point x="384" y="0" type="line"/>
			<point x="668" y="0" type="line"/>
			<point x="668" y="76" type="line"/>
			<point x="580" y="76" type="line"/>
			<point x="472" y="76" type="line"/>
			<point x="384" y="76" type="line"/>
		</contour>
		<contour>
			<point x="424" y="0" type="curve"/>
			<point x="628" y="0" type="line"/>
			<point x="628" y="73"/>
			<point x="628" y="147"/>
			<point x="628" y="220" type="curve" smooth="yes"/>
			<point x="628" y="356" type="line" smooth="yes"/>
			<point x="628" y="472"/>
			<point x="572" y="532"/>
			<point x="474" y="532" type="curve" smooth="yes"/>
			<point x="384" y="532"/>
			<point x="344" y="468"/>
			<point x="312" y="420" type="curve"/>
			<point x="256" y="420" type="line"/>
			<point x="256" y="348" type="line"/>
			<point x="296" y="376"/>
			<point x="328" y="388"/>
			<point x="362" y="388" type="curve" smooth="yes"/>
			<point x="404" y="388"/>
			<point x="424" y="368"/>
			<point x="424" y="320" type="curve" smooth="yes"/>
			<point x="424" y="221" type="line" smooth="yes"/>
			<point x="424" y="147"/>
			<point x="424" y="74"/>
		</contour>
		<contour>
			<point x="716" y="0" type="line"/>
			<point x="1020" y="0" type="line"/>
			<point x="1020" y="76" type="line"/>
			<point x="912" y="76" type="line"/>
			<point x="804" y="76" type="line"/>
			<point x="716" y="76" type="line"/>
		</contour>
		<contour>
			<point x="756" y="0" type="curve"/>
			<point x="960" y="0" type="line"/>
			<point x="960" y="73"/>
			<point x="960" y="147"/>
			<point x="960" y="220" type="curve" smooth="yes"/>
			<point x="960" y="356" type="line" smooth="yes"/>
			<point x="960" y="472"/>
			<point x="904" y="532"/>
			<point x="806" y="532" type="curve" smooth="yes"/>
			<point x="716" y="532"/>
			<point x="676" y="468"/>
			<point x="644" y="420" type="curve"/>
			<point x="588" y="420" type="line"/>
			<point x="588" y="348" type="line"/>
			<point x="628" y="376"/>
			<point x="660" y="388"/>
			<point x="694" y="388" type="curve" smooth="yes"/>
			<point x="736" y="388"/>
			<point x="756" y="368"/>
			<point x="756" y="320" type="curve" smooth="yes"/>
			<point x="756" y="220" type="line" smooth="yes"/>
			<point x="756" y="147"/>
			<point x="756" y="73"/>
		</contour>
	</outline>
	<anchor name="aboveLC" x="532" y="536"/>
	<anchor name="belowLC" x="535" y="-20"/>
</glyph>
<glyph name="o" format="2">
	<unicode hex="006F"/>
	<advance width="652"/>
	<outline>
		<contour>
			<point x="326" y="-16" type="curve" smooth="yes"/>
			<point x="480" y="-16"/>
			<point x="616" y="73"/>
			<point x="616" y="260" type="curve" smooth="yes"/>
			<point x="616" y="447"/>
			<point x="480" y="532"/>
			<point x="326" y="532" type="curve" smooth="yes"/>
			<point x="172" y="532"/>
			<point x="36" y="443"/>
			<point x="36" y="256" type="curve" smooth="yes"/>
			<point x="36" y="69"/>
			<point x="172" y="-16"/>
		</contour>
		<contour>
			<point x="326" y="60" type="curve" smooth="yes"/>
			<point x="276" y="60"/>
			<point x="246" y="109"/>
			<point x="246" y="260" type="curve" smooth="yes"/>
			<point x="246" y="411"/>
			<point x="276" y="456"/>
			<point x="326" y="456" type="curve" smooth="yes"/>
			<point x="376" y="456"/>
			<point x="406" y="407"/>
			<point x="406" y="256" type="curve" smooth="yes"/>
			<point x="406" y="101"/>
			<point x="376" y="60"/>
		</contour>
	</outline>
	<anchor name="aboveLC" x="326" y="536"/>
	<anchor name="belowLC" x="326" y="-20"/>
	<anchor name="hornLC" x="493" y="425"/>
	<anchor name="ogonek" x="417" y="0"/>
</glyph>
<glyph name="x" format="2">
	<unicode hex="0078"/>
	<advance width="670"/>
	<outline>
		<contour>
			<point x="21" y="0" type="line"/>
			<point x="237" y="0" type="line"/>
			<point x="237" y="76" type="line"/>
			<point x="165" y="76" type="line"/>
			<point x="121" y="76" type="line"/>
			<point x="21" y="76" type="line"/>
		</contour>
		<contour>
			<point x="21" y="8" type="line"/>
			<point x="137" y="8" type="line"/>
			<point x="197" y="108" type="line"/>
			<point x="247" y="228" type="line"/>
			<point x="308" y="228" type="line"/>
			<point x="265" y="308" type="line"/>
		</contour>
		<contour>
			<point x="301" y="0" type="line"/>
			<point x="650" y="0" type="line"/>
			<point x="650" y="76" type="line"/>
			<point x="546" y="76" type="line"/>
			<point x="381" y="76" type="line"/>
			<point x="301" y="76" type="line"/>
		</contour>
		<contour>
			<point x="410" y="240" type="line"/>
			<point x="634" y="500" type="line"/>
			<point x="526" y="500" type="line"/>
			<point x="468" y="412" type="line"/>
			<point x="421" y="304" type="line"/>
			<point x="371" y="304" type="line"/>
		</contour>
		<contour>
			<point x="409" y="0" type="line"/>
			<point x="650" y="0" type="line"/>
			<point x="412" y="295" type="line"/>
			<point x="270" y="516" type="line"/>
			<point x="29" y="516" type="line"/>
			<point x="253" y="240" type="line"/>
		</contour>
		<contour>
			<point x="29" y="444" type="line"/>
			<point x="129" y="428" type="line"/>
			<point x="286" y="428" type="line"/>
			<point x="374" y="444" type="line"/>
			<point x="374" y="516" type="line"/>
			<point x="29" y="516" type="line"/>
		</contour>
		<contour>
			<point x="426" y="444" type="line"/>
			<point x="506" y="428" type="line"/>
			<point x="534" y="428" type="line"/>
			<point x="634" y="444" type="line"/>
			<point x="634" y="516" type="line"/>
			<point x="426" y="516" type="line"/>
		</contour>
	</outline>
	<anchor name="aboveLC" x="355" y="536"/>
	<anchor name="belowLC" x="308" y="-20"/>
</glyph>
<glyph name="y" format="2">
	<unicode hex="0079"/>
	<advance width="664"/>
	<outline>
		<contour>
			<point x="178" y="-232" type="curve" smooth="yes"/>
			<point x="313" y="-232"/>
			<point x="391" y="-140"/>
			<point x="438" y="-12" type="curve" smooth="yes"/>
			<point x="630" y="516" type="line"/>
			<point x="530" y="516" type="line"/>
			<point x="474" y="308" type="line"/>
			<point x="424" y="42" type="line"/>
			<point x="394" y="42" type="line"/>
			<point x="370" y="-16" type="line" smooth="yes"/>
			<point x="342" y="-84"/>
			<point x="280" y="-140"/>
			<point x="252" y="-168" type="curve"/>
			<point x="196" y="-168" type="line"/>
			<point x="232" y="-188" type="line"/>
			<point x="218" y="-140" type="line" smooth="yes"/>
			<point x="207" y="-103"/>
			<point x="178" y="-67"/>
			<point x="131" y="-67" type="curve" smooth="yes"/>
			<point x="75" y="-67"/>
			<point x="53" y="-99"/>
			<point x="42" y="-152" type="curve"/>
			<point x="55" y="-201"/>
			<point x="96" y="-232"/>
		</contour>
		<contour>
			<point x="317" y="-146" type="line"/>
			<point x="451" y="83" type="line"/>
			<point x="400" y="82" type="line"/>
			<point x="294" y="516" type="line"/>
			<point x="48" y="516" type="line"/>
		</contour>
		<contour>
			<point x="20" y="444" type="line"/>
			<point x="120" y="428" type="line"/>
			<point x="290" y="428" type="line"/>
			<point x="386" y="444" type="line"/>
			<point x="386" y="516" type="line"/>
			<point x="20" y="516" type="line"/>
		</contour>
		<contour>
			<point x="438" y="444" type="line"/>
			<point x="534" y="428" type="line"/>
			<point x="554" y="428" type="line"/>
			<point x="654" y="444" type="line"/>
			<point x="654" y="516" type="line"/>
			<point x="438" y="516" type="line"/>
		</contour>
	</outline>
	<anchor name="aboveLC" x="400" y="536"/>
	<anchor name="belowLC" x="253" y="-240"/>
</glyph>
<glyph name="z" format="2">
	<unicode hex="007A"/>
	<advance width="556"/>
	<outline>
		<contour>
			<point x="24" y="0" type="line"/>
			<point x="520" y="0" type="line"/>
			<point x="528" y="180" type="line"/>
			<point x="440" y="180" type="line"/>
			<point x="400" y="20" type="line"/>
			<point x="428" y="70" type="line"/>
			<point x="254" y="70" type="line"/>
			<point x="254" y="85" type="line"/>
			<point x="520" y="448" type="line"/>
			<point x="520" y="516" type="line"/>
			<point x="44" y="516" type="line"/>
			<point x="36" y="344" type="line"/>
			<point x="124" y="344" type="line"/>
			<point x="164" y="496" type="line"/>
			<point x="136" y="446" type="line"/>
			<point x="289" y="446" type="line"/>
			<point x="289" y="431" type="line"/>
			<point x="24" y="68" type="line"/>
		</contour>
	</outline>
	<anchor name="aboveLC" x="281" y="536"/>
	<anchor name="belowLC" x="286" y="-20"/>
</glyph>
<glyph name="asciitilde" format="2">
	<unicode hex="007E"/>
	<advance width="600"/>
	<outline>
		<contour>
			<point x="324" y="397" type="curve" smooth="yes"/>
			<point x="279" y="444"/>
			<point x="235" y="461"/>
			<point x="195" y="461" type="curve" smooth="yes"/>
			<point x="113" y="461"/>
			<point x="47" y="407"/>
			<point x="47" y="248" type="curve"/>
			<point x="138" y="239" type="line"/>
			<point x="143" y="321"/>
			<point x="163" y="346"/>
			<point x="192" y="346" type="curve" smooth="yes"/>
			<point x="214" y="346"/>
			<point x="231" y="337"/>
			<point x="273" y="293" type="curve" smooth="yes"/>
			<point x="319" y="245"/>
			<point x="359" y="229"/>
			<point x="404" y="229" type="curve" smooth="yes"/>
			<point x="482" y="229"/>
			<point x="553" y="280"/>
			<point x="553" y="442" type="curve"/>
			<point x="462" y="451" type="line"/>
			<point x="457" y="369"/>
			<point x="438" y="344"/>
			<point x="409" y="344" type="curve" smooth="yes"/>
			<point x="390" y="344"/>
			<point x="367" y="352"/>
		</contour>
	</outline>
</glyph>
<glyph name="cent" format="2">
	<unicode hex="00A2"/>
	<advance width="600"/>
	<outline>
		<contour>
			<point x="376" y="-44" type="line"/>
			<point x="376" y="656" type="line"/>
			<point x="308" y="656" type="line"/>
			<point x="308" y="-44" type="line"/>
		</contour>
		<contour>
			<point x="376" y="512" type="curve" smooth="yes"/>
			<point x="408" y="512"/>
			<point x="432" y="508"/>
			<point x="456" y="504" type="curve"/>
			<point x="424" y="528" type="line"/>
			<point x="424" y="452" type="line" smooth="yes"/>
			<point x="424" y="400"/>
			<point x="448" y="372"/>
			<point x="492" y="372" type="curve" smooth="yes"/>
			<point x="536" y="372"/>
			<point x="560" y="408"/>
			<point x="560" y="452" type="curve"/>
			<point x="536" y="508"/>
			<point x="476" y="564"/>
			<point x="328" y="564" type="curve" smooth="yes"/>
			<point x="168" y="564"/>
			<point x="52" y="460"/>
			<point x="52" y="296" type="curve" smooth="yes"/>
			<point x="52" y="132"/>
			<point x="160" y="48"/>
			<point x="320" y="48" type="curve" smooth="yes"/>
			<point x="460" y="48"/>
			<point x="516" y="108"/>
			<point x="552" y="160" type="curve"/>
			<point x="504" y="208" type="line"/>
			<point x="476" y="172"/>
			<point x="436" y="140"/>
			<point x="384" y="140" type="curve" smooth="yes"/>
			<point x="296" y="140"/>
			<point x="232" y="188"/>
			<point x="232" y="316" type="curve" smooth="yes"/>
			<point x="232" y="444"/>
			<point x="288" y="512"/>
		</contour>
	</outline>
</glyph>
<glyph name="sterling" format="2">
	<unicode hex="00A3"/>
	<advance width="600"/>
	<outline>
		<contour>
			<point x="71" y="280" type="line"/>
			<point x="455" y="280" type="line"/>
			<point x="455" y="344" type="line"/>
			<point x="71" y="344" type="line"/>
		</contour>
		<contour>
			<point x="63" y="0" type="line"/>
			<point x="535" y="0" type="line"/>
			<point x="535" y="146" type="line"/>
			<point x="169" y="146" type="line"/>
			<point x="169" y="174" type="line"/>
			<point x="159" y="161" type="line"/>
			<point x="238" y="183"/>
			<point x="279" y="227"/>
			<point x="279" y="306" type="curve" smooth="yes"/>
			<point x="279" y="353"/>
			<point x="255" y="384"/>
			<point x="255" y="464" type="curve" smooth="yes"/>
			<point x="255" y="544"/>
			<point x="299" y="584"/>
			<point x="357" y="584" type="curve" smooth="yes"/>
			<point x="403" y="584"/>
			<point x="435" y="584"/>
			<point x="467" y="584" type="curve"/>
			<point x="379" y="608" type="line"/>
			<point x="395" y="528" type="line" smooth="yes"/>
			<point x="409" y="460"/>
			<point x="435" y="444"/>
			<point x="473" y="444" type="curve" smooth="yes"/>
			<point x="515" y="444"/>
			<point x="531" y="472"/>
			<point x="539" y="504" type="curve"/>
			<point x="523" y="577"/>
			<point x="466" y="640"/>
			<point x="323" y="640" type="curve" smooth="yes"/>
			<point x="179" y="640"/>
			<point x="89" y="560"/>
			<point x="89" y="464" type="curve" smooth="yes"/>
			<point x="89" y="352"/>
			<point x="163" y="348"/>
			<point x="163" y="268" type="curve" smooth="yes"/>
			<point x="163" y="216"/>
			<point x="135" y="176"/>
			<point x="63" y="131" type="curve"/>
		</contour>
	</outline>
</glyph>
<glyph name="three.sups" format="2">
	<unicode hex="00B3"/>
	<advance width="441"/>
	<outline>
		<contour>
			<point x="201" y="393" type="curve" smooth="yes"/>
			<point x="343" y="393"/>
			<point x="402" y="448"/>
			<point x="402" y="514" type="curve" smooth="yes"/>
			<point x="402" y="584"/>
			<point x="352" y="617"/>
			<point x="235" y="617" type="curve"/>
			<point x="235" y="634" type="line"/>
			<point x="334" y="633"/>
			<point x="389" y="674"/>
			<point x="389" y="733" type="curve" smooth="yes"/>
			<point x="389" y="793"/>
			<point x="338" y="839"/>
			<point x="216" y="839" type="curve" smooth="yes"/>
			<point x="119" y="839"/>
			<point x="72" y="800"/>
			<point x="61" y="735" type="curve"/>
			<point x="69" y="710"/>
			<point x="85" y="699"/>
			<point x="115" y="699" type="curve" smooth="yes"/>
			<point x="152" y="699"/>
			<point x="171" y="715"/>
			<point x="175" y="748" type="curve" smooth="yes"/>
			<point x="184" y="820" type="line"/>
			<point x="135" y="788" type="line"/>
			<point x="147" y="790"/>
			<point x="159" y="793"/>
			<point x="184" y="793" type="curve" smooth="yes"/>
			<point x="229" y="793"/>
			<point x="253" y="776"/>
			<point x="253" y="722" type="curve" smooth="yes"/>
			<point x="253" y="671"/>
			<point x="228" y="647"/>
			<point x="172" y="647" type="curve" smooth="yes"/>
			<point x="148" y="647" type="line"/>
			<point x="148" y="598" type="line"/>
			<point x="172" y="598" type="line" smooth="yes"/>
			<point x="234" y="598"/>
			<point x="259" y="568"/>
			<point x="259" y="520" type="curve" smooth="yes"/>
			<point x="259" y="470"/>
			<point x="233" y="440"/>
			<point x="165" y="440" type="curve" smooth="yes"/>
			<point x="146" y="440"/>
			<point x="128" y="443"/>
			<point x="115" y="445" type="curve"/>
			<point x="158" y="412" type="line"/>
			<point x="154" y="493" type="line" smooth="yes"/>
			<point x="152" y="534"/>
			<point x="123" y="551"/>
			<point x="92" y="551" type="curve" smooth="yes"/>
			<point x="65" y="551"/>
			<point x="46" y="535"/>
			<point x="39" y="500" type="curve"/>
			<point x="55" y="430"/>
			<point x="106" y="393"/>
		</contour>
	</outline>
</glyph>
<glyph name="Oslash" format="2">
	<unicode hex="00D8"/>
	<advance width="800"/>
	<outline>
		<contour>
			<point x="756" y="620" type="line"/>
			<point x="708" y="668" type="line"/>
			<point x="44" y="32" type="line"/>
			<point x="92" y="-16" type="line"/>
		</contour>
		<contour>
			<point x="252" y="328" type="curve" smooth="yes"/>
			<point x="252" y="488"/>
			<point x="300" y="592"/>
			<point x="400" y="592" type="curve" smooth="yes"/>
			<point x="500" y="592"/>
			<point x="548" y="484"/>
			<point x="548" y="324" type="curve" smooth="yes"/>
			<point x="548" y="164"/>
			<point x="500" y="60"/>
			<point x="400" y="60" type="curve" smooth="yes"/>
			<point x="300" y="60"/>
			<point x="252" y="168"/>
		</contour>
		<contour>
			<point x="400" y="668" type="curve" smooth="yes"/>
			<point x="220" y="668"/>
			<point x="44" y="560"/>
			<point x="44" y="324" type="curve" smooth="yes"/>
			<point x="44" y="88"/>
			<point x="220" y="-16"/>
			<point x="400" y="-16" type="curve" smooth="yes"/>
			<point x="580" y="-16"/>
			<point x="756" y="92"/>
			<point x="756" y="328" type="curve" smooth="yes"/>
			<point x="756" y="564"/>
			<point x="580" y="668"/>
		</contour>
	</outline>
	<anchor name="aboveUC" x="400" y="672"/>
</glyph>
<glyph name="kgreenlandic" format="2">
	<unicode hex="0138"/>
	<advance width="700"/>
	<outline>
		<contour>
			<point x="24" y="0" type="line"/>
			<point x="340" y="0" type="line"/>
			<point x="340" y="76" type="line"/>
			<point x="240" y="76" type="line"/>
			<point x="132" y="76" type="line"/>
			<point x="24" y="76" type="line"/>
		</contour>
		<contour>
			<point x="84" y="0" type="curve"/>
			<point x="288" y="0" type="line"/>
			<point x="288" y="73"/>
			<point x="288" y="147"/>
			<point x="288" y="220" type="curve" smooth="yes"/>
			<point x="288" y="370" type="line"/>
			<point x="288" y="516" type="line"/>
			<point x="224" y="516" type="line"/>
			<point x="20" y="456" type="line"/>
			<point x="20" y="384" type="line"/>
			<point x="84" y="384" type="line"/>
			<point x="84" y="348"/>
			<point x="84" y="312"/>
			<point x="84" y="276" type="curve" smooth="yes"/>
			<point x="84" y="220" type="line" smooth="yes"/>
			<point x="84" y="147"/>
			<point x="84" y="73"/>
		</contour>
		<contour>
			<point x="232" y="136" type="line"/>
			<point x="668" y="500" type="line"/>
			<point x="536" y="500" type="line"/>
			<point x="424" y="389" type="line"/>
			<point x="312" y="248" type="line"/>
			<point x="232" y="248" type="line"/>
		</contour>
		<contour>
			<point x="448" y="0" type="line"/>
			<point x="684" y="0" type="line"/>
			<point x="684" y="76" type="line"/>
			<point x="613" y="76" type="line"/>
			<point x="642" y="65" type="line"/>
			<point x="472" y="396" type="line"/>
			<point x="344" y="272" type="line"/>
		</contour>
		<contour>
			<point x="504" y="428" type="line"/>
			<point x="536" y="428" type="line"/>
			<point x="668" y="444" type="line"/>
			<point x="668" y="516" type="line"/>
			<point x="380" y="516" type="line"/>
			<point x="380" y="444" type="line"/>
		</contour>
	</outline>
</glyph>
<glyph name="tbar" format="2">
	<unicode hex="0167"/>
	<advance width="404"/>
	<outline>
		<contour>
			<point x="7" y="248" type="line"/>
			<point x="371" y="248" type="line"/>
			<point x="371" y="311" type="line"/>
			<point x="7" y="311" type="line"/>
		</contour>
		<component base="t"/>
	</outline>
</glyph>
<glyph name="Uogonek" format="2">
	<unicode hex="0172"/>
	<advance width="780"/>
	<outline>
		<contour>
			<point x="148" y="572" type="line"/>
			<point x="268" y="572" type="line"/>
			<point x="400" y="572" type="line"/>
			<point x="400" y="652" type="line"/>
			<point x="24" y="652" type="line"/>
			<point x="24" y="572" type="line"/>
		</contour>
		<contour>
			<point x="484" y="-232" type="curve" smooth="yes"/>
			<point x="551" y="-232"/>
			<point x="587" y="-206"/>
			<point x="606" y="-191" type="curve"/>
			<point x="586" y="-127" type="line"/>
			<point x="577" y="-130"/>
			<point x="567" y="-132"/>
			<point x="548" y="-132" type="curve" smooth="yes"/>
			<point x="508" y="-132"/>
			<point x="484" y="-112"/>
			<point x="484" y="-78" type="curve" smooth="yes"/>
			<point x="484" y="-40"/>
			<point x="504" y="-12"/>
			<point x="544" y="8" type="curve" smooth="yes"/>
			<point x="640" y="56"/>
			<point x="680" y="132"/>
			<point x="680" y="248" type="curve" smooth="yes"/>
			<point x="680" y="652" type="line"/>
			<point x="596" y="652" type="line"/>
			<point x="596" y="252" type="line" smooth="yes"/>
			<point x="596" y="124"/>
			<point x="544" y="76"/>
			<point x="456" y="76" type="curve" smooth="yes"/>
			<point x="368" y="76"/>
			<point x="316" y="124"/>
			<point x="316" y="252" type="curve" smooth="yes"/>
			<point x="316" y="368" type="line" smooth="yes"/>
			<point x="316" y="463"/>
			<point x="316" y="557"/>
			<point x="316" y="652" type="curve"/>
			<point x="100" y="652" type="line"/>
			<point x="100" y="557"/>
			<point x="100" y="463"/>
			<point x="100" y="368" type="curve" smooth="yes"/>
			<point x="100" y="248" type="line" smooth="yes"/>
			<point x="100" y="63"/>
			<point x="216" y="-10"/>
			<point x="376" y="-10" type="curve" smooth="yes"/>
			<point x="414" y="-10"/>
			<point x="443" y="-3"/>
			<point x="463" y="2" type="curve"/>
			<point x="468" y="-18" type="line"/>
			<point x="399" y="-36"/>
			<point x="356" y="-76"/>
			<point x="356" y="-132" type="curve" smooth="yes"/>
			<point x="356" y="-192"/>
			<point x="400" y="-232"/>
		</contour>
		<contour>
			<point x="628" y="572" type="line"/>
			<point x="648" y="572" type="line"/>
			<point x="756" y="572" type="line"/>
			<point x="756" y="652" type="line"/>
			<point x="512" y="652" type="line"/>
			<point x="512" y="572" type="line"/>
		</contour>
	</outline>
	<anchor name="aboveUC" x="455" y="672"/>
</glyph>
<glyph name="dotlessj" format="2">
	<unicode hex="0237"/>
	<advance width="348"/>
	<outline>
		<contour>
			<point x="55" y="-232" type="curve" smooth="yes"/>
			<point x="131" y="-232"/>
			<point x="189" y="-198"/>
			<point x="222" y="-150" type="curve" smooth="yes"/>
			<point x="258" y="-98"/>
			<point x="276" y="-35"/>
			<point x="276" y="96" type="curve" smooth="yes"/>
			<point x="276" y="372" type="line"/>
			<point x="276" y="516" type="line"/>
			<point x="212" y="516" type="line"/>
			<point x="8" y="456" type="line"/>
			<point x="8" y="384" type="line"/>
			<point x="72" y="384" type="line"/>
			<point x="72" y="348"/>
			<point x="72" y="312"/>
			<point x="72" y="276" type="curve" smooth="yes"/>
			<point x="72" y="208" type="line" smooth="yes"/>
			<point x="72" y="48"/>
			<point x="97" y="-57"/>
			<point x="97" y="-142" type="curve" smooth="yes"/>
			<point x="97" y="-158"/>
			<point x="97" y="-175"/>
			<point x="97" y="-191" type="curve"/>
			<point x="120" y="-172" type="line"/>
			<point x="40" y="-172" type="line"/>
			<point x="72" y="-188" type="line"/>
			<point x="64" y="-148" type="line" smooth="yes"/>
			<point x="54" y="-97"/>
			<point x="33" y="-68"/>
			<point x="-15" y="-68" type="curve" smooth="yes"/>
			<point x="-56" y="-68"/>
			<point x="-84" y="-97"/>
			<point x="-92" y="-152" type="curve"/>
			<point x="-77" y="-207"/>
			<point x="-30" y="-232"/>
		</contour>
	</outline>
	<anchor name="aboveLC" x="171" y="536"/>
	<anchor name="belowLC" x="102" y="-240"/>
</glyph>
<glyph name="alphalatin" format="2">
	<unicode hex="0251"/>
	<advance width="684"/>
	<outline>
		<contour>
			<point x="228" y="-16" type="curve" smooth="yes"/>
			<point x="316" y="-16"/>
			<point x="347" y="43"/>
			<point x="368" y="93" type="curve"/>
			<point x="428" y="93" type="line"/>
			<point x="428" y="149" type="line"/>
			<point x="402" y="128"/>
			<point x="368" y="116"/>
			<point x="336" y="116" type="curve" smooth="yes"/>
			<point x="276" y="116"/>
			<point x="244" y="156"/>
			<point x="244" y="260" type="curve" smooth="yes"/>
			<point x="244" y="364"/>
			<point x="276" y="404"/>
			<point x="336" y="404" type="curve" smooth="yes"/>
			<point x="373" y="404"/>
			<point x="406" y="391"/>
			<point x="428" y="372" type="curve"/>
			<point x="428" y="432" type="line"/>
			<point x="383" y="432" type="line"/>
			<point x="359" y="495"/>
			<point x="316" y="532"/>
			<point x="234" y="532" type="curve" smooth="yes"/>
			<point x="116" y="532"/>
			<point x="36" y="428"/>
			<point x="36" y="256" type="curve" smooth="yes"/>
			<point x="36" y="84"/>
			<point x="116" y="-16"/>
		</contour>
		<contour>
			<point x="396" y="101" type="line"/>
			<point x="404" y="101" type="line"/>
			<point x="421" y="26"/>
			<point x="464" y="-12"/>
			<point x="544" y="-12" type="curve" smooth="yes"/>
			<point x="600" y="-12"/>
			<point x="648" y="16"/>
			<point x="672" y="48" type="curve"/>
			<point x="660" y="110" type="line"/>
			<point x="656" y="109"/>
			<point x="650" y="108"/>
			<point x="642" y="108" type="curve" smooth="yes"/>
			<point x="616" y="108"/>
			<point x="600" y="120"/>
			<point x="600" y="148" type="curve" smooth="yes"/>
			<point x="600" y="384" type="line"/>
			<point x="600" y="524" type="line"/>
			<point x="516" y="524" type="line"/>
			<point x="404" y="416" type="line"/>
			<point x="396" y="416" type="line"/>
		</contour>
	</outline>
	<anchor name="aboveLC" x="361" y="536"/>
	<anchor name="belowLC" x="356" y="-20"/>
</glyph>
<glyph name="r.sups" format="2">
	<unicode hex="02B3"/>
	<advance width="396"/>
	<outline>
		<contour>
			<point x="69" y="415" type="line"/>
			<point x="212" y="415" type="line"/>
			<point x="212" y="679" type="line"/>
			<point x="199" y="679" type="line"/>
			<point x="189" y="765" type="line"/>
			<point x="150" y="765" type="line"/>
			<point x="25" y="723" type="line"/>
			<point x="25" y="673" type="line"/>
			<point x="69" y="673" type="line"/>
		</contour>
		<contour>
			<point x="189" y="601" type="line"/>
			<point x="205" y="647"/>
			<point x="238" y="674"/>
			<point x="287" y="683" type="curve"/>
			<point x="246" y="683" type="line"/>
			<point x="249" y="680" type="line" smooth="yes"/>
			<point x="265" y="656"/>
			<point x="286" y="645"/>
			<point x="312" y="645" type="curve" smooth="yes"/>
			<point x="348" y="645"/>
			<point x="375" y="671"/>
			<point x="380" y="711" type="curve"/>
			<point x="373" y="751"/>
			<point x="348" y="772"/>
			<point x="311" y="772" type="curve" smooth="yes"/>
			<point x="266" y="772"/>
			<point x="240" y="751"/>
			<point x="224" y="685" type="curve"/>
			<point x="189" y="685" type="line"/>
		</contour>
		<contour>
			<point x="28" y="415" type="line"/>
			<point x="267" y="415" type="line"/>
			<point x="267" y="468" type="line"/>
			<point x="178" y="468" type="line"/>
			<point x="103" y="468" type="line"/>
			<point x="28" y="468" type="line"/>
		</contour>
	</outline>
</glyph>
<glyph name="w.sups" format="2">
	<unicode hex="02B7"/>
	<advance width="654"/>
	<outline>
		<contour>
			<point x="161" y="404" type="line"/>
			<point x="262" y="404" type="line"/>
			<point x="317" y="578" type="line"/>
			<point x="330" y="670" type="line"/>
			<point x="336" y="670" type="line"/>
			<point x="407" y="404" type="line"/>
			<point x="499" y="404" type="line"/>
			<point x="626" y="754" type="line"/>
			<point x="556" y="754" type="line"/>
			<point x="521" y="613" type="line"/>
			<point x="501" y="487" type="line"/>
			<point x="492" y="487" type="line"/>
			<point x="414" y="754" type="line"/>
			<point x="320" y="754" type="line"/>
			<point x="270" y="596" type="line"/>
			<point x="256" y="487" type="line"/>
			<point x="248" y="487" type="line"/>
			<point x="179" y="754" type="line"/>
			<point x="39" y="754" type="line"/>
		</contour>
		<contour>
			<point x="22" y="704" type="line"/>
			<point x="94" y="693" type="line"/>
			<point x="164" y="693" type="line"/>
			<point x="234" y="704" type="line"/>
			<point x="234" y="754" type="line"/>
			<point x="22" y="754" type="line"/>
		</contour>
		<contour>
			<point x="265" y="704" type="line"/>
			<point x="345" y="695" type="line"/>
			<point x="408" y="695" type="line"/>
			<point x="469" y="704" type="line"/>
			<point x="469" y="754" type="line"/>
			<point x="265" y="754" type="line"/>
		</contour>
		<contour>
			<point x="500" y="704" type="line"/>
			<point x="561" y="693" type="line"/>
			<point x="581" y="693" type="line"/>
			<point x="639" y="704" type="line"/>
			<point x="639" y="754" type="line"/>
			<point x="500" y="754" type="line"/>
		</contour>
	</outline>
</glyph>
<glyph name="s.sups" format="2">
	<unicode hex="02E2"/>
	<advance width="384"/>
	<outline>
		<contour>
			<point x="172" y="393" type="curve" smooth="yes"/>
			<point x="281" y="393"/>
			<point x="351" y="441"/>
			<point x="351" y="519" type="curve" smooth="yes"/>
			<point x="351" y="588"/>
			<point x="301" y="618"/>
			<point x="237" y="637" type="curve" smooth="yes"/>
			<point x="218" y="642" type="line" smooth="yes"/>
			<point x="172" y="656"/>
			<point x="156" y="665"/>
			<point x="156" y="684" type="curve" smooth="yes"/>
			<point x="156" y="706"/>
			<point x="172" y="718"/>
			<point x="209" y="718" type="curve" smooth="yes"/>
			<point x="231" y="718"/>
			<point x="257" y="715"/>
			<point x="276" y="713" type="curve"/>
			<point x="276" y="750" type="line"/>
			<point x="248" y="750" type="line"/>
			<point x="255" y="667" type="line"/>
			<point x="321" y="667" type="line"/>
			<point x="329" y="740" type="line"/>
			<point x="292" y="754"/>
			<point x="248" y="765"/>
			<point x="203" y="765" type="curve" smooth="yes"/>
			<point x="97" y="765"/>
			<point x="33" y="717"/>
			<point x="33" y="641" type="curve" smooth="yes"/>
			<point x="33" y="572"/>
			<point x="86" y="545"/>
			<point x="145" y="526" type="curve" smooth="yes"/>
			<point x="163" y="520" type="line" smooth="yes"/>
			<point x="209" y="507"/>
			<point x="225" y="497"/>
			<point x="225" y="477" type="curve" smooth="yes"/>
			<point x="225" y="456"/>
			<point x="209" y="440"/>
			<point x="167" y="440" type="curve" smooth="yes"/>
			<point x="133" y="440"/>
			<point x="106" y="443"/>
			<point x="86" y="446" type="curve"/>
			<point x="86" y="420" type="line"/>
			<point x="116" y="423" type="line"/>
			<point x="106" y="496" type="line"/>
			<point x="40" y="496" type="line"/>
			<point x="36" y="418" type="line"/>
			<point x="64" y="407"/>
			<point x="117" y="393"/>
		</contour>
	</outline>
</glyph>
<glyph name="x.sups" format="2">
	<unicode hex="02E3"/>
	<advance width="462"/>
	<outline>
		<contour>
			<point x="22" y="415" type="line"/>
			<point x="172" y="415" type="line"/>
			<point x="172" y="468" type="line"/>
			<point x="122" y="468" type="line"/>
			<point x="92" y="468" type="line"/>
			<point x="22" y="468" type="line"/>
		</contour>
		<contour>
			<point x="28" y="715" type="line"/>
			<point x="97" y="704" type="line"/>
			<point x="186" y="704" type="line"/>
			<point x="248" y="715" type="line"/>
			<point x="248" y="765" type="line"/>
			<point x="28" y="765" type="line"/>
		</contour>
		<contour>
			<point x="292" y="415" type="line"/>
			<point x="440" y="415" type="line"/>
			<point x="270" y="622" type="line"/>
			<point x="175" y="765" type="line"/>
			<point x="28" y="765" type="line"/>
			<point x="184" y="578" type="line"/>
		</contour>
		<contour>
			<point x="217" y="415" type="line"/>
			<point x="440" y="415" type="line"/>
			<point x="440" y="468" type="line"/>
			<point x="368" y="468" type="line"/>
			<point x="273" y="468" type="line"/>
			<point x="217" y="468" type="line"/>
		</contour>
		<contour>
			<point x="284" y="715" type="line"/>
			<point x="340" y="704" type="line"/>
			<point x="359" y="704" type="line"/>
			<point x="429" y="715" type="line"/>
			<point x="429" y="765" type="line"/>
			<point x="284" y="765" type="line"/>
		</contour>
		<contour>
			<point x="22" y="421" type="line"/>
			<point x="103" y="421" type="line"/>
			<point x="186" y="555" type="line"/>
			<point x="229" y="555" type="line"/>
			<point x="192" y="625" type="line"/>
		</contour>
		<contour>
			<point x="273" y="578" type="line"/>
			<point x="429" y="753" type="line"/>
			<point x="354" y="753" type="line"/>
			<point x="274" y="635" type="line"/>
			<point x="239" y="635" type="line"/>
		</contour>
	</outline>
</glyph>
<glyph name="tildecmb" format="2">
	<unicode hex="0303"/>
	<outline>
		<contour>
			<point x="-200" y="587" type="curve"/>
			<point x="-120" y="573" type="line"/>
			<point x="-111" y="623"/>
			<point x="-94" y="639"/>
			<point x="-72" y="639" type="curve" smooth="yes"/>
			<point x="-49" y="639"/>
			<point x="-32" y="622"/>
			<point x="-8" y="607" type="curve" smooth="yes"/>
			<point x="28" y="585"/>
			<point x="48" y="573"/>
			<point x="87" y="573" type="curve" smooth="yes"/>
			<point x="148" y="573"/>
			<point x="195" y="607"/>
			<point x="200" y="737" type="curve"/>
			<point x="120" y="750" type="line"/>
			<point x="112" y="701"/>
			<point x="94" y="685"/>
			<point x="72" y="685" type="curve" smooth="yes"/>
			<point x="49" y="685"/>
			<point x="31" y="701"/>
			<point x="8" y="717" type="curve" smooth="yes"/>
			<point x="-23" y="738"/>
			<point x="-45" y="751"/>
			<point x="-82" y="751" type="curve" smooth="yes"/>
			<point x="-151" y="751"/>
			<point x="-197" y="714"/>
		</contour>
	</outline>
	<anchor name="_aboveLC" x="0" y="536"/>
	<anchor name="aboveLC" x="0" y="751"/>
</glyph>
<glyph name="horncmb" format="2">
	<unicode hex="031B"/>
	<outline>
		<contour>
			<point x="0" y="516" type="line"/>
			<point x="98" y="519"/>
			<point x="153" y="594"/>
			<point x="153" y="691" type="curve" smooth="yes"/>
			<point x="153" y="720"/>
			<point x="145" y="742"/>
			<point x="135" y="762" type="curve"/>
			<point x="121" y="769"/>
			<point x="106" y="775"/>
			<point x="80" y="775" type="curve" smooth="yes"/>
			<point x="42" y="775"/>
			<point x="14" y="749"/>
			<point x="14" y="706" type="curve" smooth="yes"/>
			<point x="14" y="653"/>
			<point x="46" y="644"/>
			<point x="46" y="606" type="curve" smooth="yes"/>
			<point x="46" y="572"/>
			<point x="29" y="559"/>
			<point x="0" y="555" type="curve"/>
		</contour>
	</outline>
	<anchor name="_hornLC" x="0" y="516"/>
</glyph>
<glyph name="cedillacmb" format="2">
	<unicode hex="0327"/>
	<outline>
		<contour>
			<point x="-44" y="-92" type="line"/>
			<point x="-4" y="-96"/>
			<point x="12" y="-110"/>
			<point x="12" y="-132" type="curve" smooth="yes"/>
			<point x="12" y="-154"/>
			<point x="-4" y="-168"/>
			<point x="-36" y="-168" type="curve" smooth="yes"/>
			<point x="-58" y="-168"/>
			<point x="-72" y="-164"/>
			<point x="-84" y="-160" type="curve"/>
			<point x="-100" y="-220" type="line"/>
			<point x="-84" y="-226"/>
			<point x="-54" y="-232"/>
			<point x="-20" y="-232" type="curve" smooth="yes"/>
			<point x="76" y="-232"/>
			<point x="128" y="-194"/>
			<point x="128" y="-134" type="curve" smooth="yes"/>
			<point x="128" y="-74"/>
			<point x="84" y="-50"/>
			<point x="-13" y="-43" type="curve"/>
			<point x="24" y="-72" type="line"/>
			<point x="32" y="8" type="line"/>
			<point x="-28" y="8" type="line"/>
		</contour>
	</outline>
	<anchor name="_baseLC" x="0" y="0"/>
</glyph>
<glyph name="epsilon" format="2">
	<unicode hex="03B5"/>
	<advance width="544"/>
	<outline>
		<contour>
			<point x="256" y="-16" type="curve" smooth="yes"/>
			<point x="412" y="-16"/>
			<point x="468" y="40"/>
			<point x="520" y="100" type="curve"/>
			<point x="468" y="152" type="line"/>
			<point x="436" y="112"/>
			<point x="396" y="80"/>
			<point x="334" y="80" type="curve" smooth="yes"/>
			<point x="272" y="80"/>
			<point x="236" y="108"/>
			<point x="236" y="156" type="curve" smooth="yes"/>
			<point x="236" y="204"/>
			<point x="268" y="236"/>
			<point x="324" y="236" type="curve" smooth="yes"/>
			<point x="352" y="236"/>
			<point x="368" y="232"/>
			<point x="380" y="228" type="curve"/>
			<point x="380" y="312" type="line"/>
			<point x="364" y="308"/>
			<point x="348" y="304"/>
			<point x="316" y="304" type="curve" smooth="yes"/>
			<point x="260" y="304"/>
			<point x="228" y="336"/>
			<point x="228" y="388" type="curve" smooth="yes"/>
			<point x="228" y="440"/>
			<point x="260" y="476"/>
			<point x="332" y="476" type="curve" smooth="yes"/>
			<point x="372" y="476"/>
			<point x="404" y="468"/>
			<point x="428" y="460" type="curve"/>
			<point x="392" y="491" type="line"/>
			<point x="316" y="508" type="line"/>
			<point x="348" y="452" type="line" smooth="yes"/>
			<point x="380" y="396"/>
			<point x="404" y="380"/>
			<point x="444" y="380" type="curve" smooth="yes"/>
			<point x="484" y="380"/>
			<point x="508" y="408"/>
			<point x="512" y="456" type="curve"/>
			<point x="488" y="488"/>
			<point x="420" y="532"/>
			<point x="284" y="532" type="curve" smooth="yes"/>
			<point x="124" y="532"/>
			<point x="40" y="480"/>
			<point x="40" y="392" type="curve" smooth="yes"/>
			<point x="40" y="304"/>
			<point x="124" y="280"/>
			<point x="244" y="280" type="curve"/>
			<point x="244" y="256" type="line"/>
			<point x="100" y="256"/>
			<point x="24" y="220"/>
			<point x="24" y="132" type="curve" smooth="yes"/>
			<point x="24" y="44"/>
			<point x="108" y="-16"/>
		</contour>
	</outline>
	<anchor name="aboveLC" x="290" y="536"/>
	<anchor name="belowLC" x="276" y="-20"/>
</glyph>
<glyph name="kappa" format="2">
	<unicode hex="03BA"/>
	<advance width="664"/>
	<outline>
		<contour>
			<point x="104" y="-16" type="line"/>
			<point x="291" y="10" type="line"/>
			<point x="291" y="76"/>
			<point x="293" y="152"/>
			<point x="293" y="218" type="curve"/>
			<point x="289" y="218" type="line"/>
			<point x="296" y="276"/>
			<point x="302" y="342"/>
			<point x="302" y="400" type="curve" smooth="yes"/>
			<point x="302" y="488"/>
			<point x="240" y="532"/>
			<point x="148" y="532" type="curve" smooth="yes"/>
			<point x="76" y="532"/>
			<point x="28" y="500"/>
			<point x="4" y="472" type="curve"/>
			<point x="28" y="416" type="line"/>
			<point x="32" y="418"/>
			<point x="44" y="424"/>
			<point x="60" y="424" type="curve" smooth="yes"/>
			<point x="86" y="424"/>
			<point x="100" y="410"/>
			<point x="100" y="376" type="curve" smooth="yes"/>
			<point x="100" y="220" type="line"/>
			<point x="72" y="16" type="line"/>
		</contour>
		<contour>
			<point x="284" y="116" type="line"/>
			<point x="299" y="157"/>
			<point x="316" y="196"/>
			<point x="344" y="265" type="curve"/>
			<point x="361" y="265" type="line"/>
			<point x="404" y="332"/>
			<point x="428" y="360"/>
			<point x="476" y="400" type="curve"/>
			<point x="388" y="360" type="line"/>
			<point x="504" y="360" type="line" smooth="yes"/>
			<point x="592" y="360"/>
			<point x="632" y="400"/>
			<point x="632" y="456" type="curve" smooth="yes"/>
			<point x="632" y="496"/>
			<point x="608" y="520"/>
			<point x="576" y="532" type="curve"/>
			<point x="524" y="528"/>
			<point x="476" y="504"/>
			<point x="428" y="452" type="curve" smooth="yes"/>
			<point x="402" y="424"/>
			<point x="368" y="383"/>
			<point x="346" y="340" type="curve"/>
			<point x="304" y="234" type="line"/>
			<point x="250" y="234" type="line"/>
		</contour>
		<contour>
			<point x="524" y="-16" type="curve" smooth="yes"/>
			<point x="592" y="-16"/>
			<point x="624" y="44"/>
			<point x="648" y="100" type="curve"/>
			<point x="624" y="148" type="line"/>
			<point x="612" y="144"/>
			<point x="600" y="140"/>
			<point x="580" y="140" type="curve" smooth="yes"/>
			<point x="532" y="140"/>
			<point x="484" y="168"/>
			<point x="380" y="328" type="curve"/>
			<point x="348" y="304" type="line"/>
			<point x="404" y="24"/>
			<point x="452" y="-16"/>
		</contour>
	</outline>
</glyph>
<glyph name="psi" format="2">
	<unicode hex="03C8"/>
	<advance width="804"/>
	<outline>
		<contour>
			<point x="380" y="-196" type="line"/>
			<point x="560" y="-170" type="line"/>
			<point x="528" y="36" type="line"/>
			<point x="504" y="652" type="line"/>
			<point x="404" y="652" type="line"/>
			<point x="380" y="36" type="line"/>
			<point x="348" y="-164" type="line"/>
		</contour>
		<contour>
			<point x="436" y="0" type="curve"/>
			<point x="436" y="68" type="line"/>
			<point x="316" y="68"/>
			<point x="268" y="116"/>
			<point x="268" y="208" type="curve" smooth="yes"/>
			<point x="268" y="264"/>
			<point x="284" y="340"/>
			<point x="284" y="404" type="curve" smooth="yes"/>
			<point x="284" y="484"/>
			<point x="228" y="532"/>
			<point x="140" y="532" type="curve" smooth="yes"/>
			<point x="72" y="532"/>
			<point x="24" y="500"/>
			<point x="0" y="472" type="curve"/>
			<point x="24" y="416" type="line"/>
			<point x="32" y="420"/>
			<point x="40" y="424"/>
			<point x="54" y="424" type="curve" smooth="yes"/>
			<point x="80" y="424"/>
			<point x="96" y="408"/>
			<point x="96" y="368" type="curve" smooth="yes"/>
			<point x="96" y="324"/>
			<point x="88" y="256"/>
			<point x="88" y="208" type="curve" smooth="yes"/>
			<point x="88" y="60"/>
			<point x="196" y="0"/>
		</contour>
		<contour>
			<point x="464" y="0" type="line"/>
			<point x="672" y="0"/>
			<point x="772" y="96"/>
			<point x="772" y="412" type="curve" smooth="yes"/>
			<point x="772" y="452"/>
			<point x="769" y="487"/>
			<point x="761" y="510" type="curve"/>
			<point x="746" y="523"/>
			<point x="722" y="532"/>
			<point x="694" y="532" type="curve" smooth="yes"/>
			<point x="637" y="532"/>
			<point x="596" y="491"/>
			<point x="596" y="420" type="curve" smooth="yes"/>
			<point x="596" y="356"/>
			<point x="624" y="312"/>
			<point x="688" y="208" type="curve"/>
			<point x="688" y="360" type="line"/>
			<point x="664" y="360" type="line"/>
			<point x="668" y="328"/>
			<point x="672" y="296"/>
			<point x="672" y="264" type="curve" smooth="yes"/>
			<point x="672" y="124"/>
			<point x="616" y="68"/>
			<point x="464" y="68" type="curve"/>
		</contour>
	</outline>
</glyph>
<glyph name="digamma" format="2">
	<unicode hex="03DD"/>
	<advance width="512"/>
	<outline>
		<contour>
			<point x="32" y="-164" type="line"/>
			<point x="64" y="-196" type="line"/>
			<point x="268" y="-170" type="line"/>
			<point x="236" y="116" type="line"/>
			<point x="241" y="239"/>
			<point x="247" y="361"/>
			<point x="252" y="484" type="curve"/>
			<point x="228" y="452" type="line"/>
			<point x="480" y="420" type="line"/>
			<point x="480" y="532" type="line"/>
			<point x="40" y="516" type="line"/>
			<point x="64" y="156" type="line"/>
		</contour>
		<contour>
			<point x="172" y="160" type="line"/>
			<point x="456" y="140" type="line"/>
			<point x="456" y="252" type="line"/>
			<point x="172" y="232" type="line"/>
		</contour>
	</outline>
	<anchor name="aboveLC" x="276" y="536"/>
</glyph>
<glyph name="Nje" format="2">
	<unicode hex="040A"/>
	<advance width="1104"/>
	<outline>
		<contour>
			<point x="28" y="0" type="line"/>
			<point x="380" y="0" type="line"/>
			<point x="380" y="80" type="line"/>
			<point x="272" y="80" type="line"/>
			<point x="152" y="80" type="line"/>
			<point x="28" y="80" type="line"/>
		</contour>
		<contour>
			<point x="104" y="0" type="curve"/>
			<point x="320" y="0" type="line"/>
			<point x="320" y="95"/>
			<point x="320" y="189"/>
			<point x="320" y="284" type="curve" smooth="yes"/>
			<point x="320" y="368" type="line" smooth="yes"/>
			<point x="320" y="463"/>
			<point x="320" y="557"/>
			<point x="320" y="652" type="curve"/>
			<point x="104" y="652" type="line"/>
			<point x="104" y="557"/>
			<point x="104" y="463"/>
			<point x="104" y="368" type="curve" smooth="yes"/>
			<point x="104" y="284" type="line" smooth="yes"/>
			<point x="104" y="189"/>
			<point x="104" y="95"/>
		</contour>
		<contour>
			<point x="152" y="572" type="line"/>
			<point x="272" y="572" type="line"/>
			<point x="380" y="572" type="line"/>
			<point x="380" y="652" type="line"/>
			<point x="28" y="652" type="line"/>
			<point x="28" y="572" type="line"/>
		</contour>
		<contour>
			<point x="224" y="304" type="line"/>
			<point x="536" y="304" type="line"/>
			<point x="536" y="384" type="line"/>
			<point x="224" y="384" type="line"/>
		</contour>
		<contour>
			<point x="428" y="0" type="line"/>
			<point x="552" y="0" type="line"/>
			<point x="552" y="80" type="line"/>
			<point x="536" y="80" type="line"/>
			<point x="428" y="80" type="line"/>
		</contour>
		<contour>
			<point x="488" y="0" type="curve"/>
			<point x="704" y="0" type="line"/>
			<point x="704" y="95"/>
			<point x="704" y="189"/>
			<point x="704" y="284" type="curve" smooth="yes"/>
			<point x="704" y="368" type="line" smooth="yes"/>
			<point x="704" y="463"/>
			<point x="704" y="557"/>
			<point x="704" y="652" type="curve"/>
			<point x="488" y="652" type="line"/>
			<point x="488" y="557"/>
			<point x="488" y="463"/>
			<point x="488" y="368" type="curve" smooth="yes"/>
			<point x="488" y="284" type="line" smooth="yes"/>
			<point x="488" y="189"/>
			<point x="488" y="95"/>
		</contour>
		<contour>
			<point x="544" y="572" type="line"/>
			<point x="664" y="572" type="line"/>
			<point x="796" y="572" type="line"/>
			<point x="796" y="652" type="line"/>
			<point x="428" y="652" type="line"/>
			<point x="428" y="572" type="line"/>
		</contour>
		<contour>
			<point x="640" y="0" type="line"/>
			<point x="736" y="0" type="line" smooth="yes"/>
			<point x="964" y="0"/>
			<point x="1064" y="80"/>
			<point x="1064" y="204" type="curve" smooth="yes"/>
			<point x="1064" y="328"/>
			<point x="964" y="396"/>
			<point x="760" y="396" type="curve" smooth="yes"/>
			<point x="712" y="396"/>
			<point x="664" y="388"/>
			<point x="640" y="380" type="curve"/>
			<point x="640" y="304" type="line"/>
			<point x="664" y="312"/>
			<point x="688" y="320"/>
			<point x="728" y="320" type="curve" smooth="yes"/>
			<point x="812" y="320"/>
			<point x="844" y="280"/>
			<point x="844" y="200" type="curve" smooth="yes"/>
			<point x="844" y="120"/>
			<point x="812" y="72"/>
			<point x="720" y="72" type="curve" smooth="yes"/>
			<point x="640" y="72" type="line"/>
		</contour>
	</outline>
</glyph>
<glyph name="Icyr" format="2">
	<unicode hex="0418"/>
	<advance width="832"/>
	<outline>
		<contour>
			<point x="104" y="0" type="curve"/>
			<point x="312" y="0" type="line"/>
			<point x="312" y="368" type="line" smooth="yes"/>
			<point x="312" y="463"/>
			<point x="312" y="557"/>
			<point x="312" y="652" type="curve"/>
			<point x="104" y="652" type="line"/>
			<point x="104" y="557"/>
			<point x="104" y="463"/>
			<point x="104" y="368" type="curve" smooth="yes"/>
			<point x="104" y="284" type="line" smooth="yes"/>
			<point x="104" y="189"/>
			<point x="104" y="95"/>
		</contour>
		<contour>
			<point x="520" y="0" type="curve"/>
			<point x="728" y="0" type="line"/>
			<point x="728" y="95"/>
			<point x="728" y="189"/>
			<point x="728" y="284" type="curve" smooth="yes"/>
			<point x="728" y="368" type="line" smooth="yes"/>
			<point x="728" y="463"/>
			<point x="728" y="557"/>
			<point x="728" y="652" type="curve"/>
			<point x="520" y="652" type="line"/>
			<point x="520" y="284" type="line" smooth="yes"/>
			<point x="520" y="189"/>
			<point x="520" y="95"/>
		</contour>
		<contour>
			<point x="28" y="0" type="line"/>
			<point x="388" y="0" type="line"/>
			<point x="388" y="80" type="line"/>
			<point x="272" y="80" type="line"/>
			<point x="152" y="80" type="line"/>
			<point x="28" y="80" type="line"/>
		</contour>
		<contour>
			<point x="28" y="572" type="line"/>
			<point x="152" y="572" type="line"/>
			<point x="272" y="572" type="line"/>
			<point x="388" y="572" type="line"/>
			<point x="388" y="652" type="line"/>
			<point x="28" y="652" type="line"/>
		</contour>
		<contour>
			<point x="444" y="0" type="line"/>
			<point x="804" y="0" type="line"/>
			<point x="804" y="80" type="line"/>
			<point x="680" y="80" type="line"/>
			<point x="560" y="80" type="line"/>
			<point x="444" y="80" type="line"/>
		</contour>
		<contour>
			<point x="444" y="572" type="line"/>
			<point x="560" y="572" type="line"/>
			<point x="680" y="572" type="line"/>
			<point x="804" y="572" type="line"/>
			<point x="804" y="652" type="line"/>
			<point x="444" y="652" type="line"/>
		</contour>
		<contour>
			<point x="280" y="78" type="line"/>
			<point x="392" y="235" type="line"/>
			<point x="504" y="422" type="line"/>
			<point x="552" y="422" type="line"/>
			<point x="552" y="574" type="line"/>
			<point x="440" y="417" type="line"/>
			<point x="328" y="230" type="line"/>
			<point x="280" y="230" type="line"/>
		</contour>
	</outline>
	<anchor name="aboveUC" x="416" y="672"/>
</glyph>
<glyph name="Che" format="2">
	<unicode hex="0427"/>
	<advance width="786"/>
	<outline>
		<contour>
			<point x="136" y="572" type="line"/>
			<point x="248" y="572" type="line"/>
			<point x="351" y="572" type="line"/>
			<point x="351" y="652" type="line"/>
			<point x="20" y="652" type="line"/>
			<point x="20" y="572" type="line"/>
		</contour>
		<contour>
			<point x="306" y="248" type="curve" smooth="yes"/>
			<point x="405" y="248"/>
			<point x="477" y="263"/>
			<point x="522" y="276" type="curve"/>
			<point x="522" y="348" type="line"/>
			<point x="482" y="328"/>
			<point x="440" y="324"/>
			<point x="388" y="324" type="curve" smooth="yes"/>
			<point x="320" y="324"/>
			<point x="296" y="356"/>
			<point x="296" y="420" type="curve" smooth="yes"/>
			<point x="296" y="497"/>
			<point x="296" y="575"/>
			<point x="296" y="652" type="curve"/>
			<point x="84" y="652" type="line"/>
			<point x="84" y="572"/>
			<point x="84" y="492"/>
			<point x="84" y="412" type="curve" smooth="yes"/>
			<point x="84" y="296"/>
			<point x="155" y="248"/>
		</contour>
		<contour>
			<point x="374" y="0" type="line"/>
			<point x="758" y="0" type="line"/>
			<point x="758" y="80" type="line"/>
			<point x="634" y="80" type="line"/>
			<point x="514" y="80" type="line"/>
			<point x="374" y="80" type="line"/>
		</contour>
		<contour>
			<point x="466" y="0" type="curve"/>
			<point x="682" y="0" type="line"/>
			<point x="682" y="95"/>
			<point x="682" y="189"/>
			<point x="682" y="284" type="curve" smooth="yes"/>
			<point x="682" y="368" type="line" smooth="yes"/>
			<point x="682" y="463"/>
			<point x="682" y="557"/>
			<point x="682" y="652" type="curve"/>
			<point x="466" y="652" type="line"/>
			<point x="466" y="557"/>
			<point x="466" y="463"/>
			<point x="466" y="368" type="curve" smooth="yes"/>
			<point x="466" y="284" type="line" smooth="yes"/>
			<point x="466" y="189"/>
			<point x="466" y="95"/>
		</contour>
		<contour>
			<point x="514" y="572" type="line"/>
			<point x="634" y="572" type="line"/>
			<point x="758" y="572" type="line"/>
			<point x="758" y="652" type="line"/>
			<point x="405" y="652" type="line"/>
			<point x="405" y="572" type="line"/>
		</contour>
	</outline>
	<anchor name="aboveUC" x="380" y="672"/>
</glyph>
<glyph name="Shcha" format="2">
	<unicode hex="0429"/>
	<advance width="1194"/>
	<outline>
		<contour>
			<point x="104" y="0" type="curve"/>
			<point x="320" y="0" type="line"/>
			<point x="320" y="95"/>
			<point x="320" y="189"/>
			<point x="320" y="284" type="curve" smooth="yes"/>
			<point x="320" y="368" type="line" smooth="yes"/>
			<point x="320" y="463"/>
			<point x="320" y="557"/>
			<point x="320" y="652" type="curve"/>
			<point x="104" y="652" type="line"/>
			<point x="104" y="557"/>
			<point x="104" y="463"/>
			<point x="104" y="368" type="curve" smooth="yes"/>
			<point x="104" y="284" type="line" smooth="yes"/>
			<point x="104" y="189"/>
			<point x="104" y="95"/>
		</contour>
		<contour>
			<point x="480" y="0" type="curve"/>
			<point x="696" y="0" type="line"/>
			<point x="696" y="95"/>
			<point x="696" y="189"/>
			<point x="696" y="284" type="curve" smooth="yes"/>
			<point x="696" y="368" type="line" smooth="yes"/>
			<point x="696" y="463"/>
			<point x="696" y="557"/>
			<point x="696" y="652" type="curve"/>
			<point x="480" y="652" type="line"/>
			<point x="480" y="557"/>
			<point x="480" y="463"/>
			<point x="480" y="368" type="curve" smooth="yes"/>
			<point x="480" y="284" type="line" smooth="yes"/>
			<point x="480" y="189"/>
			<point x="480" y="95"/>
		</contour>
		<contour>
			<point x="856" y="0" type="curve"/>
			<point x="1072" y="0" type="line"/>
			<point x="1072" y="95"/>
			<point x="1072" y="189"/>
			<point x="1072" y="284" type="curve" smooth="yes"/>
			<point x="1072" y="368" type="line" smooth="yes"/>
			<point x="1072" y="463"/>
			<point x="1072" y="557"/>
			<point x="1072" y="652" type="curve"/>
			<point x="856" y="652" type="line"/>
			<point x="856" y="557"/>
			<point x="856" y="463"/>
			<point x="856" y="368" type="curve" smooth="yes"/>
			<point x="856" y="284" type="line" smooth="yes"/>
			<point x="856" y="189"/>
			<point x="856" y="95"/>
		</contour>
		<contour>
			<point x="272" y="0" type="line"/>
			<point x="1102" y="0" type="line"/>
			<point x="1050" y="48" type="line"/>
			<point x="1090" y="-184" type="line"/>
			<point x="1174" y="-184" type="line"/>
			<point x="1178" y="80" type="line"/>
			<point x="272" y="80" type="line"/>
		</contour>
		<contour>
			<point x="28" y="572" type="line"/>
			<point x="152" y="572" type="line"/>
			<point x="272" y="572" type="line"/>
			<point x="372" y="572" type="line"/>
			<point x="372" y="652" type="line"/>
			<point x="28" y="652" type="line"/>
		</contour>
		<contour>
			<point x="428" y="572" type="line"/>
			<point x="528" y="572" type="line"/>
			<point x="648" y="572" type="line"/>
			<point x="748" y="572" type="line"/>
			<point x="748" y="652" type="line"/>
			<point x="428" y="652" type="line"/>
		</contour>
		<contour>
			<point x="804" y="572" type="line"/>
			<point x="904" y="572" type="line"/>
			<point x="1024" y="572" type="line"/>
			<point x="1148" y="572" type="line"/>
			<point x="1148" y="652" type="line"/>
			<point x="804" y="652" type="line"/>
		</contour>
		<contour>
			<point x="28" y="0" type="line"/>
			<point x="168" y="0" type="line"/>
			<point x="168" y="80" type="line"/>
			<point x="152" y="80" type="line"/>
			<point x="28" y="80" type="line"/>
		</contour>
	</outline>
</glyph>
<glyph name="Yu" format="2">
	<unicode hex="042E"/>
	<advance width="1084"/>
	<outline>
		<contour>
			<point x="104" y="0" type="curve"/>
			<point x="320" y="0" type="line"/>
			<point x="320" y="95"/>
			<point x="320" y="189"/>
			<point x="320" y="305" type="curve" smooth="yes"/>
			<point x="320" y="350" type="line" smooth="yes"/>
			<point x="320" y="463"/>
			<point x="320" y="557"/>
			<point x="320" y="652" type="curve"/>
			<point x="104" y="652" type="line"/>
			<point x="104" y="557"/>
			<point x="104" y="463"/>
			<point x="104" y="368" type="curve" smooth="yes"/>
			<point x="104" y="284" type="line" smooth="yes"/>
			<point x="104" y="189"/>
			<point x="104" y="95"/>
		</contour>
		<contour>
			<point x="28" y="0" type="line"/>
			<point x="380" y="0" type="line"/>
			<point x="380" y="80" type="line"/>
			<point x="272" y="80" type="line"/>
			<point x="152" y="80" type="line"/>
			<point x="28" y="80" type="line"/>
		</contour>
		<contour>
			<point x="28" y="572" type="line"/>
			<point x="152" y="572" type="line"/>
			<point x="272" y="572" type="line"/>
			<point x="380" y="572" type="line"/>
			<point x="380" y="652" type="line"/>
			<point x="28" y="652" type="line"/>
		</contour>
		<contour>
			<point x="224" y="288" type="line"/>
			<point x="424" y="288" type="line"/>
			<point x="424" y="368" type="line"/>
			<point x="224" y="368" type="line"/>
		</contour>
		<contour>
			<point x="716" y="-16" type="curve" smooth="yes"/>
			<point x="880" y="-16"/>
			<point x="1040" y="92"/>
			<point x="1040" y="328" type="curve" smooth="yes"/>
			<point x="1040" y="564"/>
			<point x="880" y="668"/>
			<point x="716" y="668" type="curve" smooth="yes"/>
			<point x="552" y="668"/>
			<point x="392" y="560"/>
			<point x="392" y="324" type="curve" smooth="yes"/>
			<point x="392" y="88"/>
			<point x="552" y="-16"/>
		</contour>
		<contour>
			<point x="716" y="64" type="curve" smooth="yes"/>
			<point x="648" y="64"/>
			<point x="616" y="168"/>
			<point x="616" y="328" type="curve" smooth="yes"/>
			<point x="616" y="488"/>
			<point x="648" y="588"/>
			<point x="716" y="588" type="curve" smooth="yes"/>
			<point x="784" y="588"/>
			<point x="816" y="484"/>
			<point x="816" y="324" type="curve" smooth="yes"/>
			<point x="816" y="164"/>
			<point x="784" y="64"/>
		</contour>
	</outline>
	<anchor name="aboveUC" x="464" y="672"/>
</glyph>
<glyph name="ze" format="2">
	<unicode hex="0437"/>
	<advance width="548"/>
	<outline>
		<contour>
			<point x="260" y="-16" type="curve" smooth="yes"/>
			<point x="432" y="-16"/>
			<point x="520" y="52"/>
			<point x="520" y="144" type="curve" smooth="yes"/>
			<point x="520" y="232"/>
			<point x="444" y="268"/>
			<point x="300" y="268" type="curve"/>
			<point x="300" y="292" type="line"/>
			<point x="436" y="300"/>
			<point x="496" y="332"/>
			<point x="496" y="412" type="curve" smooth="yes"/>
			<point x="496" y="484"/>
			<point x="412" y="532"/>
			<point x="244" y="532" type="curve" smooth="yes"/>
			<point x="155" y="532"/>
			<point x="90" y="511"/>
			<point x="56" y="494" type="curve"/>
			<point x="56" y="352" type="line"/>
			<point x="136" y="352" type="line"/>
			<point x="192" y="500" type="line"/>
			<point x="124" y="444" type="line"/>
			<point x="140" y="452"/>
			<point x="164" y="460"/>
			<point x="204" y="460" type="curve" smooth="yes"/>
			<point x="272" y="460"/>
			<point x="300" y="428"/>
			<point x="300" y="382" type="curve" smooth="yes"/>
			<point x="300" y="336"/>
			<point x="272" y="304"/>
			<point x="204" y="304" type="curve" smooth="yes"/>
			<point x="180" y="304" type="line"/>
			<point x="180" y="236" type="line"/>
			<point x="220" y="236" type="line" smooth="yes"/>
			<point x="284" y="236"/>
			<point x="316" y="204"/>
			<point x="316" y="146" type="curve" smooth="yes"/>
			<point x="316" y="88"/>
			<point x="284" y="52"/>
			<point x="212" y="52" type="curve" smooth="yes"/>
			<point x="164" y="52"/>
			<point x="136" y="60"/>
			<point x="112" y="68" type="curve"/>
			<point x="212" y="20" type="line"/>
			<point x="192" y="100" type="line" smooth="yes"/>
			<point x="180" y="148"/>
			<point x="156" y="180"/>
			<point x="104" y="180" type="curve" smooth="yes"/>
			<point x="48" y="180"/>
			<point x="28" y="132"/>
			<point x="24" y="96" type="curve"/>
			<point x="40" y="52"/>
			<point x="108" y="-16"/>
		</contour>
	</outline>
	<anchor name="aboveLC" x="264" y="536"/>
</glyph>
<glyph name="che" format="2">
	<unicode hex="0447"/>
	<advance width="719"/>
	<outline>
		<contour>
			<point x="259" y="188" type="curve" smooth="yes"/>
			<point x="335" y="188"/>
			<point x="420" y="198"/>
			<point x="463" y="214" type="curve"/>
			<point x="463" y="276" type="line"/>
			<point x="439" y="268"/>
			<point x="407" y="260"/>
			<point x="355" y="260" type="curve" smooth="yes"/>
			<point x="299" y="260"/>
			<point x="275" y="276"/>
			<point x="275" y="332" type="curve" smooth="yes"/>
			<point x="275" y="393"/>
			<point x="275" y="455"/>
			<point x="275" y="516" type="curve"/>
			<point x="76" y="516" type="line"/>
			<point x="76" y="458"/>
			<point x="76" y="400"/>
			<point x="76" y="342" type="curve" smooth="yes"/>
			<point x="76" y="227"/>
			<point x="119" y="188"/>
		</contour>
		<contour>
			<point x="431" y="0" type="curve"/>
			<point x="635" y="0" type="line"/>
			<point x="635" y="75"/>
			<point x="635" y="149"/>
			<point x="635" y="224" type="curve" smooth="yes"/>
			<point x="635" y="292" type="line" smooth="yes"/>
			<point x="635" y="367"/>
			<point x="635" y="441"/>
			<point x="635" y="516" type="curve"/>
			<point x="431" y="516" type="line"/>
			<point x="431" y="441"/>
			<point x="431" y="367"/>
			<point x="431" y="292" type="curve" smooth="yes"/>
			<point x="431" y="224" type="line" smooth="yes"/>
			<point x="431" y="149"/>
			<point x="431" y="75"/>
		</contour>
		<contour>
			<point x="20" y="440" type="line"/>
			<point x="124" y="440" type="line"/>
			<point x="227" y="440" type="line"/>
			<point x="327" y="440" type="line"/>
			<point x="327" y="516" type="line"/>
			<point x="20" y="516" type="line"/>
		</contour>
		<contour>
			<point x="355" y="0" type="line"/>
			<point x="695" y="0" type="line"/>
			<point x="695" y="76" type="line"/>
			<point x="587" y="76" type="line"/>
			<point x="479" y="76" type="line"/>
			<point x="355" y="76" type="line"/>
		</contour>
		<contour>
			<point x="379" y="440" type="line"/>
			<point x="479" y="440" type="line"/>
			<point x="587" y="440" type="line"/>
			<point x="695" y="440" type="line"/>
			<point x="695" y="516" type="line"/>
			<point x="379" y="516" type="line"/>
		</contour>
	</outline>
	<anchor name="aboveLC" x="351" y="536"/>
</glyph>
<glyph name="yu" format="2">
	<unicode hex="044E"/>
	<advance width="972"/>
	<outline>
		<contour>
			<point x="24" y="0" type="line"/>
			<point x="348" y="0" type="line"/>
			<point x="348" y="76" type="line"/>
			<point x="240" y="76" type="line"/>
			<point x="132" y="76" type="line"/>
			<point x="24" y="76" type="line"/>
		</contour>
		<contour>
			<point x="24" y="440" type="line"/>
			<point x="132" y="440" type="line"/>
			<point x="240" y="440" type="line"/>
			<point x="348" y="440" type="line"/>
			<point x="348" y="516" type="line"/>
			<point x="24" y="516" type="line"/>
		</contour>
		<contour>
			<point x="84" y="0" type="curve"/>
			<point x="288" y="0" type="line"/>
			<point x="288" y="75"/>
			<point x="288" y="149"/>
			<point x="288" y="237" type="curve" smooth="yes"/>
			<point x="288" y="292" type="line" smooth="yes"/>
			<point x="288" y="367"/>
			<point x="288" y="441"/>
			<point x="288" y="516" type="curve"/>
			<point x="84" y="516" type="line"/>
			<point x="84" y="441"/>
			<point x="84" y="367"/>
			<point x="84" y="292" type="curve" smooth="yes"/>
			<point x="84" y="224" type="line" smooth="yes"/>
			<point x="84" y="149"/>
			<point x="84" y="75"/>
		</contour>
		<contour>
			<point x="272" y="228" type="line"/>
			<point x="480" y="228" type="line"/>
			<point x="480" y="304" type="line"/>
			<point x="272" y="304" type="line"/>
		</contour>
		<contour>
			<point x="654" y="-16" type="curve" smooth="yes"/>
			<point x="804" y="-16"/>
			<point x="936" y="76"/>
			<point x="936" y="260" type="curve" smooth="yes"/>
			<point x="936" y="444"/>
			<point x="804" y="532"/>
			<point x="654" y="532" type="curve" smooth="yes"/>
			<point x="504" y="532"/>
			<point x="372" y="440"/>
			<point x="372" y="256" type="curve" smooth="yes"/>
			<point x="372" y="72"/>
			<point x="504" y="-16"/>
		</contour>
		<contour>
			<point x="654" y="60" type="curve" smooth="yes"/>
			<point x="609" y="60"/>
			<point x="582" y="112"/>
			<point x="582" y="260" type="curve" smooth="yes"/>
			<point x="582" y="408"/>
			<point x="609" y="456"/>
			<point x="654" y="456" type="curve" smooth="yes"/>
			<point x="699" y="456"/>
			<point x="726" y="404"/>
			<point x="726" y="256" type="curve" smooth="yes"/>
			<point x="726" y="104"/>
			<point x="699" y="60"/>
		</contour>
	</outline>
	<anchor name="aboveLC" x="426" y="536"/>
</glyph>
<glyph name="izhitsa" format="2">
	<unicode hex="0475"/>
	<advance width="678"/>
	<outline>
		<contour>
			<point x="20" y="444" type="line"/>
			<point x="116" y="428" type="line"/>
			<point x="260" y="428" type="line"/>
			<point x="352" y="444" type="line"/>
			<point x="352" y="516" type="line"/>
			<point x="20" y="516" type="line"/>
		</contour>
		<contour>
			<point x="235" y="0" type="line"/>
			<point x="391" y="0" type="line"/>
			<point x="482" y="308" type="line" smooth="yes"/>
			<point x="491" y="339"/>
			<point x="500" y="369"/>
			<point x="510" y="400" type="curve"/>
			<point x="548" y="400" type="line"/>
			<point x="513" y="438" type="line"/>
			<point x="525" y="380"/>
			<point x="547" y="361"/>
			<point x="587" y="361" type="curve" smooth="yes"/>
			<point x="640" y="361"/>
			<point x="668" y="398"/>
			<point x="668" y="442" type="curve" smooth="yes"/>
			<point x="668" y="489"/>
			<point x="631" y="529"/>
			<point x="584" y="532" type="curve"/>
			<point x="536" y="531"/>
			<point x="503" y="519"/>
			<point x="473" y="476" type="curve" smooth="yes"/>
			<point x="446" y="437"/>
			<point x="432" y="387"/>
			<point x="413" y="306" type="curve" smooth="yes"/>
			<point x="408" y="285" type="line"/>
			<point x="392" y="136" type="line"/>
			<point x="376" y="136" type="line"/>
			<point x="268" y="516" type="line"/>
			<point x="48" y="516" type="line"/>
		</contour>
	</outline>
	<anchor name="aboveLC" x="377" y="536"/>
</glyph>
<glyph name="Gheup" format="2">
	<unicode hex="0490"/>
	<advance width="604"/>
	<outline>
		<contour>
			<point x="104" y="0" type="curve"/>
			<point x="320" y="0" type="line"/>
			<point x="320" y="95"/>
			<point x="320" y="189"/>
			<point x="320" y="284" type="curve" smooth="yes"/>
			<point x="320" y="368" type="line" smooth="yes"/>
			<point x="320" y="463"/>
			<point x="320" y="557"/>
			<point x="320" y="652" type="curve"/>
			<point x="104" y="652" type="line"/>
			<point x="104" y="557"/>
			<point x="104" y="463"/>
			<point x="104" y="368" type="curve" smooth="yes"/>
			<point x="104" y="284" type="line" smooth="yes"/>
			<point x="104" y="189"/>
			<point x="104" y="95"/>
		</contour>
		<contour>
			<point x="304" y="576" type="line"/>
			<point x="564" y="576" type="line"/>
			<point x="572" y="772" type="line"/>
			<point x="488" y="772" type="line"/>
			<point x="428" y="604" type="line"/>
			<point x="488" y="652" type="line"/>
			<point x="304" y="652" type="line"/>
		</contour>
		<contour>
			<point x="28" y="0" type="line"/>
			<point x="412" y="0" type="line"/>
			<point x="412" y="80" type="line"/>
			<point x="272" y="80" type="line"/>
			<point x="152" y="80" type="line"/>
			<point x="28" y="80" type="line"/>
		</contour>
		<contour>
			<point x="28" y="572" type="line"/>
			<point x="152" y="572" type="line"/>
			<point x="168" y="572" type="line"/>
			<point x="168" y="652" type="line"/>
			<point x="28" y="652" type="line"/>
		</contour>
	</outline>
</glyph>
<glyph name="kabashkir" format="2">
	<unicode hex="04A1"/>
	<advance width="848"/>
	<outline>
		<contour>
			<point x="712" y="-16" type="curve" smooth="yes"/>
			<point x="756" y="-16"/>
			<point x="804" y="-4"/>
			<point x="824" y="0" type="curve"/>
			<point x="824" y="72" type="line"/>
			<point x="644" y="80" type="line"/>
			<point x="784" y="12" type="line"/>
			<point x="752" y="156" type="line" smooth="yes"/>
			<point x="734" y="236"/>
			<point x="672" y="260"/>
			<point x="516" y="260" type="curve"/>
			<point x="516" y="276" type="line"/>
			<point x="588" y="284"/>
			<point x="620" y="307"/>
			<point x="644" y="355" type="curve" smooth="yes"/>
			<point x="668" y="403"/>
			<point x="684" y="427"/>
			<point x="708" y="451" type="curve"/>
			<point x="620" y="411" type="line"/>
			<point x="644" y="379"/>
			<point x="676" y="355"/>
			<point x="722" y="355" type="curve" smooth="yes"/>
			<point x="776" y="355"/>
			<point x="812" y="391"/>
			<point x="812" y="443" type="curve" smooth="yes"/>
			<point x="812" y="495"/>
			<point x="772" y="519"/>
			<point x="735" y="532" type="curve"/>
			<point x="660" y="523"/>
			<point x="612" y="491"/>
			<point x="580" y="395" type="curve" smooth="yes"/>
			<point x="556" y="323"/>
			<point x="532" y="300"/>
			<point x="484" y="300" type="curve" smooth="yes"/>
			<point x="432" y="300" type="line"/>
			<point x="432" y="232" type="line"/>
			<point x="484" y="232" type="line" smooth="yes"/>
			<point x="524" y="232"/>
			<point x="538" y="216"/>
			<point x="544" y="180" type="curve" smooth="yes"/>
			<point x="560" y="84" type="line" smooth="yes"/>
			<point x="572" y="12"/>
			<point x="624" y="-16"/>
		</contour>
		<contour>
			<point x="244" y="0" type="curve"/>
			<point x="448" y="0" type="line"/>
			<point x="448" y="75"/>
			<point x="448" y="149"/>
			<point x="448" y="224" type="curve" smooth="yes"/>
			<point x="448" y="292" type="line" smooth="yes"/>
			<point x="448" y="367"/>
			<point x="448" y="441"/>
			<point x="448" y="516" type="curve"/>
			<point x="244" y="516" type="line"/>
			<point x="244" y="441"/>
			<point x="244" y="367"/>
			<point x="244" y="292" type="curve" smooth="yes"/>
			<point x="244" y="224" type="line" smooth="yes"/>
			<point x="244" y="149"/>
			<point x="244" y="75"/>
		</contour>
		<contour>
			<point x="32" y="320" type="line"/>
			<point x="112" y="320" type="line"/>
			<point x="160" y="500" type="line"/>
			<point x="96" y="440" type="line"/>
			<point x="260" y="440" type="line"/>
			<point x="260" y="516" type="line"/>
			<point x="32" y="516" type="line"/>
		</contour>
		<contour>
			<point x="184" y="0" type="line"/>
			<point x="504" y="0" type="line"/>
			<point x="504" y="76" type="line"/>
			<point x="400" y="76" type="line"/>
			<point x="292" y="76" type="line"/>
			<point x="184" y="76" type="line"/>
		</contour>
		<contour>
			<point x="384" y="440" type="line"/>
			<point x="400" y="440" type="line"/>
			<point x="508" y="440" type="line"/>
			<point x="508" y="516" type="line"/>
			<point x="384" y="516" type="line"/>
		</contour>
	</outline>
</glyph>
<glyph name="palochka" format="2">
	<unicode hex="04CF"/>
	<advance width="424"/>
	<outline>
		<contour>
			<point x="28" y="0" type="line"/>
			<point x="396" y="0" type="line"/>
			<point x="396" y="80" type="line"/>
			<point x="272" y="80" type="line"/>
			<point x="152" y="80" type="line"/>
			<point x="28" y="80" type="line"/>
		</contour>
		<contour>
			<point x="104" y="0" type="curve"/>
			<point x="320" y="0" type="line"/>
			<point x="320" y="95"/>
			<point x="320" y="189"/>
			<point x="320" y="284" type="curve" smooth="yes"/>
			<point x="320" y="436" type="line" smooth="yes"/>
			<point x="320" y="531"/>
			<point x="320" y="615"/>
			<point x="320" y="710" type="curve"/>
			<point x="104" y="710" type="line"/>
			<point x="104" y="615"/>
			<point x="104" y="531"/>
			<point x="104" y="436" type="curve" smooth="yes"/>
			<point x="104" y="284" type="line" smooth="yes"/>
			<point x="104" y="189"/>
			<point x="104" y="95"/>
		</contour>
		<contour>
			<point x="28" y="630" type="line"/>
			<point x="152" y="630" type="line"/>
			<point x="272" y="630" type="line"/>
			<point x="396" y="630" type="line"/>
			<point x="396" y="710" type="line"/>
			<point x="28" y="710" type="line"/>
		</contour>
	</outline>
</glyph>
<glyph name="e.sups" format="2">
	<unicode hex="1D49"/>
	<advance width="420"/>
	<outline>
		<contour>
			<point x="235" y="393" type="curve" smooth="yes"/>
			<point x="318" y="393"/>
			<point x="367" y="430"/>
			<point x="396" y="476" type="curve"/>
			<point x="359" y="504" type="line"/>
			<point x="338" y="481"/>
			<point x="315" y="472"/>
			<point x="277" y="472" type="curve" smooth="yes"/>
			<point x="218" y="472"/>
			<point x="175" y="510"/>
			<point x="175" y="599" type="curve" smooth="yes"/>
			<point x="175" y="693"/>
			<point x="189" y="719"/>
			<point x="228" y="719" type="curve" smooth="yes"/>
			<point x="255" y="719"/>
			<point x="270" y="689"/>
			<point x="270" y="657" type="curve" smooth="yes"/>
			<point x="270" y="635"/>
			<point x="269" y="627"/>
			<point x="268" y="605" type="curve" smooth="yes"/>
			<point x="153" y="605" type="line"/>
			<point x="153" y="566" type="line"/>
			<point x="388" y="566" type="line"/>
			<point x="391" y="583"/>
			<point x="393" y="593"/>
			<point x="393" y="615" type="curve" smooth="yes"/>
			<point x="393" y="708"/>
			<point x="327" y="765"/>
			<point x="229" y="765" type="curve" smooth="yes"/>
			<point x="117" y="765"/>
			<point x="33" y="696"/>
			<point x="33" y="578" type="curve" smooth="yes"/>
			<point x="33" y="460"/>
			<point x="114" y="393"/>
		</contour>
	</outline>
</glyph>
<glyph name="g.sups" format="2">
	<unicode hex="1D4D"/>
	<advance width="473"/>
	<outline>
		<contour>
			<point x="209" y="247" type="curve" smooth="yes"/>
			<point x="320" y="247"/>
			<point x="432" y="295"/>
			<point x="432" y="396" type="curve" smooth="yes"/>
			<point x="432" y="455"/>
			<point x="396" y="491"/>
			<point x="292" y="491" type="curve" smooth="yes"/>
			<point x="209" y="491" type="line" smooth="yes"/>
			<point x="175" y="491"/>
			<point x="161" y="503"/>
			<point x="161" y="522" type="curve" smooth="yes"/>
			<point x="161" y="541"/>
			<point x="166" y="547"/>
			<point x="170" y="557" type="curve"/>
			<point x="133" y="557" type="line"/>
			<point x="133" y="516" type="line"/>
			<point x="80" y="517"/>
			<point x="44" y="503"/>
			<point x="44" y="464" type="curve" smooth="yes"/>
			<point x="44" y="424"/>
			<point x="80" y="411"/>
			<point x="133" y="412" type="curve"/>
			<point x="133" y="368" type="line"/>
			<point x="143" y="368"/>
			<point x="151" y="368"/>
			<point x="161" y="368" type="curve" smooth="yes"/>
			<point x="281" y="368" type="line" smooth="yes"/>
			<point x="312" y="368"/>
			<point x="323" y="358"/>
			<point x="323" y="342" type="curve" smooth="yes"/>
			<point x="323" y="311"/>
			<point x="284" y="294"/>
			<point x="228" y="294" type="curve" smooth="yes"/>
			<point x="172" y="294"/>
			<point x="139" y="309"/>
			<point x="139" y="339" type="curve" smooth="yes"/>
			<point x="139" y="357"/>
			<point x="147" y="373"/>
			<point x="152" y="381" type="curve"/>
			<point x="147" y="382" type="line"/>
			<point x="78" y="384"/>
			<point x="25" y="371"/>
			<point x="25" y="328" type="curve" smooth="yes"/>
			<point x="25" y="279"/>
			<point x="97" y="247"/>
		</contour>
		<contour>
			<point x="206" y="539" type="curve" smooth="yes"/>
			<point x="312" y="539"/>
			<point x="373" y="579"/>
			<point x="373" y="653" type="curve" smooth="yes"/>
			<point x="373" y="668"/>
			<point x="370" y="680"/>
			<point x="368" y="684" type="curve"/>
			<point x="345" y="684" type="line"/>
			<point x="334" y="729"/>
			<point x="295" y="765"/>
			<point x="200" y="765" type="curve" smooth="yes"/>
			<point x="100" y="765"/>
			<point x="33" y="721"/>
			<point x="33" y="650" type="curve" smooth="yes"/>
			<point x="33" y="574"/>
			<point x="100" y="539"/>
		</contour>
		<contour>
			<point x="206" y="582" type="curve" smooth="yes"/>
			<point x="178" y="582"/>
			<point x="170" y="603"/>
			<point x="170" y="652" type="curve" smooth="yes"/>
			<point x="170" y="701"/>
			<point x="178" y="722"/>
			<point x="206" y="722" type="curve" smooth="yes"/>
			<point x="234" y="722"/>
			<point x="242" y="701"/>
			<point x="242" y="652" type="curve" smooth="yes"/>
			<point x="242" y="603"/>
			<point x="234" y="582"/>
		</contour>
		<contour>
			<point x="329" y="668" type="line"/>
			<point x="449" y="668" type="line"/>
			<point x="449" y="776" type="line"/>
			<point x="398" y="776" type="line"/>
			<point x="362" y="695" type="line"/>
			<point x="329" y="695" type="line"/>
		</contour>
	</outline>
</glyph>
<glyph name="v.sups" format="2">
	<unicode hex="1D5B"/>
	<advance width="459"/>
	<outline>
		<contour>
			<point x="182" y="404" type="line"/>
			<point x="277" y="404" type="line"/>
			<point x="421" y="754" type="line"/>
			<point x="348" y="754" type="line"/>
			<point x="303" y="622" type="line"/>
			<point x="275" y="494" type="line"/>
			<point x="269" y="494" type="line"/>
			<point x="195" y="754" type="line"/>
			<point x="41" y="754" type="line"/>
		</contour>
		<contour>
			<point x="22" y="704" type="line"/>
			<point x="89" y="693" type="line"/>
			<point x="189" y="693" type="line"/>
			<point x="253" y="704" type="line"/>
			<point x="253" y="754" type="line"/>
			<point x="22" y="754" type="line"/>
		</contour>
		<contour>
			<point x="287" y="704" type="line"/>
			<point x="354" y="693" type="line"/>
			<point x="370" y="693" type="line"/>
			<point x="437" y="704" type="line"/>
			<point x="437" y="754" type="line"/>
			<point x="287" y="754" type="line"/>
		</contour>
	</outline>
</glyph>
<glyph name="c.sups" format="2">
	<unicode hex="1D9C"/>
	<advance width="406"/>
	<outline>
		<contour>
			<point x="225" y="393" type="curve" smooth="yes"/>
			<point x="320" y="393"/>
			<point x="366" y="441"/>
			<point x="388" y="473" type="curve"/>
			<point x="350" y="503" type="line"/>
			<point x="331" y="486"/>
			<point x="309" y="471"/>
			<point x="273" y="471" type="curve" smooth="yes"/>
			<point x="217" y="471"/>
			<point x="179" y="511"/>
			<point x="179" y="591" type="curve" smooth="yes"/>
			<point x="179" y="677"/>
			<point x="212" y="721"/>
			<point x="265" y="721" type="curve" smooth="yes"/>
			<point x="292" y="721"/>
			<point x="309" y="716"/>
			<point x="326" y="711" type="curve"/>
			<point x="270" y="742" type="line"/>
			<point x="270" y="689" type="line" smooth="yes"/>
			<point x="270" y="650"/>
			<point x="295" y="624"/>
			<point x="331" y="624" type="curve" smooth="yes"/>
			<point x="365" y="624"/>
			<point x="385" y="647"/>
			<point x="387" y="685" type="curve"/>
			<point x="368" y="727"/>
			<point x="320" y="765"/>
			<point x="231" y="765" type="curve" smooth="yes"/>
			<point x="117" y="765"/>
			<point x="33" y="686"/>
			<point x="33" y="572" type="curve" smooth="yes"/>
			<point x="33" y="460"/>
			<point x="111" y="393"/>
		</contour>
	</outline>
</glyph>
<glyph name="f.sups" format="2">
	<unicode hex="1DA0"/>
	<advance width="300"/>
	<outline>
		<contour>
			<point x="72" y="404" type="line"/>
			<point x="214" y="404" type="line"/>
			<point x="214" y="726" type="line"/>
			<point x="214" y="808"/>
			<point x="214" y="865"/>
			<point x="219" y="872" type="curve" smooth="yes"/>
			<point x="221" y="875"/>
			<point x="223" y="878"/>
			<point x="225" y="881" type="curve"/>
			<point x="201" y="863" type="line"/>
			<point x="245" y="863" type="line"/>
			<point x="225" y="889" type="line"/>
			<point x="249" y="822" type="line" smooth="yes"/>
			<point x="261" y="790"/>
			<point x="276" y="777"/>
			<point x="306" y="777" type="curve" smooth="yes"/>
			<point x="342" y="777"/>
			<point x="358" y="799"/>
			<point x="360" y="835" type="curve"/>
			<point x="346" y="876"/>
			<point x="311" y="891"/>
			<point x="244" y="891" type="curve" smooth="yes"/>
			<point x="194" y="891"/>
			<point x="161" y="873"/>
			<point x="134" y="854" type="curve" smooth="yes"/>
			<point x="99" y="830"/>
			<point x="85" y="799"/>
			<point x="72" y="720" type="curve"/>
			<point x="108" y="745" type="line"/>
			<point x="30" y="734" type="line"/>
			<point x="30" y="683" type="line"/>
			<point x="72" y="683" type="line"/>
		</contour>
		<contour>
			<point x="30" y="404" type="line"/>
			<point x="267" y="404" type="line"/>
			<point x="267" y="457" type="line"/>
			<point x="192" y="457" type="line"/>
			<point x="94" y="457" type="line"/>
			<point x="30" y="457" type="line"/>
		</contour>
		<contour>
			<point x="159" y="683" type="line"/>
			<point x="278" y="683" type="line"/>
			<point x="278" y="742" type="line"/>
			<point x="159" y="742" type="line"/>
		</contour>
	</outline>
</glyph>
<glyph name="prime" format="2">
	<unicode hex="2032"/>
	<advance width="260"/>
	<outline>
		<contour>
			<point x="48" y="376" type="line"/>
			<point x="120" y="376" type="line"/>
			<point x="132" y="400"/>
			<point x="152" y="444"/>
			<point x="164" y="472" type="curve" smooth="yes"/>
			<point x="200" y="556"/>
			<point x="220" y="600"/>
			<point x="220" y="648" type="curve" smooth="yes"/>
			<point x="220" y="696"/>
			<point x="192" y="724"/>
			<point x="124" y="724" type="curve" smooth="yes"/>
			<point x="96" y="724"/>
			<point x="80" y="720"/>
			<point x="64" y="716" type="curve"/>
		</contour>
	</outline>
</glyph>
<glyph name="zero.sups" format="2">
	<unicode hex="2070"/>
	<advance width="441"/>
	<outline>
		<contour>
			<point x="221" y="393" type="curve" smooth="yes"/>
			<point x="330" y="393"/>
			<point x="420" y="461"/>
			<point x="420" y="619" type="curve" smooth="yes"/>
			<point x="420" y="776"/>
			<point x="330" y="839"/>
			<point x="221" y="839" type="curve" smooth="yes"/>
			<point x="111" y="839"/>
			<point x="21" y="771"/>
			<point x="21" y="613" type="curve" smooth="yes"/>
			<point x="21" y="455"/>
			<point x="111" y="393"/>
		</contour>
		<contour>
			<point x="221" y="446" type="curve" smooth="yes"/>
			<point x="178" y="446"/>
			<point x="166" y="476"/>
			<point x="166" y="616" type="curve" smooth="yes"/>
			<point x="166" y="756"/>
			<point x="178" y="786"/>
			<point x="221" y="786" type="curve" smooth="yes"/>
			<point x="263" y="786"/>
			<point x="276" y="756"/>
			<point x="276" y="616" type="curve" smooth="yes"/>
			<point x="276" y="476"/>
			<point x="263" y="446"/>
		</contour>
	</outline>
</glyph>
<glyph name="i.sups" format="2">
	<unicode hex="2071"/>
	<advance width="278"/>
	<outline>
		<contour>
			<point x="69" y="404" type="line"/>
			<point x="212" y="404" type="line"/>
			<point x="212" y="754" type="line"/>
			<point x="167" y="754" type="line"/>
			<point x="25" y="712" type="line"/>
			<point x="25" y="662" type="line"/>
			<point x="69" y="662" type="line"/>
		</contour>
		<contour>
			<point x="28" y="404" type="line"/>
			<point x="253" y="404" type="line"/>
			<point x="253" y="457" type="line"/>
			<point x="178" y="457" type="line"/>
			<point x="103" y="457" type="line"/>
			<point x="28" y="457" type="line"/>
		</contour>
		<contour>
			<point x="139" y="790" type="curve" smooth="yes"/>
			<point x="180" y="790"/>
			<point x="208" y="817"/>
			<point x="208" y="856" type="curve" smooth="yes"/>
			<point x="208" y="894"/>
			<point x="180" y="921"/>
			<point x="139" y="921" type="curve" smooth="yes"/>
			<point x="98" y="921"/>
			<point x="69" y="894"/>
			<point x="69" y="856" type="curve" smooth="yes"/>
			<point x="69" y="817"/>
			<point x="98" y="790"/>
		</contour>
	</outline>
</glyph>
<glyph name="nine.sups" format="2">
	<unicode hex="2079"/>
	<advance width="441"/>
	<outline>
		<contour>
			<point x="73" y="393" type="line"/>
			<point x="292" y="410"/>
			<point x="419" y="505"/>
			<point x="419" y="653" type="curve" smooth="yes"/>
			<point x="419" y="772"/>
			<point x="342" y="839"/>
			<point x="219" y="839" type="curve" smooth="yes"/>
			<point x="89" y="839"/>
			<point x="22" y="774"/>
			<point x="22" y="688" type="curve" smooth="yes"/>
			<point x="22" y="614"/>
			<point x="76" y="563"/>
			<point x="154" y="563" type="curve" smooth="yes"/>
			<point x="198" y="563"/>
			<point x="222" y="578"/>
			<point x="239" y="600" type="curve"/>
			<point x="279" y="601" type="line"/>
			<point x="279" y="632" type="line"/>
			<point x="266" y="628"/>
			<point x="251" y="625"/>
			<point x="229" y="625" type="curve" smooth="yes"/>
			<point x="186" y="625"/>
			<point x="167" y="655"/>
			<point x="167" y="704" type="curve" smooth="yes"/>
			<point x="167" y="757"/>
			<point x="184" y="786"/>
			<point x="217" y="786" type="curve" smooth="yes"/>
			<point x="251" y="786"/>
			<point x="267" y="757"/>
			<point x="267" y="644" type="curve" smooth="yes"/>
			<point x="267" y="535"/>
			<point x="203" y="466"/>
			<point x="63" y="445" type="curve"/>
		</contour>
	</outline>
</glyph>
<glyph name="parenleft.sups" format="2">
	<unicode hex="207D"/>
	<advance width="325"/>
	<outline>
		<contour>
			<point x="191" y="592" type="curve" smooth="yes"/>
			<point x="191" y="696"/>
			<point x="218" y="771"/>
			<point x="283" y="850" type="curve"/>
			<point x="244" y="886" type="line"/>
			<point x="129" y="808"/>
			<point x="68" y="717"/>
			<point x="68" y="592" type="curve" smooth="yes"/>
			<point x="68" y="467"/>
			<point x="129" y="376"/>
			<point x="244" y="298" type="curve"/>
			<point x="283" y="334" type="line"/>
			<point x="218" y="413"/>
			<point x="191" y="488"/>
		</contour>
	</outline>
</glyph>
<glyph name="parenright.sups" format="2">
	<unicode hex="207E"/>
	<advance width="325"/>
	<outline>
		<contour>
			<point x="135" y="592" type="curve" smooth="yes"/>
			<point x="135" y="488"/>
			<point x="107" y="414"/>
			<point x="43" y="335" type="curve"/>
			<point x="82" y="298" type="line"/>
			<point x="196" y="376"/>
			<point x="258" y="467"/>
			<point x="258" y="592" type="curve" smooth="yes"/>
			<point x="258" y="718"/>
			<point x="196" y="809"/>
			<point x="82" y="886" type="curve"/>
			<point x="43" y="850" type="line"/>
			<point x="107" y="771"/>
			<point x="135" y="696"/>
		</contour>
	</outline>
</glyph>
<glyph name="n.sups" format="2">
	<unicode hex="207F"/>
	<advance width="518"/>
	<outline>
		<contour>
			<point x="72" y="415" type="line"/>
			<point x="214" y="415" type="line"/>
			<point x="214" y="694" type="line"/>
			<point x="203" y="694" type="line"/>
			<point x="192" y="765" type="line"/>
			<point x="153" y="765" type="line"/>
			<point x="28" y="723" type="line"/>
			<point x="28" y="673" type="line"/>
			<point x="72" y="673" type="line"/>
		</contour>
		<contour>
			<point x="312" y="415" type="line"/>
			<point x="454" y="415" type="line"/>
			<point x="454" y="656" type="line" smooth="yes"/>
			<point x="454" y="735"/>
			<point x="415" y="776"/>
			<point x="345" y="776" type="curve" smooth="yes"/>
			<point x="281" y="776"/>
			<point x="253" y="737"/>
			<point x="225" y="699" type="curve"/>
			<point x="192" y="699" type="line"/>
			<point x="192" y="649" type="line"/>
			<point x="220" y="667"/>
			<point x="242" y="674"/>
			<point x="267" y="674" type="curve" smooth="yes"/>
			<point x="298" y="674"/>
			<point x="312" y="662"/>
			<point x="312" y="631" type="curve" smooth="yes"/>
		</contour>
		<contour>
			<point x="30" y="415" type="line"/>
			<point x="245" y="415" type="line"/>
			<point x="245" y="468" type="line"/>
			<point x="181" y="468" type="line"/>
			<point x="106" y="468" type="line"/>
			<point x="30" y="468" type="line"/>
		</contour>
		<contour>
			<point x="281" y="415" type="line"/>
			<point x="496" y="415" type="line"/>
			<point x="496" y="468" type="line"/>
			<point x="421" y="468" type="line"/>
			<point x="345" y="468" type="line"/>
			<point x="281" y="468" type="line"/>
		</contour>
	</outline>
</glyph>
<glyph name="tugrik" format="2">
	<unicode hex="20AE"/>
	<advance width="600"/>
	<outline>
		<contour>
			<point x="18" y="464" type="line"/>
			<point x="98" y="464" type="line"/>
			<point x="138" y="600" type="line"/>
			<point x="90" y="556" type="line"/>
			<point x="510" y="556" type="line"/>
			<point x="462" y="600" type="line"/>
			<point x="502" y="464" type="line"/>
			<point x="582" y="464" type="line"/>
			<point x="578" y="628" type="line"/>
			<point x="22" y="628" type="line"/>
		</contour>
		<contour>
			<point x="104" y="103" type="line"/>
			<point x="300" y="174" type="line"/>
			<point x="300" y="237" type="line"/>
			<point x="104" y="166" type="line"/>
		</contour>
		<contour>
			<point x="104" y="239" type="line"/>
			<point x="300" y="310" type="line"/>
			<point x="300" y="373" type="line"/>
			<point x="104" y="302" type="line"/>
		</contour>
		<contour>
			<point x="124" y="0" type="line"/>
			<point x="476" y="0" type="line"/>
			<point x="476" y="68" type="line"/>
			<point x="352" y="68" type="line"/>
			<point x="248" y="68" type="line"/>
			<point x="124" y="68" type="line"/>
		</contour>
		<contour>
			<point x="200" y="0" type="curve"/>
			<point x="400" y="0" type="line"/>
			<point x="400" y="85"/>
			<point x="400" y="171"/>
			<point x="400" y="241" type="curve" smooth="yes"/>
			<point x="400" y="372" type="line" smooth="yes"/>
			<point x="400" y="457"/>
			<point x="400" y="543"/>
			<point x="400" y="628" type="curve"/>
			<point x="200" y="628" type="line"/>
			<point x="200" y="543"/>
			<point x="200" y="457"/>
			<point x="200" y="319" type="curve" smooth="yes"/>
			<point x="200" y="194" type="line" smooth="yes"/>
			<point x="200" y="171"/>
			<point x="200" y="85"/>
		</contour>
		<contour>
			<point x="300" y="164" type="line"/>
			<point x="496" y="234" type="line"/>
			<point x="496" y="297" type="line"/>
			<point x="300" y="227" type="line"/>
		</contour>
		<contour>
			<point x="300" y="300" type="line"/>
			<point x="496" y="370" type="line"/>
			<point x="496" y="433" type="line"/>
			<point x="300" y="363" type="line"/>
		</contour>
	</outline>
</glyph>
<glyph name="hryvnia" format="2">
	<unicode hex="20B4"/>
	<advance width="600"/>
	<outline>
		<contour>
			<point x="48" y="216" type="line"/>
			<point x="552" y="216" type="line"/>
			<point x="552" y="276" type="line"/>
			<point x="48" y="276" type="line"/>
		</contour>
		<contour>
			<point x="48" y="352" type="line"/>
			<point x="552" y="352" type="line"/>
			<point x="552" y="412" type="line"/>
			<point x="48" y="412" type="line"/>
		</contour>
		<contour>
			<point x="309" y="-12" type="curve" smooth="yes"/>
			<point x="452" y="-12"/>
			<point x="510" y="39"/>
			<point x="532" y="113" type="curve"/>
			<point x="532" y="156"/>
			<point x="516" y="185"/>
			<point x="472" y="185" type="curve" smooth="yes"/>
			<point x="428" y="185"/>
			<point x="406" y="164"/>
			<point x="400" y="126" type="curve" smooth="yes"/>
			<point x="384" y="20" type="line"/>
			<point x="464" y="64" type="line"/>
			<point x="444" y="56"/>
			<point x="391" y="48"/>
			<point x="354" y="48" type="curve" smooth="yes"/>
			<point x="274" y="48"/>
			<point x="239" y="76"/>
			<point x="239" y="140" type="curve" smooth="yes"/>
			<point x="239" y="195"/>
			<point x="264" y="227"/>
			<point x="291" y="247" type="curve" smooth="yes"/>
			<point x="446" y="361" type="line" smooth="yes"/>
			<point x="489" y="393"/>
			<point x="524" y="416"/>
			<point x="524" y="484" type="curve" smooth="yes"/>
			<point x="524" y="584"/>
			<point x="428" y="640"/>
			<point x="302" y="640" type="curve" smooth="yes"/>
			<point x="171" y="640"/>
			<point x="122" y="595"/>
			<point x="99" y="525" type="curve"/>
			<point x="99" y="476"/>
			<point x="116" y="451"/>
			<point x="160" y="451" type="curve" smooth="yes"/>
			<point x="209" y="451"/>
			<point x="226" y="472"/>
			<point x="232" y="510" type="curve" smooth="yes"/>
			<point x="248" y="616" type="line"/>
			<point x="168" y="564" type="line"/>
			<point x="192" y="572"/>
			<point x="233" y="580"/>
			<point x="272" y="580" type="curve" smooth="yes"/>
			<point x="328" y="580"/>
			<point x="368" y="542"/>
			<point x="368" y="493" type="curve" smooth="yes"/>
			<point x="368" y="437"/>
			<point x="355" y="416"/>
			<point x="320" y="390" type="curve" smooth="yes"/>
			<point x="156" y="266" type="line" smooth="yes"/>
			<point x="120" y="239"/>
			<point x="84" y="207"/>
			<point x="84" y="145" type="curve" smooth="yes"/>
			<point x="84" y="45"/>
			<point x="167" y="-12"/>
		</contour>
	</outline>
</glyph>
<glyph name="tenge" format="2">
	<unicode hex="20B8"/>
	<advance width="600"/>
	<outline>
		<contour>
			<point x="28" y="328" type="line"/>
			<point x="108" y="328" type="line"/>
			<point x="148" y="488" type="line"/>
			<point x="100" y="444" type="line"/>
			<point x="500" y="444" type="line"/>
			<point x="452" y="488" type="line"/>
			<point x="492" y="328" type="line"/>
			<point x="572" y="328" type="line"/>
			<point x="568" y="516" type="line"/>
			<point x="32" y="516" type="line"/>
		</contour>
		<contour>
			<point x="200" y="0" type="curve"/>
			<point x="400" y="0" type="line"/>
			<point x="400" y="73"/>
			<point x="400" y="147"/>
			<point x="400" y="220" type="curve" smooth="yes"/>
			<point x="400" y="296" type="line" smooth="yes"/>
			<point x="400" y="369"/>
			<point x="400" y="443"/>
			<point x="400" y="516" type="curve"/>
			<point x="200" y="516" type="line"/>
			<point x="200" y="443"/>
			<point x="200" y="369"/>
			<point x="200" y="296" type="curve" smooth="yes"/>
			<point x="200" y="220" type="line" smooth="yes"/>
			<point x="200" y="147"/>
			<point x="200" y="73"/>
		</contour>
		<contour>
			<point x="124" y="0" type="line"/>
			<point x="476" y="0" type="line"/>
			<point x="476" y="76" type="line"/>
			<point x="352" y="76" type="line"/>
			<point x="248" y="76" type="line"/>
			<point x="124" y="76" type="line"/>
		</contour>
		<contour>
			<point x="32" y="570" type="line"/>
			<point x="568" y="570" type="line"/>
			<point x="568" y="642" type="line"/>
			<point x="32" y="642" type="line"/>
		</contour>
	</outline>
</glyph>
<glyph name="litre" format="2">
	<unicode hex="2113"/>
	<advance width="608"/>
	<outline>
		<contour>
			<point x="339" y="-16" type="curve" smooth="yes"/>
			<point x="456" y="-16"/>
			<point x="512" y="28"/>
			<point x="560" y="80" type="curve"/>
			<point x="520" y="132" type="line"/>
			<point x="484" y="100"/>
			<point x="456" y="76"/>
			<point x="396" y="76" type="curve" smooth="yes"/>
			<point x="295" y="76"/>
			<point x="229" y="167"/>
			<point x="229" y="354" type="curve" smooth="yes"/>
			<point x="229" y="593"/>
			<point x="265" y="655"/>
			<point x="305" y="655" type="curve" smooth="yes"/>
			<point x="332" y="655"/>
			<point x="353" y="635"/>
			<point x="353" y="547" type="curve" smooth="yes"/>
			<point x="353" y="445"/>
			<point x="345" y="347"/>
			<point x="264" y="215" type="curve"/>
			<point x="238" y="215" type="line"/>
			<point x="36" y="68" type="line"/>
			<point x="80" y="8" type="line"/>
			<point x="327" y="199"/>
			<point x="496" y="343"/>
			<point x="496" y="536" type="curve" smooth="yes"/>
			<point x="496" y="645"/>
			<point x="432" y="722"/>
			<point x="320" y="722" type="curve" smooth="yes"/>
			<point x="181" y="722"/>
			<point x="48" y="604"/>
			<point x="48" y="365" type="curve" smooth="yes"/>
			<point x="48" y="90"/>
			<point x="201" y="-16"/>
		</contour>
	</outline>
</glyph>
<glyph name="arrowdown" format="2">
	<unicode hex="2193"/>
	<advance width="700"/>
	<outline>
		<contour>
			<point x="275" y="607" type="line"/>
			<point x="275" y="417" type="line"/>
			<point x="304" y="79" type="line"/>
			<point x="286" y="72" type="line"/>
			<point x="144" y="382" type="line"/>
			<point x="22" y="293" type="line"/>
			<point x="321" y="-39" type="line"/>
			<point x="389" y="-39" type="line"/>
			<point x="688" y="293" type="line"/>
			<point x="566" y="383" type="line"/>
			<point x="424" y="72" type="line"/>
			<point x="406" y="79" type="line"/>
			<point x="435" y="417" type="line"/>
			<point x="435" y="607" type="line"/>
		</contour>
	</outline>
</glyph>
<glyph name="minus" format="2">
	<unicode hex="2212"/>
	<advance width="600"/>
	<outline>
		<contour>
			<point x="545" y="262" type="line"/>
			<point x="545" y="370" type="line"/>
			<point x="55" y="370" type="line"/>
			<point x="55" y="262" type="line"/>
		</contour>
	</outline>
</glyph>
<glyph name="radical" format="2">
	<unicode hex="221A"/>
	<advance width="600"/>
	<outline>
		<contour>
			<point x="132" y="324" type="line"/>
			<point x="268" y="-112" type="line"/>
			<point x="404" y="-112" type="line"/>
			<point x="600" y="772" type="line"/>
			<point x="472" y="772" type="line"/>
			<point x="359" y="-24" type="line"/>
			<point x="332" y="-24" type="line"/>
			<point x="228" y="372" type="line"/>
			<point x="28" y="372" type="line"/>
			<point x="28" y="276" type="line"/>
			<point x="164" y="276" type="line"/>
		</contour>
	</outline>
</glyph>
<glyph name="notequal" format="2">
	<unicode hex="2260"/>
	<advance width="600"/>
	<outline>
		<contour>
			<point x="168" y="20" type="line"/>
			<point x="488" y="587" type="line"/>
			<point x="432" y="620" type="line"/>
			<point x="112" y="53" type="line"/>
		</contour>
		<component base="equal"/>
	</outline>
</glyph>
<glyph name="A.sups" format="2">
	<advance width="534"/>
	<outline>
		<contour>
			<point x="16" y="404" type="line"/>
			<point x="175" y="404" type="line"/>
			<point x="175" y="459" type="line"/>
			<point x="106" y="459" type="line"/>
			<point x="89" y="459" type="line"/>
			<point x="16" y="459" type="line"/>
		</contour>
		<contour>
			<point x="41" y="404" type="line"/>
			<point x="106" y="404" type="line"/>
			<point x="182" y="642" type="line"/>
			<point x="205" y="773" type="line"/>
			<point x="213" y="773" type="line"/>
			<point x="336" y="404" type="line"/>
			<point x="493" y="404" type="line"/>
			<point x="329" y="844" type="line"/>
			<point x="200" y="844" type="line"/>
		</contour>
		<contour>
			<point x="124" y="518" type="line"/>
			<point x="365" y="518" type="line"/>
			<point x="365" y="567" type="line"/>
			<point x="124" y="567" type="line"/>
		</contour>
		<contour>
			<point x="265" y="404" type="line"/>
			<point x="518" y="404" type="line"/>
			<point x="518" y="459" type="line"/>
			<point x="435" y="459" type="line"/>
			<point x="348" y="459" type="line"/>
			<point x="265" y="459" type="line"/>
		</contour>
	</outline>
</glyph>
<glyph name="AE.sc" format="2">
	<advance width="885"/>
	<outline>
		<contour>
			<point x="378" y="0" type="curve"/>
			<point x="578" y="0" type="line"/>
			<point x="578" y="79"/>
			<point x="578" y="157"/>
			<point x="578" y="237" type="curve" smooth="yes"/>
			<point x="578" y="319" type="line" smooth="yes"/>
			<point x="578" y="398"/>
			<point x="578" y="477"/>
			<point x="578" y="556" type="curve"/>
			<point x="378" y="556" type="line"/>
			<point x="378" y="237" type="line" smooth="yes"/>
			<point x="378" y="157"/>
			<point x="378" y="79"/>
		</contour>
		<contour>
			<point x="34" y="0" type="line"/>
			<point x="239" y="0" type="line"/>
			<point x="239" y="73" type="line"/>
			<point x="149" y="73" type="line"/>
			<point x="128" y="73" type="line"/>
			<point x="34" y="73" type="line"/>
		</contour>
		<contour>
			<point x="661" y="197" type="line"/>
			<point x="734" y="197" type="line"/>
			<point x="734" y="368" type="line"/>
			<point x="661" y="368" type="line"/>
			<point x="639" y="297" type="line"/>
			<point x="639" y="269" type="line"/>
		</contour>
		<contour>
			<point x="733" y="411" type="line"/>
			<point x="810" y="411" type="line"/>
			<point x="803" y="556" type="line"/>
			<point x="504" y="556" type="line"/>
			<point x="504" y="487" type="line"/>
			<point x="697" y="487" type="line"/>
		</contour>
		<contour>
			<point x="505" y="0" type="line"/>
			<point x="821" y="0" type="line"/>
			<point x="828" y="152" type="line"/>
			<point x="751" y="152" type="line"/>
			<point x="714" y="69" type="line"/>
			<point x="505" y="69" type="line"/>
		</contour>
		<contour>
			<point x="207" y="483" type="line"/>
			<point x="408" y="483" type="line"/>
			<point x="422" y="483" type="line"/>
			<point x="422" y="556" type="line"/>
			<point x="207" y="556" type="line"/>
		</contour>
		<contour>
			<point x="318" y="0" type="line"/>
			<point x="421" y="0" type="line"/>
			<point x="421" y="73" type="line"/>
			<point x="407" y="73" type="line"/>
			<point x="318" y="73" type="line"/>
		</contour>
		<contour>
			<point x="66" y="0" type="line"/>
			<point x="150" y="0" type="line"/>
			<point x="234" y="185" type="line"/>
			<point x="385" y="556" type="line"/>
			<point x="317" y="556" type="line"/>
		</contour>
		<contour>
			<point x="183" y="151" type="line"/>
			<point x="468" y="151" type="line"/>
			<point x="468" y="217" type="line"/>
			<point x="183" y="217" type="line"/>
		</contour>
		<contour>
			<point x="474" y="246" type="line"/>
			<point x="686" y="246" type="line"/>
			<point x="686" y="320" type="line"/>
			<point x="474" y="320" type="line"/>
		</contour>
	</outline>
	<anchor name="aboveUC" x="472" y="576"/>
</glyph>
<glyph name="B.sc" format="2">
	<advance width="690"/>
	<outline>
		<contour>
			<point x="33" y="0" type="line"/>
			<point x="145" y="0" type="line"/>
			<point x="145" y="73" type="line"/>
			<point x="130" y="73" type="line"/>
			<point x="33" y="73" type="line"/>
		</contour>
		<contour>
			<point x="101" y="0" type="curve"/>
			<point x="301" y="0" type="line"/>
			<point x="301" y="79"/>
			<point x="301" y="157"/>
			<point x="301" y="237" type="curve" smooth="yes"/>
			<point x="301" y="319" type="line" smooth="yes"/>
			<point x="301" y="398"/>
			<point x="301" y="477"/>
			<point x="301" y="556" type="curve"/>
			<point x="101" y="556" type="line"/>
			<point x="101" y="477"/>
			<point x="101" y="398"/>
			<point x="101" y="319" type="curve" smooth="yes"/>
			<point x="101" y="237" type="line" smooth="yes"/>
			<point x="101" y="157"/>
			<point x="101" y="79"/>
		</contour>
		<contour>
			<point x="130" y="483" type="line"/>
			<point x="145" y="483" type="line"/>
			<point x="145" y="556" type="line"/>
			<point x="33" y="556" type="line"/>
			<point x="33" y="483" type="line"/>
		</contour>
		<contour>
			<point x="257" y="0" type="line"/>
			<point x="327" y="0" type="line" smooth="yes"/>
			<point x="551" y="0"/>
			<point x="648" y="59"/>
			<point x="648" y="161" type="curve" smooth="yes"/>
			<point x="648" y="268"/>
			<point x="554" y="292"/>
			<point x="417" y="292" type="curve"/>
			<point x="417" y="314" type="line"/>
			<point x="533" y="314"/>
			<point x="616" y="355"/>
			<point x="616" y="433" type="curve" smooth="yes"/>
			<point x="616" y="512"/>
			<point x="522" y="556"/>
			<point x="334" y="556" type="curve" smooth="yes"/>
			<point x="257" y="556" type="line"/>
			<point x="257" y="487" type="line"/>
			<point x="328" y="487" type="line" smooth="yes"/>
			<point x="388" y="487"/>
			<point x="416" y="450"/>
			<point x="416" y="404" type="curve" smooth="yes"/>
			<point x="416" y="358"/>
			<point x="388" y="318"/>
			<point x="320" y="318" type="curve" smooth="yes"/>
			<point x="242" y="318" type="line"/>
			<point x="242" y="253" type="line"/>
			<point x="327" y="253" type="line" smooth="yes"/>
			<point x="409" y="253"/>
			<point x="444" y="220"/>
			<point x="444" y="161" type="curve" smooth="yes"/>
			<point x="444" y="102"/>
			<point x="409" y="69"/>
			<point x="320" y="69" type="curve" smooth="yes"/>
			<point x="257" y="69" type="line"/>
		</contour>
	</outline>
	<anchor name="aboveUC" x="321" y="576"/>
	<anchor name="belowLC" x="340" y="-20"/>
</glyph>
<glyph name="C.sups" format="2">
	<advance width="512"/>
	<outline>
		<contour>
			<point x="306" y="393" type="curve" smooth="yes"/>
			<point x="384" y="393"/>
			<point x="435" y="409"/>
			<point x="471" y="426" type="curve"/>
			<point x="476" y="534" type="line"/>
			<point x="415" y="534" type="line"/>
			<point x="379" y="437" type="line"/>
			<point x="435" y="437" type="line"/>
			<point x="435" y="481" type="line"/>
			<point x="401" y="459"/>
			<point x="373" y="448"/>
			<point x="334" y="448" type="curve" smooth="yes"/>
			<point x="251" y="448"/>
			<point x="195" y="507"/>
			<point x="195" y="625" type="curve" smooth="yes"/>
			<point x="195" y="744"/>
			<point x="256" y="800"/>
			<point x="331" y="800" type="curve" smooth="yes"/>
			<point x="373" y="800"/>
			<point x="401" y="789"/>
			<point x="432" y="767" type="curve"/>
			<point x="432" y="811" type="line"/>
			<point x="376" y="811" type="line"/>
			<point x="412" y="713" type="line"/>
			<point x="474" y="713" type="line"/>
			<point x="468" y="822" type="line"/>
			<point x="440" y="839"/>
			<point x="384" y="855"/>
			<point x="309" y="855" type="curve" smooth="yes"/>
			<point x="167" y="855"/>
			<point x="39" y="789"/>
			<point x="39" y="623" type="curve" smooth="yes"/>
			<point x="39" y="456"/>
			<point x="161" y="393"/>
		</contour>
	</outline>
</glyph>
<glyph name="De.sc" format="2">
	<advance width="698"/>
	<outline>
		<contour>
			<point x="30" y="-162" type="line"/>
			<point x="107" y="-162" type="line"/>
			<point x="145" y="44" type="line"/>
			<point x="90" y="0" type="line"/>
			<point x="592" y="0" type="line"/>
			<point x="554" y="44" type="line"/>
			<point x="591" y="-162" type="line"/>
			<point x="668" y="-162" type="line"/>
			<point x="672" y="73" type="line"/>
			<point x="27" y="73" type="line"/>
		</contour>
		<contour>
			<point x="128" y="483" type="line"/>
			<point x="241" y="483" type="line"/>
			<point x="255" y="483" type="line"/>
			<point x="255" y="556" type="line"/>
			<point x="128" y="556" type="line"/>
		</contour>
		<contour>
			<point x="263" y="486" type="line"/>
			<point x="414" y="486" type="line"/>
			<point x="414" y="556" type="line"/>
			<point x="263" y="556" type="line"/>
		</contour>
		<contour>
			<point x="384" y="0" type="curve"/>
			<point x="584" y="0" type="line"/>
			<point x="584" y="79"/>
			<point x="584" y="157"/>
			<point x="584" y="237" type="curve" smooth="yes"/>
			<point x="584" y="319" type="line" smooth="yes"/>
			<point x="584" y="398"/>
			<point x="584" y="477"/>
			<point x="584" y="556" type="curve"/>
			<point x="384" y="556" type="line"/>
			<point x="384" y="477"/>
			<point x="384" y="398"/>
			<point x="384" y="319" type="curve" smooth="yes"/>
			<point x="384" y="237" type="line" smooth="yes"/>
			<point x="384" y="157"/>
			<point x="384" y="79"/>
		</contour>
		<contour>
			<point x="525" y="483" type="line"/>
			<point x="539" y="483" type="line"/>
			<point x="659" y="483" type="line"/>
			<point x="659" y="556" type="line"/>
			<point x="525" y="556" type="line"/>
		</contour>
		<contour>
			<point x="62" y="41" type="curve"/>
			<point x="147" y="28" type="line"/>
			<point x="147" y="97" type="line"/>
			<point x="201" y="131"/>
			<point x="228" y="170"/>
			<point x="246" y="245" type="curve" smooth="yes"/>
			<point x="265" y="324"/>
			<point x="281" y="426"/>
			<point x="284" y="556" type="curve"/>
			<point x="207" y="556" type="line"/>
			<point x="200" y="290"/>
			<point x="149" y="145"/>
		</contour>
	</outline>
</glyph>
<glyph name="Delta.sc" format="2">
	<advance width="629"/>
	<outline>
		<contour>
			<point x="34" y="0" type="line"/>
			<point x="90" y="0" type="line"/>
			<point x="239" y="346" type="line"/>
			<point x="266" y="346" type="line"/>
			<point x="408" y="0" type="line"/>
			<point x="596" y="0" type="line"/>
			<point x="596" y="74" type="line"/>
			<point x="390" y="554" type="line"/>
			<point x="246" y="554" type="line"/>
			<point x="34" y="74" type="line"/>
		</contour>
		<contour>
			<point x="59" y="0" type="line"/>
			<point x="526" y="0" type="line"/>
			<point x="526" y="87" type="line"/>
			<point x="59" y="87" type="line"/>
		</contour>
	</outline>
</glyph>
<glyph name="Dzhe.sc" format="2">
	<advance width="770"/>
	<outline>
		<contour>
			<point x="101" y="0" type="curve"/>
			<point x="301" y="0" type="line"/>
			<point x="301" y="79"/>
			<point x="301" y="157"/>
			<point x="301" y="237" type="curve" smooth="yes"/>
			<point x="301" y="319" type="line" smooth="yes"/>
			<point x="301" y="398"/>
			<point x="301" y="477"/>
			<point x="301" y="556" type="curve"/>
			<point x="101" y="556" type="line"/>
			<point x="101" y="477"/>
			<point x="101" y="398"/>
			<point x="101" y="319" type="curve" smooth="yes"/>
			<point x="101" y="237" type="line" smooth="yes"/>
			<point x="101" y="157"/>
			<point x="101" y="79"/>
		</contour>
		<contour>
			<point x="470" y="0" type="curve"/>
			<point x="670" y="0" type="line"/>
			<point x="670" y="79"/>
			<point x="670" y="157"/>
			<point x="670" y="237" type="curve" smooth="yes"/>
			<point x="670" y="319" type="line" smooth="yes"/>
			<point x="670" y="398"/>
			<point x="670" y="477"/>
			<point x="670" y="556" type="curve"/>
			<point x="470" y="556" type="line"/>
			<point x="470" y="477"/>
			<point x="470" y="398"/>
			<point x="470" y="319" type="curve" smooth="yes"/>
			<point x="470" y="237" type="line" smooth="yes"/>
			<point x="470" y="157"/>
			<point x="470" y="79"/>
		</contour>
		<contour>
			<point x="33" y="483" type="line"/>
			<point x="145" y="483" type="line"/>
			<point x="257" y="483" type="line"/>
			<point x="353" y="483" type="line"/>
			<point x="353" y="556" type="line"/>
			<point x="33" y="556" type="line"/>
		</contour>
		<contour>
			<point x="417" y="483" type="line"/>
			<point x="514" y="483" type="line"/>
			<point x="625" y="483" type="line"/>
			<point x="737" y="483" type="line"/>
			<point x="737" y="556" type="line"/>
			<point x="417" y="556" type="line"/>
		</contour>
		<contour>
			<point x="33" y="0" type="line"/>
			<point x="159" y="0" type="line"/>
			<point x="159" y="73" type="line"/>
			<point x="145" y="73" type="line"/>
			<point x="33" y="73" type="line"/>
		</contour>
		<contour>
			<point x="737" y="0" type="line"/>
			<point x="737" y="73" type="line"/>
			<point x="625" y="73" type="line"/>
			<point x="611" y="73" type="line"/>
			<point x="611" y="0" type="line"/>
		</contour>
		<contour>
			<point x="326" y="16" type="line"/>
			<point x="340" y="-172" type="line"/>
			<point x="428" y="-172" type="line"/>
			<point x="443" y="16" type="line"/>
		</contour>
		<contour>
			<point x="558" y="0" type="line"/>
			<point x="558" y="73" type="line"/>
			<point x="212" y="73" type="line"/>
			<point x="212" y="0" type="line"/>
		</contour>
	</outline>
</glyph>
<glyph name="G.sups" format="2">
	<advance width="563"/>
	<outline>
		<contour>
			<point x="312" y="404" type="curve" smooth="yes"/>
			<point x="390" y="404"/>
			<point x="451" y="420"/>
			<point x="493" y="442" type="curve"/>
			<point x="493" y="638" type="line"/>
			<point x="351" y="638" type="line"/>
			<point x="351" y="424" type="line"/>
			<point x="418" y="487" type="line"/>
			<point x="396" y="470"/>
			<point x="373" y="459"/>
			<point x="334" y="459" type="curve" smooth="yes"/>
			<point x="253" y="459"/>
			<point x="195" y="518"/>
			<point x="195" y="636" type="curve" smooth="yes"/>
			<point x="195" y="755"/>
			<point x="259" y="811"/>
			<point x="340" y="811" type="curve" smooth="yes"/>
			<point x="382" y="811"/>
			<point x="412" y="800"/>
			<point x="443" y="778" type="curve"/>
			<point x="443" y="822" type="line"/>
			<point x="387" y="822" type="line"/>
			<point x="423" y="724" type="line"/>
			<point x="485" y="724" type="line"/>
			<point x="479" y="833" type="line"/>
			<point x="451" y="850"/>
			<point x="393" y="866"/>
			<point x="317" y="866" type="curve" smooth="yes"/>
			<point x="170" y="866"/>
			<point x="39" y="800"/>
			<point x="39" y="634" type="curve" smooth="yes"/>
			<point x="39" y="467"/>
			<point x="159" y="404"/>
		</contour>
		<contour>
			<point x="384" y="582" type="line"/>
			<point x="460" y="582" type="line"/>
			<point x="532" y="582" type="line"/>
			<point x="532" y="638" type="line"/>
			<point x="290" y="638" type="line"/>
			<point x="290" y="582" type="line"/>
		</contour>
	</outline>
</glyph>
<glyph name="Ghestroke.sc" format="2">
	<advance width="565"/>
	<outline>
		<contour>
			<point x="33" y="259" type="line"/>
			<point x="400" y="259" type="line"/>
			<point x="400" y="316" type="line"/>
			<point x="33" y="316" type="line"/>
		</contour>
		<component base="Ghe.sc"/>
	</outline>
</glyph>
<glyph name="I.sups" format="2">
	<advance width="312"/>
	<outline>
		<contour>
			<point x="28" y="404" type="line"/>
			<point x="284" y="404" type="line"/>
			<point x="284" y="459" type="line"/>
			<point x="198" y="459" type="line"/>
			<point x="114" y="459" type="line"/>
			<point x="28" y="459" type="line"/>
		</contour>
		<contour>
			<point x="28" y="789" type="line"/>
			<point x="114" y="789" type="line"/>
			<point x="198" y="789" type="line"/>
			<point x="284" y="789" type="line"/>
			<point x="284" y="844" type="line"/>
			<point x="28" y="844" type="line"/>
		</contour>
		<contour>
			<point x="80" y="404" type="line"/>
			<point x="231" y="404" type="line"/>
			<point x="231" y="844" type="line"/>
			<point x="80" y="844" type="line"/>
		</contour>
	</outline>
</glyph>
<glyph name="Izhitsa.sc" format="2">
	<advance width="681"/>
	<outline>
		<contour>
			<point x="238" y="1" type="line"/>
			<point x="405" y="1" type="line"/>
			<point x="502" y="363" type="line" smooth="yes"/>
			<point x="508" y="384"/>
			<point x="518" y="423"/>
			<point x="531" y="465" type="curve"/>
			<point x="562" y="465" type="line"/>
			<point x="542" y="475" type="line"/>
			<point x="544" y="450"/>
			<point x="570" y="422"/>
			<point x="602" y="422" type="curve" smooth="yes"/>
			<point x="646" y="422"/>
			<point x="668" y="450"/>
			<point x="675" y="495" type="curve"/>
			<point x="670" y="543"/>
			<point x="639" y="570"/>
			<point x="581" y="570" type="curve" smooth="yes"/>
			<point x="505" y="570"/>
			<point x="471" y="525"/>
			<point x="440" y="402" type="curve" smooth="yes"/>
			<point x="414" y="298" type="line"/>
			<point x="379" y="84" type="line"/>
			<point x="366" y="84" type="line"/>
			<point x="254" y="556" type="line"/>
			<point x="45" y="556" type="line"/>
		</contour>
		<contour>
			<point x="14" y="483" type="line"/>
			<point x="115" y="483" type="line"/>
			<point x="230" y="483" type="line"/>
			<point x="349" y="483" type="line"/>
			<point x="349" y="556" type="line"/>
			<point x="14" y="556" type="line"/>
		</contour>
	</outline>
	<anchor name="aboveUC" x="389" y="576"/>
</glyph>
<glyph name="J.sc" format="2">
	<advance width="360"/>
	<outline>
		<contour>
			<point x="15" y="-139" type="curve" smooth="yes"/>
			<point x="91" y="-139"/>
			<point x="148" y="-108"/>
			<point x="190" y="-55" type="curve" smooth="yes"/>
			<point x="227" y="-13"/>
			<point x="263" y="25"/>
			<point x="263" y="191" type="curve" smooth="yes"/>
			<point x="263" y="317" type="line" smooth="yes"/>
			<point x="263" y="400"/>
			<point x="263" y="472"/>
			<point x="263" y="556" type="curve"/>
			<point x="63" y="556" type="line"/>
			<point x="63" y="416"/>
			<point x="63" y="301"/>
			<point x="63" y="141" type="curve" smooth="yes"/>
			<point x="63" y="25"/>
			<point x="74" y="-25"/>
			<point x="78" y="-98" type="curve"/>
			<point x="92" y="-89" type="line"/>
			<point x="35" y="-89" type="line"/>
			<point x="66" y="-105" type="line"/>
			<point x="47" y="-71" type="line" smooth="yes"/>
			<point x="19" y="-18"/>
			<point x="-1" y="-6"/>
			<point x="-42" y="-6" type="curve" smooth="yes"/>
			<point x="-82" y="-6"/>
			<point x="-106" y="-36"/>
			<point x="-113" y="-71" type="curve"/>
			<point x="-105" y="-118"/>
			<point x="-59" y="-139"/>
		</contour>
		<contour>
			<point x="-11" y="483" type="line"/>
			<point x="107" y="483" type="line"/>
			<point x="219" y="483" type="line"/>
			<point x="331" y="483" type="line"/>
			<point x="331" y="556" type="line"/>
			<point x="-11" y="556" type="line"/>
		</contour>
	</outline>
	<anchor name="aboveUC" x="160" y="576"/>
	<anchor name="belowLC" x="72" y="-158"/>
</glyph>
<glyph name="J.sups" format="2">
	<advance width="306"/>
	<outline>
		<contour>
			<point x="39" y="298" type="curve" smooth="yes"/>
			<point x="97" y="298"/>
			<point x="140" y="321"/>
			<point x="172" y="360" type="curve" smooth="yes"/>
			<point x="201" y="393"/>
			<point x="228" y="424"/>
			<point x="228" y="547" type="curve" smooth="yes"/>
			<point x="228" y="844" type="line"/>
			<point x="78" y="844" type="line"/>
			<point x="78" y="509" type="line" smooth="yes"/>
			<point x="78" y="417"/>
			<point x="85" y="382"/>
			<point x="88" y="330" type="curve"/>
			<point x="99" y="336" type="line"/>
			<point x="55" y="336" type="line"/>
			<point x="79" y="325" type="line"/>
			<point x="64" y="350" type="line" smooth="yes"/>
			<point x="43" y="387"/>
			<point x="28" y="396"/>
			<point x="-3" y="396" type="curve" smooth="yes"/>
			<point x="-34" y="396"/>
			<point x="-52" y="375"/>
			<point x="-58" y="348" type="curve"/>
			<point x="-51" y="314"/>
			<point x="-16" y="298"/>
		</contour>
		<contour>
			<point x="111" y="789" type="line"/>
			<point x="195" y="789" type="line"/>
			<point x="281" y="789" type="line"/>
			<point x="281" y="844" type="line"/>
			<point x="19" y="844" type="line"/>
			<point x="19" y="789" type="line"/>
		</contour>
	</outline>
</glyph>
<glyph name="K.sups" format="2">
	<advance width="579"/>
	<outline>
		<contour>
			<point x="80" y="404" type="line"/>
			<point x="231" y="404" type="line"/>
			<point x="231" y="844" type="line"/>
			<point x="80" y="844" type="line"/>
		</contour>
		<contour>
			<point x="28" y="404" type="line"/>
			<point x="273" y="404" type="line"/>
			<point x="273" y="459" type="line"/>
			<point x="198" y="459" type="line"/>
			<point x="114" y="459" type="line"/>
			<point x="28" y="459" type="line"/>
		</contour>
		<contour>
			<point x="28" y="789" type="line"/>
			<point x="114" y="789" type="line"/>
			<point x="198" y="789" type="line"/>
			<point x="281" y="789" type="line"/>
			<point x="281" y="844" type="line"/>
			<point x="28" y="844" type="line"/>
		</contour>
		<contour>
			<point x="337" y="789" type="line"/>
			<point x="415" y="789" type="line"/>
			<point x="457" y="789" type="line"/>
			<point x="535" y="789" type="line"/>
			<point x="535" y="844" type="line"/>
			<point x="337" y="844" type="line"/>
		</contour>
		<contour>
			<point x="379" y="404" type="line"/>
			<point x="549" y="404" type="line"/>
			<point x="354" y="720" type="line"/>
			<point x="259" y="615" type="line"/>
		</contour>
		<contour>
			<point x="192" y="534" type="line"/>
			<point x="529" y="844" type="line"/>
			<point x="449" y="844" type="line"/>
			<point x="325" y="720" type="line"/>
			<point x="242" y="621" type="line"/>
			<point x="192" y="621" type="line"/>
		</contour>
		<contour>
			<point x="309" y="404" type="line"/>
			<point x="557" y="404" type="line"/>
			<point x="557" y="459" type="line"/>
			<point x="471" y="459" type="line"/>
			<point x="368" y="459" type="line"/>
			<point x="309" y="459" type="line"/>
		</contour>
	</outline>
</glyph>
<glyph name="Kadescender.sc" format="2">
	<advance width="734"/>
	<outline>
		<contour>
			<point x="574" y="0" type="line"/>
			<point x="651" y="0" type="line"/>
			<point x="613" y="44" type="line"/>
			<point x="650" y="-162" type="line"/>
			<point x="727" y="-162" type="line"/>
			<point x="731" y="70" type="line"/>
			<point x="574" y="85" type="line"/>
		</contour>
		<component base="Ka.sc"/>
	</outline>
</glyph>
<glyph name="Lambda.sc" format="2">
	<advance width="679"/>
	<outline>
		<contour>
			<point x="14" y="0" type="line"/>
			<point x="219" y="0" type="line"/>
			<point x="219" y="73" type="line"/>
			<point x="129" y="73" type="line"/>
			<point x="108" y="73" type="line"/>
			<point x="14" y="73" type="line"/>
		</contour>
		<contour>
			<point x="45" y="0" type="line"/>
			<point x="129" y="0" type="line"/>
			<point x="226" y="281" type="line"/>
			<point x="257" y="461" type="line"/>
			<point x="267" y="461" type="line"/>
			<point x="425" y="0" type="line"/>
			<point x="634" y="0" type="line"/>
			<point x="421" y="555" type="line"/>
			<point x="251" y="555" type="line"/>
		</contour>
		<contour>
			<point x="334" y="0" type="line"/>
			<point x="665" y="0" type="line"/>
			<point x="665" y="73" type="line"/>
			<point x="557" y="73" type="line"/>
			<point x="441" y="73" type="line"/>
			<point x="334" y="73" type="line"/>
		</contour>
	</outline>
</glyph>
<glyph name="N.sups" format="2">
	<advance width="537"/>
	<outline>
		<contour>
			<point x="28" y="415" type="line"/>
			<point x="203" y="415" type="line"/>
			<point x="203" y="470" type="line"/>
			<point x="128" y="470" type="line"/>
			<point x="92" y="470" type="line"/>
			<point x="28" y="470" type="line"/>
		</contour>
		<contour>
			<point x="80" y="415" type="line"/>
			<point x="138" y="415" type="line"/>
			<point x="138" y="592" type="line"/>
			<point x="120" y="825" type="line"/>
			<point x="80" y="825" type="line"/>
		</contour>
		<contour>
			<point x="343" y="416" type="line"/>
			<point x="460" y="416" type="line"/>
			<point x="460" y="855" type="line"/>
			<point x="404" y="855" type="line"/>
			<point x="404" y="699" type="line"/>
			<point x="418" y="549" type="line"/>
			<point x="408" y="549" type="line"/>
			<point x="231" y="855" type="line"/>
			<point x="28" y="855" type="line"/>
			<point x="28" y="800" type="line"/>
			<point x="98" y="800" type="line"/>
			<point x="98" y="778" type="line"/>
			<point x="132" y="778" type="line"/>
		</contour>
		<contour>
			<point x="412" y="800" type="line"/>
			<point x="449" y="800" type="line"/>
			<point x="513" y="800" type="line"/>
			<point x="513" y="855" type="line"/>
			<point x="337" y="855" type="line"/>
			<point x="337" y="800" type="line"/>
		</contour>
	</outline>
</glyph>
<glyph name="Q.sups" format="2">
	<advance width="574"/>
	<outline>
		<contour>
			<point x="366" y="261" type="curve" smooth="yes"/>
			<point x="437" y="261"/>
			<point x="474" y="278"/>
			<point x="493" y="289" type="curve"/>
			<point x="474" y="339" type="line"/>
			<point x="462" y="333"/>
			<point x="443" y="328"/>
			<point x="421" y="328" type="curve" smooth="yes"/>
			<point x="363" y="328"/>
			<point x="348" y="367"/>
			<point x="353" y="432" type="curve"/>
			<point x="220" y="432" type="line"/>
			<point x="219" y="422" type="line" smooth="yes"/>
			<point x="212" y="304"/>
			<point x="276" y="261"/>
		</contour>
		<component base="O.sups"/>
	</outline>
</glyph>
<glyph name="S.sups" format="2">
	<advance width="457"/>
	<outline>
		<contour>
			<point x="200" y="393" type="curve" smooth="yes"/>
			<point x="326" y="393"/>
			<point x="415" y="445"/>
			<point x="415" y="541" type="curve" smooth="yes"/>
			<point x="415" y="625"/>
			<point x="351" y="661"/>
			<point x="259" y="695" type="curve" smooth="yes"/>
			<point x="248" y="698" type="line" smooth="yes"/>
			<point x="192" y="718"/>
			<point x="172" y="733"/>
			<point x="172" y="760" type="curve" smooth="yes"/>
			<point x="172" y="788"/>
			<point x="195" y="805"/>
			<point x="242" y="805" type="curve" smooth="yes"/>
			<point x="290" y="805"/>
			<point x="317" y="795"/>
			<point x="345" y="782" type="curve"/>
			<point x="345" y="819" type="line"/>
			<point x="297" y="819" type="line"/>
			<point x="320" y="722" type="line"/>
			<point x="379" y="722" type="line"/>
			<point x="379" y="831" type="line"/>
			<point x="351" y="842"/>
			<point x="301" y="855"/>
			<point x="231" y="855" type="curve" smooth="yes"/>
			<point x="128" y="855"/>
			<point x="39" y="809"/>
			<point x="39" y="714" type="curve" smooth="yes"/>
			<point x="39" y="631"/>
			<point x="103" y="595"/>
			<point x="195" y="561" type="curve" smooth="yes"/>
			<point x="206" y="557" type="line" smooth="yes"/>
			<point x="262" y="537"/>
			<point x="281" y="526"/>
			<point x="281" y="496" type="curve" smooth="yes"/>
			<point x="281" y="466"/>
			<point x="259" y="446"/>
			<point x="195" y="446" type="curve" smooth="yes"/>
			<point x="145" y="446"/>
			<point x="106" y="456"/>
			<point x="78" y="471" type="curve"/>
			<point x="78" y="431" type="line"/>
			<point x="124" y="431" type="line"/>
			<point x="100" y="534" type="line"/>
			<point x="39" y="534" type="line"/>
			<point x="39" y="419" type="line"/>
			<point x="78" y="403"/>
			<point x="139" y="393"/>
		</contour>
	</outline>
</glyph>
<glyph name="Schwa.sc" format="2">
	<advance width="670"/>
	<outline>
		<contour>
			<point x="331" y="-14" type="curve" smooth="yes"/>
			<point x="495" y="-14"/>
			<point x="618" y="71"/>
			<point x="618" y="290" type="curve" smooth="yes"/>
			<point x="618" y="489"/>
			<point x="483" y="570"/>
			<point x="313" y="570" type="curve" smooth="yes"/>
			<point x="218" y="570"/>
			<point x="143" y="539"/>
			<point x="88" y="470" type="curve"/>
			<point x="128" y="422" type="line"/>
			<point x="166" y="455"/>
			<point x="205" y="468"/>
			<point x="257" y="468" type="curve" smooth="yes"/>
			<point x="350" y="468"/>
			<point x="411" y="425"/>
			<point x="411" y="267" type="curve" smooth="yes"/>
			<point x="411" y="110"/>
			<point x="383" y="60"/>
			<point x="331" y="60" type="curve" smooth="yes"/>
			<point x="280" y="60"/>
			<point x="252" y="103"/>
			<point x="252" y="187" type="curve" smooth="yes"/>
			<point x="252" y="209"/>
			<point x="254" y="231"/>
			<point x="257" y="247" type="curve"/>
			<point x="515" y="247" type="line"/>
			<point x="515" y="318" type="line"/>
			<point x="59" y="318" type="line"/>
			<point x="55" y="306"/>
			<point x="52" y="280"/>
			<point x="52" y="246" type="curve" smooth="yes"/>
			<point x="52" y="60"/>
			<point x="168" y="-14"/>
		</contour>
	</outline>
	<anchor name="aboveUC" x="331" y="576"/>
	<anchor name="belowLC" x="340" y="-20"/>
</glyph>
<glyph name="Schwacyr.sc" format="2">
	<advance width="670"/>
	<outline>
		<contour>
			<point x="331" y="-14" type="curve" smooth="yes"/>
			<point x="495" y="-14"/>
			<point x="618" y="80"/>
			<point x="618" y="283" type="curve" smooth="yes"/>
			<point x="618" y="486"/>
			<point x="480" y="570"/>
			<point x="294" y="570" type="curve" smooth="yes"/>
			<point x="203" y="570"/>
			<point x="147" y="549"/>
			<point x="89" y="520" type="curve"/>
			<point x="82" y="378" type="line"/>
			<point x="159" y="378" type="line"/>
			<point x="210" y="531" type="line"/>
			<point x="128" y="449" type="line"/>
			<point x="159" y="458"/>
			<point x="199" y="469"/>
			<point x="249" y="469" type="curve" smooth="yes"/>
			<point x="366" y="469"/>
			<point x="411" y="426"/>
			<point x="411" y="272" type="curve" smooth="yes"/>
			<point x="411" y="110"/>
			<point x="383" y="60"/>
			<point x="331" y="60" type="curve" smooth="yes"/>
			<point x="280" y="60"/>
			<point x="252" y="103"/>
			<point x="252" y="187" type="curve" smooth="yes"/>
			<point x="252" y="209"/>
			<point x="254" y="231"/>
			<point x="257" y="245" type="curve"/>
			<point x="515" y="249" type="line"/>
			<point x="515" y="316" type="line"/>
			<point x="59" y="320" type="line"/>
			<point x="55" y="306"/>
			<point x="52" y="280"/>
			<point x="52" y="246" type="curve" smooth="yes"/>
			<point x="52" y="60"/>
			<point x="168" y="-14"/>
		</contour>
	</outline>
</glyph>
<glyph name="Shha.sc" format="2">
	<advance width="711"/>
	<outline>
		<contour>
			<point x="38" y="0" type="line"/>
			<point x="347" y="0" type="line"/>
			<point x="347" y="73" type="line"/>
			<point x="261" y="73" type="line"/>
			<point x="150" y="73" type="line"/>
			<point x="38" y="73" type="line"/>
		</contour>
		<contour>
			<point x="106" y="0" type="curve"/>
			<point x="306" y="0" type="line"/>
			<point x="306" y="79"/>
			<point x="306" y="157"/>
			<point x="306" y="237" type="curve" smooth="yes"/>
			<point x="306" y="319" type="line" smooth="yes"/>
			<point x="306" y="398"/>
			<point x="306" y="477"/>
			<point x="306" y="556" type="curve"/>
			<point x="106" y="556" type="line"/>
			<point x="106" y="477"/>
			<point x="106" y="398"/>
			<point x="106" y="319" type="curve" smooth="yes"/>
			<point x="106" y="237" type="line" smooth="yes"/>
			<point x="106" y="157"/>
			<point x="106" y="79"/>
		</contour>
		<contour>
			<point x="150" y="483" type="line"/>
			<point x="261" y="483" type="line"/>
			<point x="388" y="483" type="line"/>
			<point x="388" y="556" type="line"/>
			<point x="38" y="556" type="line"/>
			<point x="38" y="483" type="line"/>
		</contour>
		<contour>
			<point x="386" y="0" type="line"/>
			<point x="688" y="0" type="line"/>
			<point x="688" y="73" type="line"/>
			<point x="583" y="73" type="line"/>
			<point x="471" y="73" type="line"/>
			<point x="386" y="73" type="line"/>
		</contour>
		<contour>
			<point x="427" y="0" type="curve"/>
			<point x="631" y="0" type="line"/>
			<point x="631" y="209" type="line" smooth="yes"/>
			<point x="631" y="305"/>
			<point x="566" y="345"/>
			<point x="429" y="345" type="curve" smooth="yes"/>
			<point x="349" y="345"/>
			<point x="291" y="334"/>
			<point x="254" y="325" type="curve"/>
			<point x="254" y="257" type="line"/>
			<point x="284" y="273"/>
			<point x="312" y="278"/>
			<point x="347" y="278" type="curve" smooth="yes"/>
			<point x="407" y="278"/>
			<point x="427" y="252"/>
			<point x="427" y="206" type="curve" smooth="yes"/>
			<point x="427" y="138"/>
			<point x="427" y="69"/>
		</contour>
	</outline>
</glyph>
<glyph name="T.sups" format="2">
	<advance width="524"/>
	<outline>
		<contour>
			<point x="124" y="404" type="line"/>
			<point x="399" y="404" type="line"/>
			<point x="399" y="459" type="line"/>
			<point x="300" y="459" type="line"/>
			<point x="216" y="459" type="line"/>
			<point x="124" y="459" type="line"/>
		</contour>
		<contour>
			<point x="186" y="404" type="line"/>
			<point x="337" y="404" type="line"/>
			<point x="337" y="844" type="line"/>
			<point x="186" y="844" type="line"/>
		</contour>
		<contour>
			<point x="30" y="705" type="line"/>
			<point x="89" y="705" type="line"/>
			<point x="114" y="825" type="line"/>
			<point x="80" y="792" type="line"/>
			<point x="443" y="792" type="line"/>
			<point x="409" y="825" type="line"/>
			<point x="435" y="705" type="line"/>
			<point x="493" y="705" type="line"/>
			<point x="490" y="844" type="line"/>
			<point x="33" y="844" type="line"/>
		</contour>
	</outline>
</glyph>
<glyph name="U.sups" format="2">
	<advance width="559"/>
	<outline>
		<contour>
			<point x="111" y="789" type="line"/>
			<point x="195" y="789" type="line"/>
			<point x="287" y="789" type="line"/>
			<point x="287" y="844" type="line"/>
			<point x="25" y="844" type="line"/>
			<point x="25" y="789" type="line"/>
		</contour>
		<contour>
			<point x="281" y="393" type="curve" smooth="yes"/>
			<point x="415" y="393"/>
			<point x="482" y="455"/>
			<point x="482" y="571" type="curve" smooth="yes"/>
			<point x="482" y="844" type="line"/>
			<point x="423" y="844" type="line"/>
			<point x="423" y="574" type="line" smooth="yes"/>
			<point x="423" y="488"/>
			<point x="387" y="454"/>
			<point x="326" y="454" type="curve" smooth="yes"/>
			<point x="265" y="454"/>
			<point x="228" y="488"/>
			<point x="228" y="574" type="curve" smooth="yes"/>
			<point x="228" y="844" type="line"/>
			<point x="78" y="844" type="line"/>
			<point x="78" y="572" type="line" smooth="yes"/>
			<point x="78" y="444"/>
			<point x="159" y="393"/>
		</contour>
		<contour>
			<point x="365" y="789" type="line"/>
			<point x="446" y="789" type="line"/>
			<point x="460" y="789" type="line"/>
			<point x="535" y="789" type="line"/>
			<point x="535" y="844" type="line"/>
			<point x="365" y="844" type="line"/>
		</contour>
	</outline>
</glyph>
<glyph name="Uhorn.sc" format="2">
	<advance width="780"/>
	<outline>
		<contour>
			<point x="361" y="-14" type="curve" smooth="yes"/>
			<point x="536" y="-14"/>
			<point x="623" y="63"/>
			<point x="623" y="210" type="curve" smooth="yes"/>
			<point x="623" y="556" type="line"/>
			<point x="546" y="556" type="line"/>
			<point x="546" y="213" type="line" smooth="yes"/>
			<point x="546" y="109"/>
			<point x="500" y="69"/>
			<point x="421" y="69" type="curve" smooth="yes"/>
			<point x="343" y="69"/>
			<point x="296" y="109"/>
			<point x="296" y="213" type="curve" smooth="yes"/>
			<point x="296" y="319" type="line" smooth="yes"/>
			<point x="296" y="398"/>
			<point x="296" y="477"/>
			<point x="296" y="556" type="curve"/>
			<point x="96" y="556" type="line"/>
			<point x="96" y="477"/>
			<point x="96" y="398"/>
			<point x="96" y="319" type="curve" smooth="yes"/>
			<point x="96" y="213" type="line" smooth="yes"/>
			<point x="96" y="47"/>
			<point x="202" y="-14"/>
		</contour>
		<contour>
			<point x="601" y="492" type="line"/>
			<point x="678" y="487"/>
			<point x="733" y="551"/>
			<point x="733" y="629" type="curve" smooth="yes"/>
			<point x="733" y="657"/>
			<point x="729" y="676"/>
			<point x="722" y="701" type="curve"/>
			<point x="713" y="705"/>
			<point x="700" y="709"/>
			<point x="678" y="709" type="curve" smooth="yes"/>
			<point x="637" y="709"/>
			<point x="608" y="687"/>
			<point x="608" y="649" type="curve" smooth="yes"/>
			<point x="608" y="613"/>
			<point x="637" y="602"/>
			<point x="637" y="578" type="curve" smooth="yes"/>
			<point x="637" y="559"/>
			<point x="617" y="556"/>
			<point x="579" y="556" type="curve"/>
		</contour>
		<contour>
			<point x="29" y="483" type="line"/>
			<point x="141" y="483" type="line"/>
			<point x="252" y="483" type="line"/>
			<point x="371" y="483" type="line"/>
			<point x="371" y="556" type="line"/>
			<point x="29" y="556" type="line"/>
		</contour>
		<contour>
			<point x="472" y="483" type="line"/>
			<point x="561" y="483" type="line"/>
			<point x="575" y="483" type="line"/>
			<point x="575" y="556" type="line"/>
			<point x="472" y="556" type="line"/>
		</contour>
	</outline>
	<anchor name="aboveUC" x="410" y="576"/>
	<anchor name="belowLC" x="387" y="-20"/>
</glyph>
<glyph name="V.sups" format="2">
	<advance width="534"/>
	<outline>
		<contour>
			<point x="16" y="800" type="line"/>
			<point x="94" y="800" type="line"/>
			<point x="181" y="800" type="line"/>
			<point x="273" y="800" type="line"/>
			<point x="273" y="855" type="line"/>
			<point x="16" y="855" type="line"/>
		</contour>
		<contour>
			<point x="357" y="800" type="line"/>
			<point x="423" y="800" type="line"/>
			<point x="454" y="800" type="line"/>
			<point x="518" y="800" type="line"/>
			<point x="518" y="855" type="line"/>
			<point x="357" y="855" type="line"/>
		</contour>
		<contour>
			<point x="213" y="415" type="line"/>
			<point x="337" y="415" type="line"/>
			<point x="493" y="855" type="line"/>
			<point x="429" y="855" type="line"/>
			<point x="373" y="685" type="line"/>
			<point x="327" y="477" type="line"/>
			<point x="319" y="477" type="line"/>
			<point x="199" y="855" type="line"/>
			<point x="41" y="855" type="line"/>
		</contour>
	</outline>
</glyph>
<glyph name="W.sups" format="2">
	<advance width="769"/>
	<outline>
		<contour>
			<point x="172" y="404" type="line"/>
			<point x="292" y="404" type="line"/>
			<point x="352" y="596" type="line"/>
			<point x="383" y="739" type="line"/>
			<point x="391" y="739" type="line"/>
			<point x="464" y="404" type="line"/>
			<point x="584" y="404" type="line"/>
			<point x="727" y="844" type="line"/>
			<point x="663" y="844" type="line"/>
			<point x="615" y="661" type="line"/>
			<point x="572" y="474" type="line"/>
			<point x="564" y="474" type="line"/>
			<point x="476" y="844" type="line"/>
			<point x="380" y="844" type="line"/>
			<point x="310" y="620" type="line"/>
			<point x="276" y="472" type="line"/>
			<point x="269" y="472" type="line"/>
			<point x="193" y="844" type="line"/>
			<point x="41" y="844" type="line"/>
		</contour>
		<contour>
			<point x="16" y="789" type="line"/>
			<point x="83" y="789" type="line"/>
			<point x="184" y="789" type="line"/>
			<point x="258" y="789" type="line"/>
			<point x="258" y="844" type="line"/>
			<point x="16" y="844" type="line"/>
		</contour>
		<contour>
			<point x="313" y="789" type="line"/>
			<point x="391" y="789" type="line"/>
			<point x="485" y="789" type="line"/>
			<point x="546" y="789" type="line"/>
			<point x="546" y="844" type="line"/>
			<point x="313" y="844" type="line"/>
		</contour>
		<contour>
			<point x="596" y="789" type="line"/>
			<point x="672" y="789" type="line"/>
			<point x="688" y="789" type="line"/>
			<point x="752" y="789" type="line"/>
			<point x="752" y="844" type="line"/>
			<point x="596" y="844" type="line"/>
		</contour>
	</outline>
</glyph>
<glyph name="X.sc" format="2">
	<advance width="662"/>
	<outline>
		<contour>
			<point x="14" y="0" type="line"/>
			<point x="230" y="0" type="line"/>
			<point x="230" y="73" type="line"/>
			<point x="144" y="73" type="line"/>
			<point x="122" y="73" type="line"/>
			<point x="14" y="73" type="line"/>
		</contour>
		<contour>
			<point x="23" y="0" type="line"/>
			<point x="115" y="0" type="line"/>
			<point x="204" y="139" type="line"/>
			<point x="251" y="226" type="line"/>
			<point x="313" y="226" type="line"/>
			<point x="244" y="300" type="line"/>
		</contour>
		<contour>
			<point x="118" y="483" type="line"/>
			<point x="245" y="483" type="line"/>
			<point x="349" y="483" type="line"/>
			<point x="349" y="556" type="line"/>
			<point x="14" y="556" type="line"/>
			<point x="14" y="483" type="line"/>
		</contour>
		<contour>
			<point x="309" y="0" type="line"/>
			<point x="649" y="0" type="line"/>
			<point x="649" y="73" type="line"/>
			<point x="536" y="73" type="line"/>
			<point x="414" y="73" type="line"/>
			<point x="309" y="73" type="line"/>
		</contour>
		<contour>
			<point x="389" y="255" type="line"/>
			<point x="609" y="556" type="line"/>
			<point x="519" y="556" type="line"/>
			<point x="443" y="440" type="line"/>
			<point x="398" y="354" type="line"/>
			<point x="326" y="354" type="line"/>
		</contour>
		<contour>
			<point x="421" y="0" type="line"/>
			<point x="635" y="0" type="line"/>
			<point x="241" y="556" type="line"/>
			<point x="27" y="556" type="line"/>
		</contour>
		<contour>
			<point x="489" y="483" type="line"/>
			<point x="517" y="483" type="line"/>
			<point x="619" y="483" type="line"/>
			<point x="619" y="556" type="line"/>
			<point x="406" y="556" type="line"/>
			<point x="406" y="483" type="line"/>
		</contour>
	</outline>
	<anchor name="aboveUC" x="343" y="576"/>
	<anchor name="belowLC" x="287" y="-20"/>
</glyph>
<glyph name="Y.sups" format="2">
	<advance width="512"/>
	<outline>
		<contour>
			<point x="191" y="546" type="line"/>
			<point x="322" y="546" type="line"/>
			<point x="482" y="844" type="line"/>
			<point x="412" y="844" type="line"/>
			<point x="356" y="724" type="line"/>
			<point x="315" y="610" type="line"/>
			<point x="300" y="610" type="line"/>
			<point x="203" y="844" type="line"/>
			<point x="30" y="844" type="line"/>
		</contour>
		<contour>
			<point x="16" y="789" type="line"/>
			<point x="94" y="789" type="line"/>
			<point x="198" y="789" type="line"/>
			<point x="284" y="789" type="line"/>
			<point x="284" y="844" type="line"/>
			<point x="16" y="844" type="line"/>
		</contour>
		<contour>
			<point x="122" y="404" type="line"/>
			<point x="390" y="404" type="line"/>
			<point x="390" y="459" type="line"/>
			<point x="298" y="459" type="line"/>
			<point x="214" y="459" type="line"/>
			<point x="122" y="459" type="line"/>
		</contour>
		<contour>
			<point x="331" y="789" type="line"/>
			<point x="407" y="789" type="line"/>
			<point x="426" y="789" type="line"/>
			<point x="496" y="789" type="line"/>
			<point x="496" y="844" type="line"/>
			<point x="331" y="844" type="line"/>
		</contour>
		<contour>
			<point x="181" y="404" type="line"/>
			<point x="331" y="404" type="line"/>
			<point x="331" y="616" type="line"/>
			<point x="181" y="616" type="line"/>
		</contour>
	</outline>
</glyph>
<glyph name="Yeru.sc" format="2">
	<advance width="1025"/>
	<outline>
		<contour>
			<point x="242" y="0" type="line"/>
			<point x="329" y="0" type="line" smooth="yes"/>
			<point x="537" y="0"/>
			<point x="627" y="71"/>
			<point x="627" y="176" type="curve" smooth="yes"/>
			<point x="627" y="280"/>
			<point x="537" y="341"/>
			<point x="351" y="341" type="curve" smooth="yes"/>
			<point x="308" y="341"/>
			<point x="264" y="334"/>
			<point x="243" y="327" type="curve"/>
			<point x="243" y="257" type="line"/>
			<point x="264" y="264"/>
			<point x="285" y="271"/>
			<point x="321" y="271" type="curve" smooth="yes"/>
			<point x="396" y="271"/>
			<point x="424" y="239"/>
			<point x="424" y="172" type="curve" smooth="yes"/>
			<point x="424" y="106"/>
			<point x="396" y="65"/>
			<point x="314" y="65" type="curve" smooth="yes"/>
			<point x="242" y="65" type="line"/>
		</contour>
		<contour>
			<point x="101" y="0" type="curve"/>
			<point x="301" y="0" type="line"/>
			<point x="301" y="79"/>
			<point x="301" y="157"/>
			<point x="301" y="237" type="curve" smooth="yes"/>
			<point x="301" y="319" type="line" smooth="yes"/>
			<point x="301" y="398"/>
			<point x="301" y="477"/>
			<point x="301" y="556" type="curve"/>
			<point x="101" y="556" type="line"/>
			<point x="101" y="477"/>
			<point x="101" y="398"/>
			<point x="101" y="319" type="curve" smooth="yes"/>
			<point x="101" y="237" type="line" smooth="yes"/>
			<point x="101" y="157"/>
			<point x="101" y="79"/>
		</contour>
		<contour>
			<point x="724" y="0" type="curve"/>
			<point x="924" y="0" type="line"/>
			<point x="924" y="79"/>
			<point x="924" y="157"/>
			<point x="924" y="237" type="curve" smooth="yes"/>
			<point x="924" y="319" type="line" smooth="yes"/>
			<point x="924" y="398"/>
			<point x="924" y="477"/>
			<point x="924" y="556" type="curve"/>
			<point x="724" y="556" type="line"/>
			<point x="724" y="477"/>
			<point x="724" y="398"/>
			<point x="724" y="319" type="curve" smooth="yes"/>
			<point x="724" y="237" type="line" smooth="yes"/>
			<point x="724" y="157"/>
			<point x="724" y="79"/>
		</contour>
		<contour>
			<point x="33" y="483" type="line"/>
			<point x="152" y="483" type="line"/>
			<point x="264" y="483" type="line"/>
			<point x="383" y="483" type="line"/>
			<point x="383" y="556" type="line"/>
			<point x="33" y="556" type="line"/>
		</contour>
		<contour>
			<point x="663" y="0" type="line"/>
			<point x="991" y="0" type="line"/>
			<point x="991" y="73" type="line"/>
			<point x="880" y="73" type="line"/>
			<point x="768" y="73" type="line"/>
			<point x="663" y="73" type="line"/>
		</contour>
		<contour>
			<point x="656" y="483" type="line"/>
			<point x="768" y="483" type="line"/>
			<point x="880" y="483" type="line"/>
			<point x="991" y="483" type="line"/>
			<point x="991" y="556" type="line"/>
			<point x="656" y="556" type="line"/>
		</contour>
		<contour>
			<point x="33" y="0" type="line"/>
			<point x="160" y="0" type="line"/>
			<point x="160" y="73" type="line"/>
			<point x="146" y="73" type="line"/>
			<point x="33" y="73" type="line"/>
		</contour>
	</outline>
	<anchor name="aboveUC" x="513" y="576"/>
</glyph>
<glyph name="Z.sc" format="2">
	<advance width="593"/>
	<outline>
		<contour>
			<point x="33" y="0" type="line"/>
			<point x="567" y="0" type="line"/>
			<point x="570" y="179" type="line"/>
			<point x="493" y="179" type="line"/>
			<point x="452" y="25" type="line"/>
			<point x="504" y="65" type="line"/>
			<point x="384" y="65" type="line"/>
			<point x="250" y="45" type="line"/>
			<point x="250" y="75" type="line"/>
			<point x="244" y="57" type="line"/>
			<point x="560" y="496" type="line"/>
			<point x="560" y="556" type="line"/>
			<point x="47" y="556" type="line"/>
			<point x="44" y="377" type="line"/>
			<point x="121" y="377" type="line"/>
			<point x="163" y="531" type="line"/>
			<point x="110" y="491" type="line"/>
			<point x="218" y="491" type="line"/>
			<point x="342" y="511" type="line"/>
			<point x="342" y="481" type="line"/>
			<point x="348" y="499" type="line"/>
			<point x="33" y="60" type="line"/>
		</contour>
	</outline>
	<anchor name="aboveUC" x="294" y="576"/>
	<anchor name="belowLC" x="308" y="-20"/>
</glyph>
<glyph name="Zhe.sc" format="2">
	<advance width="1038"/>
	<outline>
		<contour>
			<point x="366" y="0" type="line"/>
			<point x="672" y="0" type="line"/>
			<point x="672" y="73" type="line"/>
			<point x="575" y="73" type="line"/>
			<point x="463" y="73" type="line"/>
			<point x="366" y="73" type="line"/>
		</contour>
		<contour>
			<point x="366" y="483" type="line"/>
			<point x="463" y="483" type="line"/>
			<point x="575" y="483" type="line"/>
			<point x="672" y="483" type="line"/>
			<point x="672" y="556" type="line"/>
			<point x="366" y="556" type="line"/>
		</contour>
		<contour>
			<point x="419" y="0" type="curve"/>
			<point x="619" y="0" type="line"/>
			<point x="619" y="79"/>
			<point x="619" y="157"/>
			<point x="619" y="258" type="curve" smooth="yes"/>
			<point x="619" y="308" type="line" smooth="yes"/>
			<point x="619" y="398"/>
			<point x="619" y="477"/>
			<point x="619" y="556" type="curve"/>
			<point x="419" y="556" type="line"/>
			<point x="419" y="477"/>
			<point x="419" y="398"/>
			<point x="419" y="308" type="curve" smooth="yes"/>
			<point x="419" y="258" type="line" smooth="yes"/>
			<point x="419" y="157"/>
			<point x="419" y="79"/>
		</contour>
		<contour>
			<point x="732" y="113" type="line" smooth="yes"/>
			<point x="743" y="27"/>
			<point x="794" y="-11"/>
			<point x="897" y="-11" type="curve" smooth="yes"/>
			<point x="949" y="-11"/>
			<point x="989" y="-3"/>
			<point x="1011" y="0" type="curve"/>
			<point x="1011" y="70" type="line"/>
			<point x="842" y="86" type="line"/>
			<point x="946" y="14" type="line"/>
			<point x="922" y="149" type="line" smooth="yes"/>
			<point x="904" y="259"/>
			<point x="846" y="278"/>
			<point x="695" y="275" type="curve"/>
			<point x="695" y="293" type="line"/>
			<point x="753" y="306"/>
			<point x="775" y="327"/>
			<point x="796" y="370" type="curve" smooth="yes"/>
			<point x="810" y="389"/>
			<point x="824" y="424"/>
			<point x="856" y="461" type="curve"/>
			<point x="776" y="469" type="line"/>
			<point x="798" y="446"/>
			<point x="826" y="414"/>
			<point x="885" y="414" type="curve" smooth="yes"/>
			<point x="944" y="414"/>
			<point x="973" y="444"/>
			<point x="973" y="490" type="curve" smooth="yes"/>
			<point x="973" y="537"/>
			<point x="929" y="559"/>
			<point x="896" y="566" type="curve"/>
			<point x="817" y="554"/>
			<point x="774" y="516"/>
			<point x="738" y="418" type="curve" smooth="yes"/>
			<point x="709" y="332"/>
			<point x="680" y="318"/>
			<point x="634" y="318" type="curve" smooth="yes"/>
			<point x="538" y="318" type="line"/>
			<point x="538" y="250" type="line"/>
			<point x="641" y="250" type="line" smooth="yes"/>
			<point x="694" y="250"/>
			<point x="715" y="240"/>
			<point x="722" y="188" type="curve" smooth="yes"/>
		</contour>
		<contour>
			<point x="306" y="113" type="curve" smooth="yes"/>
			<point x="316" y="188" type="line" smooth="yes"/>
			<point x="323" y="240"/>
			<point x="344" y="250"/>
			<point x="397" y="250" type="curve" smooth="yes"/>
			<point x="500" y="250" type="line"/>
			<point x="500" y="318" type="line"/>
			<point x="404" y="318" type="line" smooth="yes"/>
			<point x="358" y="318"/>
			<point x="329" y="332"/>
			<point x="300" y="418" type="curve" smooth="yes"/>
			<point x="265" y="516"/>
			<point x="221" y="554"/>
			<point x="142" y="566" type="curve"/>
			<point x="109" y="559"/>
			<point x="65" y="537"/>
			<point x="65" y="490" type="curve" smooth="yes"/>
			<point x="65" y="444"/>
			<point x="94" y="414"/>
			<point x="153" y="414" type="curve" smooth="yes"/>
			<point x="212" y="414"/>
			<point x="241" y="446"/>
			<point x="262" y="469" type="curve"/>
			<point x="182" y="461" type="line"/>
			<point x="214" y="424"/>
			<point x="228" y="389"/>
			<point x="242" y="370" type="curve" smooth="yes"/>
			<point x="263" y="327"/>
			<point x="285" y="306"/>
			<point x="344" y="293" type="curve"/>
			<point x="344" y="275" type="line"/>
			<point x="192" y="278"/>
			<point x="134" y="259"/>
			<point x="116" y="149" type="curve" smooth="yes"/>
			<point x="92" y="14" type="line"/>
			<point x="196" y="86" type="line"/>
			<point x="27" y="70" type="line"/>
			<point x="27" y="0" type="line"/>
			<point x="49" y="-3"/>
			<point x="89" y="-11"/>
			<point x="141" y="-11" type="curve" smooth="yes"/>
			<point x="244" y="-11"/>
			<point x="296" y="27"/>
		</contour>
	</outline>
	<anchor name="aboveUC" x="519" y="576"/>
</glyph>
<glyph name="ampersand.sc" format="2">
	<advance width="749"/>
	<outline>
		<contour>
			<point x="208" y="-16" type="curve" smooth="yes"/>
			<point x="314" y="-16"/>
			<point x="351" y="29"/>
			<point x="377" y="62" type="curve"/>
			<point x="416" y="62" type="line"/>
			<point x="416" y="99" type="line"/>
			<point x="398" y="92"/>
			<point x="366" y="80"/>
			<point x="316" y="80" type="curve" smooth="yes"/>
			<point x="244" y="80"/>
			<point x="205" y="115"/>
			<point x="205" y="171" type="curve" smooth="yes"/>
			<point x="205" y="220"/>
			<point x="225" y="246"/>
			<point x="259" y="280" type="curve"/>
			<point x="237" y="289" type="line"/>
			<point x="186" y="233" type="line"/>
			<point x="89" y="233"/>
			<point x="46" y="186"/>
			<point x="46" y="104" type="curve" smooth="yes"/>
			<point x="46" y="40"/>
			<point x="114" y="-16"/>
		</contour>
		<contour>
			<point x="511" y="128" type="line"/>
			<point x="595" y="192"/>
			<point x="639" y="253"/>
			<point x="653" y="344" type="curve"/>
			<point x="558" y="344" type="line"/>
			<point x="552" y="272"/>
			<point x="548" y="222"/>
			<point x="534" y="176" type="curve"/>
			<point x="512" y="176" type="line"/>
		</contour>
		<contour>
			<point x="486" y="280" type="line"/>
			<point x="564" y="280" type="line"/>
			<point x="616" y="280" type="line"/>
			<point x="700" y="280" type="line"/>
			<point x="700" y="344" type="line"/>
			<point x="486" y="344" type="line"/>
		</contour>
		<contour>
			<point x="590" y="-16" type="curve" smooth="yes"/>
			<point x="642" y="-16"/>
			<point x="686" y="-3"/>
			<point x="700" y="0" type="curve"/>
			<point x="700" y="73" type="line"/>
			<point x="547" y="92" type="line"/>
			<point x="641" y="62" type="line"/>
			<point x="580" y="116"/>
			<point x="507" y="178"/>
			<point x="457" y="226" type="curve" smooth="yes"/>
			<point x="430" y="252"/>
			<point x="403" y="276"/>
			<point x="377" y="302" type="curve" smooth="yes"/>
			<point x="308" y="378"/>
			<point x="286" y="414"/>
			<point x="286" y="460" type="curve" smooth="yes"/>
			<point x="286" y="493"/>
			<point x="303" y="511"/>
			<point x="333" y="511" type="curve" smooth="yes"/>
			<point x="363" y="511"/>
			<point x="381" y="492"/>
			<point x="381" y="456" type="curve" smooth="yes"/>
			<point x="381" y="416"/>
			<point x="368" y="383"/>
			<point x="332" y="335" type="curve"/>
			<point x="352" y="318" type="line"/>
			<point x="374" y="345" type="line"/>
			<point x="463" y="359"/>
			<point x="503" y="396"/>
			<point x="503" y="456" type="curve" smooth="yes"/>
			<point x="503" y="528"/>
			<point x="437" y="570"/>
			<point x="331" y="570" type="curve" smooth="yes"/>
			<point x="214" y="570"/>
			<point x="134" y="502"/>
			<point x="134" y="407" type="curve" smooth="yes"/>
			<point x="134" y="314"/>
			<point x="172" y="272"/>
			<point x="208" y="235" type="curve" smooth="yes"/>
			<point x="237" y="205"/>
			<point x="269" y="177"/>
			<point x="300" y="149" type="curve" smooth="yes"/>
			<point x="328" y="122"/>
			<point x="358" y="97"/>
			<point x="386" y="70" type="curve" smooth="yes"/>
			<point x="459" y="0"/>
			<point x="512" y="-16"/>
		</contour>
	</outline>
</glyph>
<glyph name="bracketleft.sc" format="2">
	<advance width="426"/>
	<outline>
		<contour>
			<point x="130" y="-114" type="curve"/>
			<point x="271" y="-114" type="line"/>
			<point x="271" y="-22"/>
			<point x="271" y="69"/>
			<point x="271" y="160" type="curve" smooth="yes"/>
			<point x="271" y="366" type="line" smooth="yes"/>
			<point x="271" y="458"/>
			<point x="271" y="549"/>
			<point x="271" y="640" type="curve"/>
			<point x="130" y="640" type="line"/>
			<point x="130" y="549"/>
			<point x="130" y="458"/>
			<point x="130" y="366" type="curve" smooth="yes"/>
			<point x="130" y="160" type="line" smooth="yes"/>
			<point x="130" y="69"/>
			<point x="130" y="-22"/>
		</contour>
		<contour>
			<point x="197" y="-114" type="line"/>
			<point x="361" y="-114" type="line"/>
			<point x="361" y="-31" type="line"/>
			<point x="219" y="-31" type="line"/>
			<point x="197" y="-31" type="line"/>
		</contour>
		<contour>
			<point x="197" y="558" type="line"/>
			<point x="219" y="558" type="line"/>
			<point x="361" y="558" type="line"/>
			<point x="361" y="640" type="line"/>
			<point x="197" y="640" type="line"/>
		</contour>
	</outline>
</glyph>
<glyph name="brevetilde.cap" format="2">
	<outline>
		<contour>
			<point x="-188" y="892" type="curve"/>
			<point x="-128" y="872" type="line"/>
			<point x="-117" y="904"/>
			<point x="-100" y="920"/>
			<point x="-76" y="920" type="curve" smooth="yes"/>
			<point x="-52" y="920"/>
			<point x="-30" y="908"/>
			<point x="-8" y="896" type="curve" smooth="yes"/>
			<point x="14" y="884"/>
			<point x="40" y="872"/>
			<point x="72" y="872" type="curve" smooth="yes"/>
			<point x="136" y="872"/>
			<point x="173" y="916"/>
			<point x="188" y="1004" type="curve"/>
			<point x="128" y="1024" type="line"/>
			<point x="117" y="992"/>
			<point x="100" y="976"/>
			<point x="76" y="976" type="curve" smooth="yes"/>
			<point x="52" y="976"/>
			<point x="30" y="988"/>
			<point x="8" y="1000" type="curve" smooth="yes"/>
			<point x="-14" y="1012"/>
			<point x="-40" y="1024"/>
			<point x="-72" y="1024" type="curve" smooth="yes"/>
			<point x="-136" y="1024"/>
			<point x="-173" y="980"/>
		</contour>
		<contour>
			<point x="0" y="696" type="curve" smooth="yes"/>
			<point x="104" y="696"/>
			<point x="152" y="752"/>
			<point x="172" y="828" type="curve"/>
			<point x="100" y="848" type="line"/>
			<point x="88" y="816"/>
			<point x="56" y="784"/>
			<point x="0" y="784" type="curve" smooth="yes"/>
			<point x="-56" y="784"/>
			<point x="-88" y="816"/>
			<point x="-100" y="848" type="curve"/>
			<point x="-172" y="828" type="line"/>
			<point x="-152" y="752"/>
			<point x="-104" y="696"/>
		</contour>
	</outline>
	<anchor name="_aboveUC" x="0" y="672"/>
</glyph>
<glyph name="che.bgr" format="2">
	<advance width="724"/>
	<outline>
		<contour>
			<point x="264" y="189" type="curve" smooth="yes"/>
			<point x="340" y="189"/>
			<point x="424" y="205"/>
			<point x="468" y="221" type="curve"/>
			<point x="468" y="277" type="line"/>
			<point x="444" y="269"/>
			<point x="412" y="261"/>
			<point x="360" y="261" type="curve" smooth="yes"/>
			<point x="304" y="261"/>
			<point x="280" y="277"/>
			<point x="280" y="333" type="curve" smooth="yes"/>
			<point x="280" y="370" type="line"/>
			<point x="280" y="516" type="line"/>
			<point x="216" y="516" type="line"/>
			<point x="27" y="486" type="line"/>
			<point x="27" y="422" type="line"/>
			<point x="84" y="405" type="line"/>
			<point x="84" y="388"/>
			<point x="82" y="365"/>
			<point x="82" y="333" type="curve" smooth="yes"/>
			<point x="82" y="225"/>
			<point x="120" y="189"/>
		</contour>
		<contour>
			<point x="436" y="0" type="curve"/>
			<point x="640" y="0" type="line"/>
			<point x="640" y="75"/>
			<point x="640" y="149"/>
			<point x="640" y="224" type="curve" smooth="yes"/>
			<point x="640" y="370" type="line"/>
			<point x="640" y="516" type="line"/>
			<point x="576" y="516" type="line"/>
			<point x="372" y="486" type="line"/>
			<point x="372" y="422" type="line"/>
			<point x="436" y="404" type="line"/>
			<point x="436" y="224" type="line" smooth="yes"/>
			<point x="436" y="149"/>
			<point x="436" y="75"/>
		</contour>
		<contour>
			<point x="360" y="0" type="line"/>
			<point x="700" y="0" type="line"/>
			<point x="700" y="76" type="line"/>
			<point x="592" y="76" type="line"/>
			<point x="484" y="76" type="line"/>
			<point x="360" y="76" type="line"/>
		</contour>
	</outline>
	<anchor name="aboveLC" x="351" y="536"/>
</glyph>
<glyph name="circumflexhoi" format="2">
	<outline>
		<contour>
			<point x="-144" y="564" type="line"/>
			<point x="48" y="692" type="line"/>
			<point x="-48" y="692" type="line"/>
			<point x="144" y="564" type="line"/>
			<point x="188" y="604" type="line"/>
			<point x="40" y="772" type="line"/>
			<point x="-40" y="772" type="line"/>
			<point x="-188" y="604" type="line"/>
		</contour>
		<contour>
			<point x="156" y="736" type="curve"/>
			<point x="164" y="680" type="line"/>
			<point x="244" y="690"/>
			<point x="300" y="722"/>
			<point x="300" y="796" type="curve" smooth="yes"/>
			<point x="300" y="868"/>
			<point x="244" y="906"/>
			<point x="140" y="915" type="curve"/>
			<point x="128" y="804" type="line"/>
			<point x="188" y="802"/>
			<point x="204" y="790"/>
			<point x="204" y="770" type="curve" smooth="yes"/>
			<point x="204" y="750"/>
			<point x="188" y="742"/>
		</contour>
	</outline>
	<anchor name="_aboveLC" x="0" y="536"/>
</glyph>
<glyph name="comma.sups" format="2">
	<advance width="247"/>
	<outline>
		<contour>
			<point x="196" y="470" type="curve" smooth="yes"/>
			<point x="196" y="492"/>
			<point x="193" y="519"/>
			<point x="185" y="541" type="curve"/>
			<point x="174" y="547"/>
			<point x="152" y="552"/>
			<point x="129" y="552" type="curve" smooth="yes"/>
			<point x="82" y="552"/>
			<point x="51" y="523"/>
			<point x="51" y="481" type="curve" smooth="yes"/>
			<point x="51" y="441"/>
			<point x="79" y="421"/>
			<point x="113" y="408" type="curve" smooth="yes"/>
			<point x="152" y="391" type="line"/>
			<point x="124" y="411" type="line"/>
			<point x="101" y="367"/>
			<point x="74" y="341"/>
			<point x="29" y="318" type="curve"/>
			<point x="54" y="278" type="line"/>
			<point x="129" y="314"/>
			<point x="196" y="356"/>
		</contour>
	</outline>
</glyph>
<glyph name="eight.lf" format="2">
	<advance width="650"/>
	<outline>
		<contour>
			<point x="308" y="-16" type="curve" smooth="yes"/>
			<point x="515" y="-16"/>
			<point x="614" y="60"/>
			<point x="614" y="172" type="curve" smooth="yes"/>
			<point x="614" y="276"/>
			<point x="528" y="336"/>
			<point x="399" y="388" type="curve" smooth="yes"/>
			<point x="298" y="429"/>
			<point x="256" y="454"/>
			<point x="256" y="508" type="curve" smooth="yes"/>
			<point x="256" y="549"/>
			<point x="283" y="573"/>
			<point x="327" y="573" type="curve" smooth="yes"/>
			<point x="374" y="573"/>
			<point x="406" y="550"/>
			<point x="406" y="493" type="curve" smooth="yes"/>
			<point x="406" y="441"/>
			<point x="377" y="409"/>
			<point x="356" y="374" type="curve"/>
			<point x="396" y="352" type="line"/>
			<point x="426" y="401" type="line"/>
			<point x="520" y="408"/>
			<point x="582" y="432"/>
			<point x="582" y="510" type="curve" smooth="yes"/>
			<point x="582" y="588"/>
			<point x="476" y="644"/>
			<point x="337" y="644" type="curve" smooth="yes"/>
			<point x="169" y="644"/>
			<point x="68" y="567"/>
			<point x="68" y="463" type="curve" smooth="yes"/>
			<point x="68" y="363"/>
			<point x="146" y="311"/>
			<point x="247" y="269" type="curve" smooth="yes"/>
			<point x="363" y="220"/>
			<point x="417" y="192"/>
			<point x="417" y="140" type="curve" smooth="yes"/>
			<point x="417" y="88"/>
			<point x="384" y="56"/>
			<point x="319" y="56" type="curve" smooth="yes"/>
			<point x="259" y="56"/>
			<point x="224" y="81"/>
			<point x="224" y="143" type="curve" smooth="yes"/>
			<point x="224" y="198"/>
			<point x="258" y="245"/>
			<point x="291" y="288" type="curve"/>
			<point x="239" y="298" type="line"/>
			<point x="214" y="258" type="line"/>
			<point x="90" y="251"/>
			<point x="38" y="203"/>
			<point x="38" y="133" type="curve" smooth="yes"/>
			<point x="38" y="49"/>
			<point x="128" y="-16"/>
		</contour>
	</outline>
</glyph>
<glyph name="emdash.sups" format="2">
	<advance width="616"/>
	<outline>
		<contour>
			<point x="43" y="562" type="line"/>
			<point x="573" y="562" type="line"/>
			<point x="573" y="646" type="line"/>
			<point x="43" y="646" type="line"/>
		</contour>
	</outline>
</glyph>
<glyph name="endash.sups" format="2">
	<advance width="406"/>
	<outline>
		<contour>
			<point x="43" y="551" type="line"/>
			<point x="363" y="551" type="line"/>
			<point x="363" y="635" type="line"/>
			<point x="43" y="635" type="line"/>
		</contour>
	</outline>
</glyph>
<glyph name="four.cap" format="2">
	<advance width="618"/>
	<outline>
		<contour>
			<point x="303" y="-10" type="line"/>
			<point x="500" y="-10" type="line"/>
			<point x="500" y="652" type="line"/>
			<point x="319" y="652" type="line"/>
			<point x="33" y="216" type="line"/>
			<point x="33" y="116" type="line"/>
			<point x="605" y="116" type="line"/>
			<point x="605" y="234" type="line"/>
			<point x="138" y="234" type="line"/>
			<point x="138" y="285" type="line"/>
			<point x="111" y="214" type="line"/>
			<point x="304" y="508" type="line"/>
			<point x="254" y="487" type="line"/>
			<point x="307" y="487" type="line"/>
			<point x="307" y="183" type="line"/>
			<point x="303" y="160" type="line"/>
		</contour>
	</outline>
</glyph>
<glyph name="four.lf" format="2">
	<advance width="618"/>
	<outline>
		<contour>
			<point x="303" y="-10" type="line"/>
			<point x="500" y="-10" type="line"/>
			<point x="500" y="628" type="line"/>
			<point x="319" y="628" type="line"/>
			<point x="33" y="216" type="line"/>
			<point x="33" y="116" type="line"/>
			<point x="605" y="116" type="line"/>
			<point x="605" y="234" type="line"/>
			<point x="138" y="234" type="line"/>
			<point x="138" y="285" type="line"/>
			<point x="111" y="214" type="line"/>
			<point x="304" y="494" type="line"/>
			<point x="254" y="473" type="line"/>
			<point x="307" y="473" type="line"/>
			<point x="307" y="183" type="line"/>
			<point x="303" y="160" type="line"/>
		</contour>
	</outline>
</glyph>
<glyph name="gravecmb.cap" format="2">
	<outline>
		<contour>
			<point x="104" y="738" type="line"/>
			<point x="65" y="773"/>
			<point x="27" y="807"/>
			<point x="-12" y="842" type="curve" smooth="yes"/>
			<point x="-40" y="868"/>
			<point x="-62" y="882"/>
			<point x="-96" y="882" type="curve" smooth="yes"/>
			<point x="-136" y="882"/>
			<point x="-160" y="856"/>
			<point x="-160" y="822" type="curve" smooth="yes"/>
			<point x="-160" y="788"/>
			<point x="-142" y="764"/>
			<point x="-88" y="742" type="curve" smooth="yes"/>
			<point x="-37" y="721"/>
			<point x="13" y="701"/>
			<point x="64" y="680" type="curve"/>
		</contour>
	</outline>
	<anchor name="_aboveUC" x="0" y="672"/>
	<anchor name="aboveUC" x="0" y="882"/>
</glyph>
<glyph name="one.lf" format="2">
	<advance width="464"/>
	<outline>
		<contour>
			<point x="27" y="0" type="line"/>
			<point x="446" y="0" type="line"/>
			<point x="446" y="80" type="line"/>
			<point x="286" y="80" type="line"/>
			<point x="173" y="80" type="line"/>
			<point x="27" y="80" type="line"/>
		</contour>
		<contour>
			<point x="138" y="0" type="curve"/>
			<point x="342" y="0" type="line"/>
			<point x="342" y="95"/>
			<point x="342" y="189"/>
			<point x="342" y="284" type="curve" smooth="yes"/>
			<point x="342" y="368" type="line"/>
			<point x="342" y="628" type="line"/>
			<point x="272" y="628" type="line"/>
			<point x="55" y="556" type="line"/>
			<point x="55" y="476" type="line"/>
			<point x="138" y="488" type="line"/>
			<point x="138" y="284" type="line" smooth="yes"/>
			<point x="138" y="189"/>
			<point x="138" y="95"/>
		</contour>
	</outline>
</glyph>
<glyph name="sha.bgr" format="2">
	<advance width="1040"/>
	<outline>
		<contour>
			<point x="234" y="-16" type="curve" smooth="yes"/>
			<point x="324" y="-16"/>
			<point x="363" y="47"/>
			<point x="396" y="96" type="curve"/>
			<point x="452" y="96" type="line"/>
			<point x="452" y="168" type="line"/>
			<point x="412" y="140"/>
			<point x="380" y="128"/>
			<point x="346" y="128" type="curve" smooth="yes"/>
			<point x="304" y="128"/>
			<point x="284" y="148"/>
			<point x="284" y="196" type="curve" smooth="yes"/>
			<point x="284" y="370" type="line"/>
			<point x="284" y="516" type="line"/>
			<point x="212" y="516" type="line"/>
			<point x="16" y="486" type="line"/>
			<point x="16" y="422" type="line"/>
			<point x="80" y="404" type="line"/>
			<point x="80" y="164" type="line" smooth="yes"/>
			<point x="80" y="45"/>
			<point x="136" y="-16"/>
		</contour>
		<contour>
			<point x="566" y="-16" type="curve" smooth="yes"/>
			<point x="656" y="-16"/>
			<point x="695" y="47"/>
			<point x="728" y="96" type="curve"/>
			<point x="784" y="96" type="line"/>
			<point x="784" y="168" type="line"/>
			<point x="744" y="140"/>
			<point x="712" y="128"/>
			<point x="678" y="128" type="curve" smooth="yes"/>
			<point x="636" y="128"/>
			<point x="616" y="148"/>
			<point x="616" y="196" type="curve" smooth="yes"/>
			<point x="616" y="390" type="line"/>
			<point x="616" y="516" type="line"/>
			<point x="544" y="516" type="line"/>
			<point x="348" y="486" type="line"/>
			<point x="348" y="423" type="line"/>
			<point x="412" y="404" type="line"/>
			<point x="412" y="164" type="line" smooth="yes"/>
			<point x="412" y="45"/>
			<point x="468" y="-16"/>
		</contour>
		<contour>
			<point x="772" y="-8" type="line"/>
			<point x="1008" y="0" type="line"/>
			<point x="1008" y="68" type="line"/>
			<point x="948" y="84" type="line"/>
			<point x="948" y="370" type="line"/>
			<point x="948" y="516" type="line"/>
			<point x="876" y="516" type="line"/>
			<point x="680" y="486" type="line"/>
			<point x="680" y="423" type="line"/>
			<point x="744" y="404" type="line"/>
			<point x="744" y="104" type="line"/>
			<point x="760" y="104" type="line"/>
		</contour>
	</outline>
</glyph>
<glyph name="three.cap" format="2">
	<advance width="582"/>
	<outline>
		<contour>
			<point x="263" y="-16" type="curve" smooth="yes"/>
			<point x="467" y="-16"/>
			<point x="551" y="66"/>
			<point x="551" y="163" type="curve" smooth="yes"/>
			<point x="551" y="268"/>
			<point x="479" y="328"/>
			<point x="312" y="328" type="curve"/>
			<point x="312" y="352" type="line"/>
			<point x="454" y="352"/>
			<point x="533" y="424"/>
			<point x="533" y="512" type="curve" smooth="yes"/>
			<point x="533" y="602"/>
			<point x="460" y="668"/>
			<point x="285" y="668" type="curve" smooth="yes"/>
			<point x="145" y="668"/>
			<point x="78" y="611"/>
			<point x="62" y="517" type="curve"/>
			<point x="73" y="482"/>
			<point x="97" y="464"/>
			<point x="140" y="464" type="curve" smooth="yes"/>
			<point x="192" y="464"/>
			<point x="220" y="488"/>
			<point x="226" y="537" type="curve" smooth="yes"/>
			<point x="239" y="640" type="line"/>
			<point x="168" y="594" type="line"/>
			<point x="186" y="598"/>
			<point x="203" y="602"/>
			<point x="239" y="602" type="curve" smooth="yes"/>
			<point x="303" y="602"/>
			<point x="337" y="575"/>
			<point x="337" y="496" type="curve" smooth="yes"/>
			<point x="337" y="420"/>
			<point x="302" y="372"/>
			<point x="222" y="372" type="curve" smooth="yes"/>
			<point x="187" y="372" type="line"/>
			<point x="187" y="300" type="line"/>
			<point x="222" y="300" type="line" smooth="yes"/>
			<point x="310" y="300"/>
			<point x="346" y="250"/>
			<point x="346" y="178" type="curve" smooth="yes"/>
			<point x="346" y="104"/>
			<point x="309" y="52"/>
			<point x="211" y="52" type="curve" smooth="yes"/>
			<point x="184" y="52"/>
			<point x="158" y="56"/>
			<point x="140" y="60" type="curve"/>
			<point x="201" y="13" type="line"/>
			<point x="195" y="128" type="line" smooth="yes"/>
			<point x="192" y="188"/>
			<point x="151" y="212"/>
			<point x="107" y="212" type="curve" smooth="yes"/>
			<point x="68" y="212"/>
			<point x="41" y="188"/>
			<point x="31" y="139" type="curve"/>
			<point x="53" y="38"/>
			<point x="126" y="-16"/>
		</contour>
	</outline>
</glyph>
<glyph name="two.sc" format="2">
	<advance width="595"/>
	<outline>
		<contour>
			<point x="66" y="0" type="line"/>
			<point x="518" y="0" type="line"/>
			<point x="518" y="146" type="line"/>
			<point x="184" y="146" type="line"/>
			<point x="184" y="176" type="line"/>
			<point x="166" y="159" type="line"/>
			<point x="211" y="168"/>
			<point x="250" y="179"/>
			<point x="291" y="196" type="curve" smooth="yes"/>
			<point x="441" y="261"/>
			<point x="510" y="322"/>
			<point x="510" y="415" type="curve" smooth="yes"/>
			<point x="510" y="498"/>
			<point x="429" y="571"/>
			<point x="280" y="571" type="curve" smooth="yes"/>
			<point x="161" y="571"/>
			<point x="77" y="516"/>
			<point x="64" y="406" type="curve"/>
			<point x="72" y="370"/>
			<point x="101" y="350"/>
			<point x="136" y="350" type="curve" smooth="yes"/>
			<point x="190" y="350"/>
			<point x="219" y="378"/>
			<point x="225" y="431" type="curve" smooth="yes"/>
			<point x="239" y="546" type="line"/>
			<point x="145" y="503" type="line"/>
			<point x="160" y="507"/>
			<point x="185" y="510"/>
			<point x="222" y="510" type="curve" smooth="yes"/>
			<point x="289" y="510"/>
			<point x="323" y="486"/>
			<point x="323" y="417" type="curve" smooth="yes"/>
			<point x="323" y="363"/>
			<point x="294" y="306"/>
			<point x="189" y="208" type="curve" smooth="yes"/>
			<point x="151" y="175"/>
			<point x="107" y="139"/>
			<point x="66" y="104" type="curve"/>
		</contour>
	</outline>
</glyph>
<glyph name="ze.bgr" format="2">
	<advance width="563"/>
	<outline>
		<contour>
			<point x="247" y="-232" type="curve" smooth="yes"/>
			<point x="440" y="-232"/>
			<point x="527" y="-140"/>
			<point x="527" y="-22" type="curve" smooth="yes"/>
			<point x="527" y="96"/>
			<point x="443" y="152"/>
			<point x="291" y="152" type="curve"/>
			<point x="291" y="176" type="line"/>
			<point x="427" y="184"/>
			<point x="515" y="236"/>
			<point x="515" y="348" type="curve" smooth="yes"/>
			<point x="515" y="460"/>
			<point x="427" y="532"/>
			<point x="263" y="532" type="curve" smooth="yes"/>
			<point x="173" y="532"/>
			<point x="108" y="514"/>
			<point x="64" y="488" type="curve"/>
			<point x="64" y="328" type="line"/>
			<point x="144" y="328" type="line"/>
			<point x="192" y="484" type="line"/>
			<point x="136" y="460" type="line"/>
			<point x="158" y="465"/>
			<point x="180" y="468"/>
			<point x="223" y="468" type="curve" smooth="yes"/>
			<point x="299" y="468"/>
			<point x="331" y="420"/>
			<point x="331" y="330" type="curve" smooth="yes"/>
			<point x="331" y="240"/>
			<point x="299" y="196"/>
			<point x="215" y="196" type="curve" smooth="yes"/>
			<point x="156" y="196" type="line"/>
			<point x="156" y="120" type="line"/>
			<point x="215" y="120" type="line" smooth="yes"/>
			<point x="307" y="120"/>
			<point x="335" y="72"/>
			<point x="335" y="-22" type="curve" smooth="yes"/>
			<point x="335" y="-115"/>
			<point x="307" y="-162"/>
			<point x="211" y="-162" type="curve" smooth="yes"/>
			<point x="179" y="-162"/>
			<point x="145" y="-162"/>
			<point x="119" y="-160" type="curve"/>
			<point x="180" y="-180" type="line"/>
			<point x="171" y="-132" type="line" smooth="yes"/>
			<point x="157" y="-58"/>
			<point x="130" y="-25"/>
			<point x="78" y="-25" type="curve" smooth="yes"/>
			<point x="36" y="-25"/>
			<point x="18" y="-51"/>
			<point x="8" y="-83" type="curve"/>
			<point x="23" y="-182"/>
			<point x="82" y="-232"/>
		</contour>
	</outline>
	<anchor name="aboveLC" x="274" y="536"/>
</glyph>
